G04*
G04 #@! TF.GenerationSoftware,Altium Limited,Altium Designer,19.1.3 (30)*
G04*
G04 Layer_Color=65535*
%FSLAX25Y25*%
%MOIN*%
G70*
G01*
G75*
%ADD10C,0.00787*%
%ADD11C,0.00700*%
%ADD12C,0.00709*%
%ADD13C,0.00500*%
D10*
X681469Y7500D02*
Y17500D01*
X561469Y7500D02*
X681469D01*
X561469D02*
Y17500D01*
X568969D01*
X681469D01*
X881469Y7500D02*
Y17500D01*
X781469Y7500D02*
X881469D01*
X781469D02*
Y17500D01*
X788969D01*
X881469D01*
X781469Y7500D02*
Y17500D01*
X681469Y7500D02*
X781469D01*
X681469D02*
Y17500D01*
X688969D01*
X781469D01*
D11*
X20242Y83400D02*
Y85998D01*
X25689D01*
Y83400D02*
Y85998D01*
Y74002D02*
Y76600D01*
X20242Y74002D02*
X25689D01*
X20242D02*
Y76600D01*
X84242Y83400D02*
Y85998D01*
X89689D01*
Y83400D02*
Y85998D01*
Y74002D02*
Y76600D01*
X84242Y74002D02*
X89689D01*
X84242D02*
Y76600D01*
X126242Y83400D02*
Y85998D01*
X131689D01*
Y83400D02*
Y85998D01*
Y74002D02*
Y76600D01*
X126242Y74002D02*
X131689D01*
X126242D02*
Y76600D01*
X190742Y83400D02*
Y85998D01*
X196189D01*
Y83400D02*
Y85998D01*
Y74002D02*
Y76600D01*
X190742Y74002D02*
X196189D01*
X190742D02*
Y76600D01*
X229742Y83400D02*
Y85998D01*
X235189D01*
Y83400D02*
Y85998D01*
Y74002D02*
Y76600D01*
X229742Y74002D02*
X235189D01*
X229742D02*
Y76600D01*
X292742Y83400D02*
Y85998D01*
X298189D01*
Y83400D02*
Y85998D01*
Y74002D02*
Y76600D01*
X292742Y74002D02*
X298189D01*
X292742D02*
Y76600D01*
X333742Y83400D02*
Y85998D01*
X339189D01*
Y83400D02*
Y85998D01*
Y74002D02*
Y76600D01*
X333742Y74002D02*
X339189D01*
X333742D02*
Y76600D01*
X399242Y83400D02*
Y85998D01*
X404689D01*
Y83400D02*
Y85998D01*
Y74002D02*
Y76600D01*
X399242Y74002D02*
X404689D01*
X399242D02*
Y76600D01*
X439742Y83400D02*
Y85998D01*
X445189D01*
Y83400D02*
Y85998D01*
Y74002D02*
Y76600D01*
X439742Y74002D02*
X445189D01*
X439742D02*
Y76600D01*
X507242Y83400D02*
Y85998D01*
X512689D01*
Y83400D02*
Y85998D01*
Y74002D02*
Y76600D01*
X507242Y74002D02*
X512689D01*
X507242D02*
Y76600D01*
X535242Y83400D02*
Y85998D01*
X540689D01*
Y83400D02*
Y85998D01*
Y74002D02*
Y76600D01*
X535242Y74002D02*
X540689D01*
X535242D02*
Y76600D01*
X613242Y83400D02*
Y85998D01*
X618689D01*
Y83400D02*
Y85998D01*
Y74002D02*
Y76600D01*
X613242Y74002D02*
X618689D01*
X613242D02*
Y76600D01*
X647242Y83400D02*
Y85998D01*
X652689D01*
Y83400D02*
Y85998D01*
Y74002D02*
Y76600D01*
X647242Y74002D02*
X652689D01*
X647242D02*
Y76600D01*
X715242Y83400D02*
Y85998D01*
X720689D01*
Y83400D02*
Y85998D01*
Y74002D02*
Y76600D01*
X715242Y74002D02*
X720689D01*
X715242D02*
Y76600D01*
X749742Y83400D02*
Y85998D01*
X755189D01*
Y83400D02*
Y85998D01*
Y74002D02*
Y76600D01*
X749742Y74002D02*
X755189D01*
X749742D02*
Y76600D01*
X821742Y83400D02*
Y85998D01*
X827189D01*
Y83400D02*
Y85998D01*
Y74002D02*
Y76600D01*
X821742Y74002D02*
X827189D01*
X821742D02*
Y76600D01*
X857242Y83400D02*
Y85998D01*
X862689D01*
Y83400D02*
Y85998D01*
Y74002D02*
Y76600D01*
X857242Y74002D02*
X862689D01*
X857242D02*
Y76600D01*
X926742Y83400D02*
Y85998D01*
X932189D01*
Y83400D02*
Y85998D01*
Y74002D02*
Y76600D01*
X926742Y74002D02*
X932189D01*
X926742D02*
Y76600D01*
X963242Y83400D02*
Y85998D01*
X968689D01*
Y83400D02*
Y85998D01*
Y74002D02*
Y76600D01*
X963242Y74002D02*
X968689D01*
X963242D02*
Y76600D01*
X1029742Y83400D02*
Y85998D01*
X1035189D01*
Y83400D02*
Y85998D01*
Y74002D02*
Y76600D01*
X1029742Y74002D02*
X1035189D01*
X1029742D02*
Y76600D01*
D12*
X1033083Y59185D02*
Y59815D01*
X1029855Y59185D02*
Y59815D01*
X511583Y59685D02*
Y60315D01*
X508355Y59685D02*
Y60315D01*
X293855Y60685D02*
Y61315D01*
X297083Y60685D02*
Y61315D01*
X88583Y59685D02*
Y60315D01*
X85355Y59685D02*
Y60315D01*
X195083Y60185D02*
Y60815D01*
X191855Y60185D02*
Y60815D01*
X403583Y60185D02*
Y60815D01*
X400355Y60185D02*
Y60815D01*
X617583Y60185D02*
Y60815D01*
X614355Y60185D02*
Y60815D01*
X719583Y60185D02*
Y60815D01*
X716355Y60185D02*
Y60815D01*
X825583Y59835D02*
Y60465D01*
X822355Y59835D02*
Y60465D01*
X931583Y60035D02*
Y60665D01*
X928355Y60035D02*
Y60665D01*
D13*
X1029869Y88800D02*
Y90799D01*
X1030868D01*
X1031202Y90466D01*
Y89800D01*
X1030868Y89466D01*
X1029869D01*
X1030535D02*
X1031202Y88800D01*
X1031868Y90799D02*
Y88800D01*
X1033201D01*
X1035200D02*
X1033867D01*
X1035200Y90133D01*
Y90466D01*
X1034867Y90799D01*
X1034201D01*
X1033867Y90466D01*
X1035867D02*
X1036200Y90799D01*
X1036866D01*
X1037200Y90466D01*
Y89133D01*
X1036866Y88800D01*
X1036200D01*
X1035867Y89133D01*
Y90466D01*
X963369Y88800D02*
Y90799D01*
X964368D01*
X964702Y90466D01*
Y89800D01*
X964368Y89466D01*
X963369D01*
X964035D02*
X964702Y88800D01*
X965368Y90799D02*
Y88800D01*
X966701D01*
X967367D02*
X968034D01*
X967701D01*
Y90799D01*
X967367Y90466D01*
X969034Y89133D02*
X969367Y88800D01*
X970033D01*
X970366Y89133D01*
Y90466D01*
X970033Y90799D01*
X969367D01*
X969034Y90466D01*
Y90133D01*
X969367Y89800D01*
X970366D01*
X926869Y88800D02*
Y90799D01*
X927868D01*
X928202Y90466D01*
Y89800D01*
X927868Y89466D01*
X926869D01*
X927535D02*
X928202Y88800D01*
X928868Y90799D02*
Y88800D01*
X930201D01*
X930867D02*
X931534D01*
X931201D01*
Y90799D01*
X930867Y90466D01*
X932534D02*
X932867Y90799D01*
X933533D01*
X933867Y90466D01*
Y90133D01*
X933533Y89800D01*
X933867Y89466D01*
Y89133D01*
X933533Y88800D01*
X932867D01*
X932534Y89133D01*
Y89466D01*
X932867Y89800D01*
X932534Y90133D01*
Y90466D01*
X932867Y89800D02*
X933533D01*
X857369Y88800D02*
Y90799D01*
X858368D01*
X858702Y90466D01*
Y89800D01*
X858368Y89466D01*
X857369D01*
X858035D02*
X858702Y88800D01*
X859368Y90799D02*
Y88800D01*
X860701D01*
X861367D02*
X862034D01*
X861701D01*
Y90799D01*
X861367Y90466D01*
X863034Y90799D02*
X864367D01*
Y90466D01*
X863034Y89133D01*
Y88800D01*
X821869D02*
Y90799D01*
X822868D01*
X823202Y90466D01*
Y89800D01*
X822868Y89466D01*
X821869D01*
X822535D02*
X823202Y88800D01*
X823868Y90799D02*
Y88800D01*
X825201D01*
X825867D02*
X826534D01*
X826201D01*
Y90799D01*
X825867Y90466D01*
X828866Y90799D02*
X828200Y90466D01*
X827534Y89800D01*
Y89133D01*
X827867Y88800D01*
X828533D01*
X828866Y89133D01*
Y89466D01*
X828533Y89800D01*
X827534D01*
X749869Y88800D02*
Y90799D01*
X750868D01*
X751202Y90466D01*
Y89800D01*
X750868Y89466D01*
X749869D01*
X750535D02*
X751202Y88800D01*
X751868Y90799D02*
Y88800D01*
X753201D01*
X753867D02*
X754534D01*
X754201D01*
Y90799D01*
X753867Y90466D01*
X756867Y90799D02*
X755534D01*
Y89800D01*
X756200Y90133D01*
X756533D01*
X756867Y89800D01*
Y89133D01*
X756533Y88800D01*
X755867D01*
X755534Y89133D01*
X715369Y88800D02*
Y90799D01*
X716368D01*
X716702Y90466D01*
Y89800D01*
X716368Y89466D01*
X715369D01*
X716035D02*
X716702Y88800D01*
X717368Y90799D02*
Y88800D01*
X718701D01*
X719368D02*
X720034D01*
X719701D01*
Y90799D01*
X719368Y90466D01*
X722033Y88800D02*
Y90799D01*
X721034Y89800D01*
X722367D01*
X647369Y88800D02*
Y90799D01*
X648368D01*
X648702Y90466D01*
Y89800D01*
X648368Y89466D01*
X647369D01*
X648035D02*
X648702Y88800D01*
X649368Y90799D02*
Y88800D01*
X650701D01*
X651368D02*
X652034D01*
X651701D01*
Y90799D01*
X651368Y90466D01*
X653034D02*
X653367Y90799D01*
X654033D01*
X654366Y90466D01*
Y90133D01*
X654033Y89800D01*
X653700D01*
X654033D01*
X654366Y89466D01*
Y89133D01*
X654033Y88800D01*
X653367D01*
X653034Y89133D01*
X613369Y88800D02*
Y90799D01*
X614368D01*
X614702Y90466D01*
Y89800D01*
X614368Y89466D01*
X613369D01*
X614035D02*
X614702Y88800D01*
X615368Y90799D02*
Y88800D01*
X616701D01*
X617368D02*
X618034D01*
X617701D01*
Y90799D01*
X617368Y90466D01*
X620366Y88800D02*
X619034D01*
X620366Y90133D01*
Y90466D01*
X620033Y90799D01*
X619367D01*
X619034Y90466D01*
X535369Y88800D02*
Y90799D01*
X536368D01*
X536702Y90466D01*
Y89800D01*
X536368Y89466D01*
X535369D01*
X536035D02*
X536702Y88800D01*
X537368Y90799D02*
Y88800D01*
X538701D01*
X539367D02*
X540034D01*
X539701D01*
Y90799D01*
X539367Y90466D01*
X541034Y88800D02*
X541700D01*
X541367D01*
Y90799D01*
X541034Y90466D01*
X507369Y88800D02*
Y90799D01*
X508368D01*
X508702Y90466D01*
Y89800D01*
X508368Y89466D01*
X507369D01*
X508035D02*
X508702Y88800D01*
X509368Y90799D02*
Y88800D01*
X510701D01*
X511368D02*
X512034D01*
X511701D01*
Y90799D01*
X511368Y90466D01*
X513034D02*
X513367Y90799D01*
X514033D01*
X514366Y90466D01*
Y89133D01*
X514033Y88800D01*
X513367D01*
X513034Y89133D01*
Y90466D01*
X439869Y88800D02*
Y90799D01*
X440868D01*
X441202Y90466D01*
Y89800D01*
X440868Y89466D01*
X439869D01*
X440535D02*
X441202Y88800D01*
X441868Y90799D02*
Y88800D01*
X443201D01*
X443867Y89133D02*
X444201Y88800D01*
X444867D01*
X445200Y89133D01*
Y90466D01*
X444867Y90799D01*
X444201D01*
X443867Y90466D01*
Y90133D01*
X444201Y89800D01*
X445200D01*
X399369Y88800D02*
Y90799D01*
X400368D01*
X400702Y90466D01*
Y89800D01*
X400368Y89466D01*
X399369D01*
X400035D02*
X400702Y88800D01*
X401368Y90799D02*
Y88800D01*
X402701D01*
X403368Y90466D02*
X403701Y90799D01*
X404367D01*
X404700Y90466D01*
Y90133D01*
X404367Y89800D01*
X404700Y89466D01*
Y89133D01*
X404367Y88800D01*
X403701D01*
X403368Y89133D01*
Y89466D01*
X403701Y89800D01*
X403368Y90133D01*
Y90466D01*
X403701Y89800D02*
X404367D01*
X333869Y88800D02*
Y90799D01*
X334868D01*
X335202Y90466D01*
Y89800D01*
X334868Y89466D01*
X333869D01*
X334535D02*
X335202Y88800D01*
X335868Y90799D02*
Y88800D01*
X337201D01*
X337867Y90799D02*
X339200D01*
Y90466D01*
X337867Y89133D01*
Y88800D01*
X292869D02*
Y90799D01*
X293868D01*
X294202Y90466D01*
Y89800D01*
X293868Y89466D01*
X292869D01*
X293535D02*
X294202Y88800D01*
X294868Y90799D02*
Y88800D01*
X296201D01*
X298200Y90799D02*
X297534Y90466D01*
X296867Y89800D01*
Y89133D01*
X297201Y88800D01*
X297867D01*
X298200Y89133D01*
Y89466D01*
X297867Y89800D01*
X296867D01*
X229869Y88800D02*
Y90799D01*
X230868D01*
X231202Y90466D01*
Y89800D01*
X230868Y89466D01*
X229869D01*
X230535D02*
X231202Y88800D01*
X231868Y90799D02*
Y88800D01*
X233201D01*
X235200Y90799D02*
X233868D01*
Y89800D01*
X234534Y90133D01*
X234867D01*
X235200Y89800D01*
Y89133D01*
X234867Y88800D01*
X234201D01*
X233868Y89133D01*
X190869Y88800D02*
Y90799D01*
X191868D01*
X192202Y90466D01*
Y89800D01*
X191868Y89466D01*
X190869D01*
X191535D02*
X192202Y88800D01*
X192868Y90799D02*
Y88800D01*
X194201D01*
X195867D02*
Y90799D01*
X194868Y89800D01*
X196200D01*
X126369Y88800D02*
Y90799D01*
X127368D01*
X127702Y90466D01*
Y89800D01*
X127368Y89466D01*
X126369D01*
X127035D02*
X127702Y88800D01*
X128368Y90799D02*
Y88800D01*
X129701D01*
X130368Y90466D02*
X130701Y90799D01*
X131367D01*
X131700Y90466D01*
Y90133D01*
X131367Y89800D01*
X131034D01*
X131367D01*
X131700Y89466D01*
Y89133D01*
X131367Y88800D01*
X130701D01*
X130368Y89133D01*
X84369Y88800D02*
Y90799D01*
X85368D01*
X85702Y90466D01*
Y89800D01*
X85368Y89466D01*
X84369D01*
X85035D02*
X85702Y88800D01*
X86368Y90799D02*
Y88800D01*
X87701D01*
X89700D02*
X88367D01*
X89700Y90133D01*
Y90466D01*
X89367Y90799D01*
X88701D01*
X88367Y90466D01*
X20369Y88800D02*
Y90799D01*
X21368D01*
X21702Y90466D01*
Y89800D01*
X21368Y89466D01*
X20369D01*
X21035D02*
X21702Y88800D01*
X22368Y90799D02*
Y88800D01*
X23701D01*
X24367D02*
X25034D01*
X24701D01*
Y90799D01*
X24367Y90466D01*
X781569Y20400D02*
Y22399D01*
X782568D01*
X782902Y22066D01*
Y21400D01*
X782568Y21067D01*
X781569D01*
X783568Y22066D02*
X783901Y22399D01*
X784568D01*
X784901Y22066D01*
Y21733D01*
X784568Y21400D01*
X784235D01*
X784568D01*
X784901Y21067D01*
Y20733D01*
X784568Y20400D01*
X783901D01*
X783568Y20733D01*
X681569Y20400D02*
Y22399D01*
X682568D01*
X682902Y22066D01*
Y21400D01*
X682568Y21067D01*
X681569D01*
X684901Y20400D02*
X683568D01*
X684901Y21733D01*
Y22066D01*
X684568Y22399D01*
X683901D01*
X683568Y22066D01*
X561569Y20400D02*
Y22399D01*
X562568D01*
X562902Y22066D01*
Y21400D01*
X562568Y21067D01*
X561569D01*
X563568Y20400D02*
X564235D01*
X563901D01*
Y22399D01*
X563568Y22066D01*
X1030202Y70066D02*
X1029868Y70399D01*
X1029202D01*
X1028869Y70066D01*
Y68733D01*
X1029202Y68400D01*
X1029868D01*
X1030202Y68733D01*
X1030868Y70399D02*
Y68400D01*
X1032201D01*
X1032867D02*
X1033534D01*
X1033201D01*
Y70399D01*
X1032867Y70066D01*
X1034534D02*
X1034867Y70399D01*
X1035533D01*
X1035867Y70066D01*
Y68733D01*
X1035533Y68400D01*
X1034867D01*
X1034534Y68733D01*
Y70066D01*
X975069Y100500D02*
Y102499D01*
X976068D01*
X976402Y102166D01*
Y101500D01*
X976068Y101166D01*
X975069D01*
X977068Y100500D02*
Y101833D01*
X977734Y102499D01*
X978401Y101833D01*
Y100500D01*
Y101500D01*
X977068D01*
X979067Y102499D02*
X980400D01*
X979734D01*
Y100500D01*
X981067D02*
X981733D01*
X981400D01*
Y102499D01*
X981067Y102166D01*
X982733D02*
X983066Y102499D01*
X983733D01*
X984066Y102166D01*
Y100833D01*
X983733Y100500D01*
X983066D01*
X982733Y100833D01*
Y102166D01*
X870069Y100500D02*
Y102499D01*
X871068D01*
X871402Y102166D01*
Y101500D01*
X871068Y101166D01*
X870069D01*
X872068Y100500D02*
Y101833D01*
X872735Y102499D01*
X873401Y101833D01*
Y100500D01*
Y101500D01*
X872068D01*
X874067Y102499D02*
X875400D01*
X874734D01*
Y100500D01*
X876067Y100833D02*
X876400Y100500D01*
X877067D01*
X877400Y100833D01*
Y102166D01*
X877067Y102499D01*
X876400D01*
X876067Y102166D01*
Y101833D01*
X876400Y101500D01*
X877400D01*
X765069Y100500D02*
Y102499D01*
X766068D01*
X766402Y102166D01*
Y101500D01*
X766068Y101166D01*
X765069D01*
X767068Y100500D02*
Y101833D01*
X767735Y102499D01*
X768401Y101833D01*
Y100500D01*
Y101500D01*
X767068D01*
X769067Y102499D02*
X770400D01*
X769734D01*
Y100500D01*
X771067Y102166D02*
X771400Y102499D01*
X772066D01*
X772400Y102166D01*
Y101833D01*
X772066Y101500D01*
X772400Y101166D01*
Y100833D01*
X772066Y100500D01*
X771400D01*
X771067Y100833D01*
Y101166D01*
X771400Y101500D01*
X771067Y101833D01*
Y102166D01*
X771400Y101500D02*
X772066D01*
X660069Y100500D02*
Y102499D01*
X661068D01*
X661402Y102166D01*
Y101500D01*
X661068Y101166D01*
X660069D01*
X662068Y100500D02*
Y101833D01*
X662735Y102499D01*
X663401Y101833D01*
Y100500D01*
Y101500D01*
X662068D01*
X664068Y102499D02*
X665400D01*
X664734D01*
Y100500D01*
X666067Y102499D02*
X667400D01*
Y102166D01*
X666067Y100833D01*
Y100500D01*
X555069D02*
Y102499D01*
X556068D01*
X556402Y102166D01*
Y101500D01*
X556068Y101166D01*
X555069D01*
X557068Y100500D02*
Y101833D01*
X557735Y102499D01*
X558401Y101833D01*
Y100500D01*
Y101500D01*
X557068D01*
X559067Y102499D02*
X560400D01*
X559734D01*
Y100500D01*
X562400Y102499D02*
X561733Y102166D01*
X561067Y101500D01*
Y100833D01*
X561400Y100500D01*
X562067D01*
X562400Y100833D01*
Y101166D01*
X562067Y101500D01*
X561067D01*
X450069Y100500D02*
Y102499D01*
X451068D01*
X451402Y102166D01*
Y101500D01*
X451068Y101166D01*
X450069D01*
X452068Y100500D02*
Y101833D01*
X452735Y102499D01*
X453401Y101833D01*
Y100500D01*
Y101500D01*
X452068D01*
X454068Y102499D02*
X455400D01*
X454734D01*
Y100500D01*
X457400Y102499D02*
X456067D01*
Y101500D01*
X456733Y101833D01*
X457066D01*
X457400Y101500D01*
Y100833D01*
X457066Y100500D01*
X456400D01*
X456067Y100833D01*
X345069Y100500D02*
Y102499D01*
X346068D01*
X346402Y102166D01*
Y101500D01*
X346068Y101166D01*
X345069D01*
X347068Y100500D02*
Y101833D01*
X347734Y102499D01*
X348401Y101833D01*
Y100500D01*
Y101500D01*
X347068D01*
X349067Y102499D02*
X350400D01*
X349734D01*
Y100500D01*
X352066D02*
Y102499D01*
X351067Y101500D01*
X352400D01*
X240069Y100500D02*
Y102499D01*
X241068D01*
X241402Y102166D01*
Y101500D01*
X241068Y101166D01*
X240069D01*
X242068Y100500D02*
Y101833D01*
X242735Y102499D01*
X243401Y101833D01*
Y100500D01*
Y101500D01*
X242068D01*
X244068Y102499D02*
X245400D01*
X244734D01*
Y100500D01*
X246067Y102166D02*
X246400Y102499D01*
X247066D01*
X247400Y102166D01*
Y101833D01*
X247066Y101500D01*
X246733D01*
X247066D01*
X247400Y101166D01*
Y100833D01*
X247066Y100500D01*
X246400D01*
X246067Y100833D01*
X135069Y100500D02*
Y102499D01*
X136068D01*
X136402Y102166D01*
Y101500D01*
X136068Y101166D01*
X135069D01*
X137068Y100500D02*
Y101833D01*
X137734Y102499D01*
X138401Y101833D01*
Y100500D01*
Y101500D01*
X137068D01*
X139067Y102499D02*
X140400D01*
X139734D01*
Y100500D01*
X142400D02*
X141067D01*
X142400Y101833D01*
Y102166D01*
X142067Y102499D01*
X141400D01*
X141067Y102166D01*
X30069Y100500D02*
Y102499D01*
X31068D01*
X31402Y102166D01*
Y101500D01*
X31068Y101166D01*
X30069D01*
X32068Y100500D02*
Y101833D01*
X32735Y102499D01*
X33401Y101833D01*
Y100500D01*
Y101500D01*
X32068D01*
X34067Y102499D02*
X35400D01*
X34734D01*
Y100500D01*
X36067D02*
X36733D01*
X36400D01*
Y102499D01*
X36067Y102166D01*
X928702Y70866D02*
X928368Y71199D01*
X927702D01*
X927369Y70866D01*
Y69533D01*
X927702Y69200D01*
X928368D01*
X928702Y69533D01*
X929368Y71199D02*
Y69200D01*
X930701D01*
X931367Y69533D02*
X931701Y69200D01*
X932367D01*
X932700Y69533D01*
Y70866D01*
X932367Y71199D01*
X931701D01*
X931367Y70866D01*
Y70533D01*
X931701Y70200D01*
X932700D01*
X822702Y70666D02*
X822368Y70999D01*
X821702D01*
X821369Y70666D01*
Y69333D01*
X821702Y69000D01*
X822368D01*
X822702Y69333D01*
X823368Y70999D02*
Y69000D01*
X824701D01*
X825367Y70666D02*
X825701Y70999D01*
X826367D01*
X826700Y70666D01*
Y70333D01*
X826367Y70000D01*
X826700Y69666D01*
Y69333D01*
X826367Y69000D01*
X825701D01*
X825367Y69333D01*
Y69666D01*
X825701Y70000D01*
X825367Y70333D01*
Y70666D01*
X825701Y70000D02*
X826367D01*
X716702Y71066D02*
X716368Y71399D01*
X715702D01*
X715369Y71066D01*
Y69733D01*
X715702Y69400D01*
X716368D01*
X716702Y69733D01*
X717368Y71399D02*
Y69400D01*
X718701D01*
X719368Y71399D02*
X720700D01*
Y71066D01*
X719368Y69733D01*
Y69400D01*
X614702Y71066D02*
X614368Y71399D01*
X613702D01*
X613369Y71066D01*
Y69733D01*
X613702Y69400D01*
X614368D01*
X614702Y69733D01*
X615368Y71399D02*
Y69400D01*
X616701D01*
X618700Y71399D02*
X618034Y71066D01*
X617368Y70400D01*
Y69733D01*
X617701Y69400D01*
X618367D01*
X618700Y69733D01*
Y70066D01*
X618367Y70400D01*
X617368D01*
X508602Y70566D02*
X508268Y70899D01*
X507602D01*
X507269Y70566D01*
Y69233D01*
X507602Y68900D01*
X508268D01*
X508602Y69233D01*
X509268Y70899D02*
Y68900D01*
X510601D01*
X512600Y70899D02*
X511268D01*
Y69900D01*
X511934Y70233D01*
X512267D01*
X512600Y69900D01*
Y69233D01*
X512267Y68900D01*
X511601D01*
X511268Y69233D01*
X400702Y71066D02*
X400368Y71399D01*
X399702D01*
X399369Y71066D01*
Y69733D01*
X399702Y69400D01*
X400368D01*
X400702Y69733D01*
X401368Y71399D02*
Y69400D01*
X402701D01*
X404367D02*
Y71399D01*
X403368Y70400D01*
X404700D01*
X294102Y71566D02*
X293768Y71899D01*
X293102D01*
X292769Y71566D01*
Y70233D01*
X293102Y69900D01*
X293768D01*
X294102Y70233D01*
X294768Y71899D02*
Y69900D01*
X296101D01*
X296767Y71566D02*
X297101Y71899D01*
X297767D01*
X298100Y71566D01*
Y71233D01*
X297767Y70900D01*
X297434D01*
X297767D01*
X298100Y70566D01*
Y70233D01*
X297767Y69900D01*
X297101D01*
X296767Y70233D01*
X192202Y71066D02*
X191868Y71399D01*
X191202D01*
X190869Y71066D01*
Y69733D01*
X191202Y69400D01*
X191868D01*
X192202Y69733D01*
X192868Y71399D02*
Y69400D01*
X194201D01*
X196200D02*
X194868D01*
X196200Y70733D01*
Y71066D01*
X195867Y71399D01*
X195201D01*
X194868Y71066D01*
X85702Y70566D02*
X85368Y70899D01*
X84702D01*
X84369Y70566D01*
Y69233D01*
X84702Y68900D01*
X85368D01*
X85702Y69233D01*
X86368Y70899D02*
Y68900D01*
X87701D01*
X88367D02*
X89034D01*
X88701D01*
Y70899D01*
X88367Y70566D01*
M02*
