M48
;Layer_Color=9474304
;FILE_FORMAT=2:5
INCH,LZ
;TYPE=PLATED
T1F00S00C0.01181
T2F00S00C0.03543
T3F00S00C0.04331
T4F00S00C0.12500
;TYPE=NON_PLATED
T5F00S00C0.04331
%
T01
X093Y0072
X0966Y00705
X1033Y00715
X086Y0071
X08245Y00715
X07525Y007
X0718Y00715
X065Y00705
X0616Y0072
X06035Y00575
X0538Y00705
X051Y0072
X04425Y00705
X0402Y00715
X03365Y0071
X02955Y00725
X02325Y00685
X01935Y0072
X0129Y00705
X0087Y0072
X0023Y0066
T02
X0983969Y00435
Y00635
Y00835
X0993969
X1003969
X1013969
Y00635
Y00435
X0908969
Y00635
Y00835
X0898969
X0888969
X0878969
Y00635
Y00435
X0803969
Y00635
Y00835
X0793969
X0783969
X0773969
Y00635
Y00435
X0698969
Y00635
Y00835
X0688969
X0678969
X0668969
Y00635
Y00435
X0593969
Y00635
Y00835
X0583969
X0573969
X0563969
Y00635
Y00435
X0488969
Y00635
Y00835
X0478969
X0468969
X0458969
Y00635
Y00435
X0383969
Y00635
Y00835
X0373969
X0363969
X0353969
Y00635
Y00435
X0278969
Y00635
Y00835
X0268969
X0258969
X0248969
Y00635
Y00435
X0173969
Y00635
Y00835
X0163969
X0153969
X0143969
Y00635
Y00435
X0068969
Y00635
Y00835
X0058969
X0048969
X0038969
Y00635
Y00435
T03
X0566469Y00125
X0576469
X0586469
X0596469
X0606469
X0616469
X0626469
X0636469
X0646469
X0656469
X0666469
X0676469
X0686469
X0696469
X0706469
X0716469
X0726469
X0736469
X0746469
X0756469
X0766469
X0776469
X0786469
X0796469
X0806469
X0816469
X0826469
X0836469
X0846469
X0856469
X0866469
X0876469
T04
X0110236Y0007874
X0453
X0897
X1003937
X1043307Y0094551
X07365
X0316354
X0007874
T05
X0983969Y00335
X1013969Y00935
X0908969
X0878969Y00335
X0773969
X0803969Y00935
X0698969
X0668969Y00335
X0563969
X0593969Y00935
X0488969
X0458969Y00335
X0353969
X0383969Y00935
X0278969
X0248969Y00335
X0143969
X0173969Y00935
X0068969
X0038969Y00335
M30
