G04*
G04 #@! TF.GenerationSoftware,Altium Limited,Altium Designer,19.1.3 (30)*
G04*
G04 Layer_Color=255*
%FSLAX25Y25*%
%MOIN*%
G70*
G01*
G75*
%ADD28C,0.13780*%
%ADD29R,0.06299X0.06299*%
%ADD30C,0.06299*%
%ADD31C,0.04331*%
%ADD32R,0.05600X0.05600*%
%ADD33R,0.05906X0.05906*%
D28*
X110236Y7874D02*
D03*
X736500Y94551D02*
D03*
X453000Y7874D02*
D03*
X316354Y94551D02*
D03*
X897000Y7874D02*
D03*
X1043307Y94551D02*
D03*
X1003937Y7874D02*
D03*
X7874Y94551D02*
D03*
D29*
X566469Y12500D02*
D03*
X786469D02*
D03*
X686469D02*
D03*
D30*
X576469D02*
D03*
X586469D02*
D03*
X596469D02*
D03*
X606469D02*
D03*
X616469D02*
D03*
X626469D02*
D03*
X636469D02*
D03*
X646469D02*
D03*
X656469D02*
D03*
X666469D02*
D03*
X676469D02*
D03*
X796469D02*
D03*
X816469D02*
D03*
X826469D02*
D03*
X836469D02*
D03*
X846469D02*
D03*
X856469D02*
D03*
X866469D02*
D03*
X876469D02*
D03*
X806469D02*
D03*
X696469D02*
D03*
X716469D02*
D03*
X726469D02*
D03*
X736469D02*
D03*
X746469D02*
D03*
X756469D02*
D03*
X766469D02*
D03*
X776469D02*
D03*
X706469D02*
D03*
D31*
X38969Y33500D02*
D03*
X68969Y93500D02*
D03*
X143969Y33500D02*
D03*
X173969Y93500D02*
D03*
X248969Y33500D02*
D03*
X278969Y93500D02*
D03*
X353969Y33500D02*
D03*
X383969Y93500D02*
D03*
X458969Y33500D02*
D03*
X488969Y93500D02*
D03*
X563969Y33500D02*
D03*
X593969Y93500D02*
D03*
X668969Y33500D02*
D03*
X698969Y93500D02*
D03*
X773969Y33500D02*
D03*
X803969Y93500D02*
D03*
X878969Y33500D02*
D03*
X908969Y93500D02*
D03*
X983969Y33500D02*
D03*
X1013969Y93500D02*
D03*
D32*
X58969Y83500D02*
D03*
X68969D02*
D03*
X38969D02*
D03*
X48969D02*
D03*
X163969D02*
D03*
X173969D02*
D03*
X143969D02*
D03*
X153969D02*
D03*
X268969D02*
D03*
X278969D02*
D03*
X248969D02*
D03*
X258969D02*
D03*
X373969D02*
D03*
X383969D02*
D03*
X353969D02*
D03*
X363969D02*
D03*
X478969D02*
D03*
X488969D02*
D03*
X458969D02*
D03*
X468969D02*
D03*
X583969D02*
D03*
X593969D02*
D03*
X563969D02*
D03*
X573969D02*
D03*
X688969D02*
D03*
X698969D02*
D03*
X668969D02*
D03*
X678969D02*
D03*
X793969D02*
D03*
X803969D02*
D03*
X773969D02*
D03*
X783969D02*
D03*
X898969D02*
D03*
X908969D02*
D03*
X878969D02*
D03*
X888969D02*
D03*
X1003969D02*
D03*
X1013969D02*
D03*
X983969D02*
D03*
X993969D02*
D03*
D33*
X38969Y43500D02*
D03*
Y63500D02*
D03*
X68969D02*
D03*
Y43500D02*
D03*
X143969D02*
D03*
Y63500D02*
D03*
X173969D02*
D03*
Y43500D02*
D03*
X248969D02*
D03*
Y63500D02*
D03*
X278969D02*
D03*
Y43500D02*
D03*
X353969D02*
D03*
Y63500D02*
D03*
X383969D02*
D03*
Y43500D02*
D03*
X458969D02*
D03*
Y63500D02*
D03*
X488969D02*
D03*
Y43500D02*
D03*
X563969D02*
D03*
Y63500D02*
D03*
X593969D02*
D03*
Y43500D02*
D03*
X668969D02*
D03*
Y63500D02*
D03*
X698969D02*
D03*
Y43500D02*
D03*
X773969D02*
D03*
Y63500D02*
D03*
X803969D02*
D03*
Y43500D02*
D03*
X878969D02*
D03*
Y63500D02*
D03*
X908969D02*
D03*
Y43500D02*
D03*
X983969D02*
D03*
Y63500D02*
D03*
X1013969D02*
D03*
Y43500D02*
D03*
M02*
