G04*
G04 #@! TF.GenerationSoftware,Altium Limited,Altium Designer,19.1.3 (30)*
G04*
G04 Layer_Color=8421504*
%FSLAX25Y25*%
%MOIN*%
G70*
G01*
G75*
%ADD14R,0.03740X0.03937*%
%ADD15R,0.03937X0.03937*%
D14*
X22969Y83150D02*
D03*
Y76850D02*
D03*
X86969Y83150D02*
D03*
Y76850D02*
D03*
X128969Y83150D02*
D03*
Y76850D02*
D03*
X193469Y83150D02*
D03*
Y76850D02*
D03*
X232469Y83150D02*
D03*
Y76850D02*
D03*
X295469Y83150D02*
D03*
Y76850D02*
D03*
X336469Y83150D02*
D03*
Y76850D02*
D03*
X401969Y83150D02*
D03*
Y76850D02*
D03*
X442469Y83150D02*
D03*
Y76850D02*
D03*
X509969Y83150D02*
D03*
Y76850D02*
D03*
X537969Y83150D02*
D03*
Y76850D02*
D03*
X615969Y83150D02*
D03*
Y76850D02*
D03*
X649969Y83150D02*
D03*
Y76850D02*
D03*
X717969Y83150D02*
D03*
Y76850D02*
D03*
X752469Y83150D02*
D03*
Y76850D02*
D03*
X824469Y83150D02*
D03*
Y76850D02*
D03*
X859969Y83150D02*
D03*
Y76850D02*
D03*
X929469Y83150D02*
D03*
Y76850D02*
D03*
X965969Y83150D02*
D03*
Y76850D02*
D03*
X1032469Y83150D02*
D03*
Y76850D02*
D03*
D15*
X1031469Y62650D02*
D03*
Y56350D02*
D03*
X509969Y63150D02*
D03*
Y56850D02*
D03*
X295469Y57850D02*
D03*
Y64150D02*
D03*
X86969Y63150D02*
D03*
Y56850D02*
D03*
X193469Y63650D02*
D03*
Y57350D02*
D03*
X401969Y63650D02*
D03*
Y57350D02*
D03*
X615969Y63650D02*
D03*
Y57350D02*
D03*
X717969Y63650D02*
D03*
Y57350D02*
D03*
X823969Y63299D02*
D03*
Y57000D02*
D03*
X929969Y63500D02*
D03*
Y57201D02*
D03*
M02*
