G04*
G04 #@! TF.GenerationSoftware,Altium Limited,Altium Designer,19.1.3 (30)*
G04*
G04 Layer_Color=128*
%FSLAX25Y25*%
%MOIN*%
G70*
G01*
G75*
%ADD16R,0.03937X0.03740*%
%ADD17R,0.03937X0.03937*%
%ADD99R,0.04100X0.04700*%
%ADD100R,0.11811X0.18110*%
%ADD101R,0.04000X0.10600*%
%ADD102R,0.41200X0.42800*%
%ADD103R,0.22047X0.12598*%
%ADD104R,0.03937X0.03937*%
D16*
X1078150Y231500D02*
D03*
X1071850D02*
D03*
X1079650Y326500D02*
D03*
X1073350D02*
D03*
X1078953Y411268D02*
D03*
X1072653D02*
D03*
X1129350Y380917D02*
D03*
X1135650D02*
D03*
X1129350Y390833D02*
D03*
X1135650D02*
D03*
X1129350Y400750D02*
D03*
X1135650D02*
D03*
X1129350Y410667D02*
D03*
X1135650D02*
D03*
X1129350Y420583D02*
D03*
X1135650D02*
D03*
X1129350Y371000D02*
D03*
X1135650D02*
D03*
X1129350Y430500D02*
D03*
X1135650D02*
D03*
X1129350Y296000D02*
D03*
X1135650D02*
D03*
X1129350Y286000D02*
D03*
X1135650D02*
D03*
X1129350Y276000D02*
D03*
X1135650D02*
D03*
X1130850Y241500D02*
D03*
X1137150D02*
D03*
X1130850Y231000D02*
D03*
X1137150D02*
D03*
X1130850Y221500D02*
D03*
X1137150D02*
D03*
X1129350Y336000D02*
D03*
X1135650D02*
D03*
X1129350Y326000D02*
D03*
X1135650D02*
D03*
X1129350Y306000D02*
D03*
X1135650D02*
D03*
X1129350Y316000D02*
D03*
X1135650D02*
D03*
D17*
X712500Y283850D02*
D03*
Y290150D02*
D03*
X481000Y284850D02*
D03*
Y291150D02*
D03*
X599000Y282850D02*
D03*
Y289150D02*
D03*
D99*
X509050Y399800D02*
D03*
X521750D02*
D03*
X319650Y391500D02*
D03*
X332350D02*
D03*
D100*
X550400Y420300D02*
D03*
Y453371D02*
D03*
X449400Y471335D02*
D03*
Y438265D02*
D03*
X258583Y473539D02*
D03*
Y440469D02*
D03*
X362500Y409965D02*
D03*
Y443035D02*
D03*
D101*
X515300Y419200D02*
D03*
X508600D02*
D03*
X501900D02*
D03*
X495200D02*
D03*
X488500D02*
D03*
X325900Y407900D02*
D03*
X319200D02*
D03*
X312500D02*
D03*
X305800D02*
D03*
X299100D02*
D03*
D102*
X501900Y451800D02*
D03*
X312500Y440500D02*
D03*
D103*
X449400Y379312D02*
D03*
Y418091D02*
D03*
X258118Y379323D02*
D03*
Y418102D02*
D03*
D104*
X1071850Y241500D02*
D03*
X1078150D02*
D03*
X1073201Y336500D02*
D03*
X1079500D02*
D03*
X1073350Y431000D02*
D03*
X1079650D02*
D03*
M02*
