G04*
G04 #@! TF.GenerationSoftware,Altium Limited,Altium Designer,19.1.3 (30)*
G04*
G04 Layer_Color=255*
%FSLAX25Y25*%
%MOIN*%
G70*
G01*
G75*
%ADD16R,0.03937X0.03740*%
%ADD17R,0.03937X0.03937*%
G04:AMPARAMS|DCode=18|XSize=31.5mil|YSize=31.5mil|CornerRadius=3.94mil|HoleSize=0mil|Usage=FLASHONLY|Rotation=180.000|XOffset=0mil|YOffset=0mil|HoleType=Round|Shape=RoundedRectangle|*
%AMROUNDEDRECTD18*
21,1,0.03150,0.02362,0,0,180.0*
21,1,0.02362,0.03150,0,0,180.0*
1,1,0.00787,-0.01181,0.01181*
1,1,0.00787,0.01181,0.01181*
1,1,0.00787,0.01181,-0.01181*
1,1,0.00787,-0.01181,-0.01181*
%
%ADD18ROUNDEDRECTD18*%
%ADD19R,0.02200X0.04800*%
%ADD20R,0.03740X0.03937*%
%ADD66C,0.06693*%
%ADD67R,0.06693X0.06693*%
%ADD68O,0.05200X0.10400*%
%ADD69C,0.17717*%
%ADD70R,0.12598X0.12598*%
%ADD71R,0.12205X0.12205*%
%ADD72C,0.06600*%
%ADD73P,0.05629X8X112.5*%
%ADD74C,0.05118*%
%ADD75C,0.07874*%
%ADD76R,0.09843X0.19685*%
%ADD77R,0.08858X0.17717*%
%ADD78R,0.17717X0.08858*%
%ADD79C,0.07087*%
%ADD80C,0.05386*%
%ADD81R,0.05386X0.05386*%
%ADD82C,0.05906*%
%ADD83R,0.05906X0.05906*%
%ADD84P,0.05629X8X22.5*%
%ADD85R,0.05906X0.05906*%
%ADD86C,0.06299*%
%ADD87C,0.13780*%
%ADD88R,0.06299X0.06299*%
%ADD89C,0.11811*%
%ADD90C,0.04331*%
%ADD91R,0.04449X0.04449*%
%ADD92C,0.04449*%
%ADD93C,0.04724*%
%ADD94C,0.05512*%
%ADD95R,0.04449X0.04449*%
%ADD96C,0.07000*%
%ADD97C,0.12598*%
D16*
X783650Y67500D02*
D03*
X777350D02*
D03*
X1250150Y21000D02*
D03*
X1243850D02*
D03*
X1086150D02*
D03*
X1079850D02*
D03*
X925150D02*
D03*
X918850D02*
D03*
X600641Y22181D02*
D03*
X594342D02*
D03*
X437650Y21000D02*
D03*
X431350D02*
D03*
X275150D02*
D03*
X268850D02*
D03*
X110150D02*
D03*
X103850D02*
D03*
X50799Y80000D02*
D03*
X44500D02*
D03*
X1363500Y109500D02*
D03*
X1357201D02*
D03*
X1357350Y100500D02*
D03*
X1363650D02*
D03*
X879150Y162000D02*
D03*
X872850D02*
D03*
X879000Y152000D02*
D03*
X872701D02*
D03*
X879000Y142000D02*
D03*
X872701D02*
D03*
X878650Y132000D02*
D03*
X872350D02*
D03*
X1269500Y390000D02*
D03*
X1263201D02*
D03*
X1211650Y359500D02*
D03*
X1205350D02*
D03*
X1249650D02*
D03*
X1243350D02*
D03*
X1230650D02*
D03*
X1224350D02*
D03*
X1427350Y390000D02*
D03*
X1433650D02*
D03*
X1405850Y360000D02*
D03*
X1412150D02*
D03*
X1387350D02*
D03*
X1393650D02*
D03*
X1368850D02*
D03*
X1375150D02*
D03*
X1393150Y420500D02*
D03*
X1386850D02*
D03*
X1229650Y421500D02*
D03*
X1223350D02*
D03*
X1410150Y420500D02*
D03*
X1403850D02*
D03*
X1247650Y421500D02*
D03*
X1241350D02*
D03*
D17*
X776500Y77850D02*
D03*
Y84150D02*
D03*
D18*
X1231693Y21000D02*
D03*
X1225000D02*
D03*
X1069347D02*
D03*
X1062654D02*
D03*
X907347D02*
D03*
X900653D02*
D03*
X582685Y22181D02*
D03*
X575992D02*
D03*
X420193Y21000D02*
D03*
X413500D02*
D03*
X256693D02*
D03*
X250000D02*
D03*
X93000D02*
D03*
X86307D02*
D03*
D19*
X41000Y63480D02*
D03*
X37260Y71520D02*
D03*
X44740D02*
D03*
D20*
X1260000Y377650D02*
D03*
Y371350D02*
D03*
X1196000Y405850D02*
D03*
Y412150D02*
D03*
Y387850D02*
D03*
Y394150D02*
D03*
X1196500Y368350D02*
D03*
Y374650D02*
D03*
X1421000Y368850D02*
D03*
Y375150D02*
D03*
X1359500Y375650D02*
D03*
Y369350D02*
D03*
X1359000Y393650D02*
D03*
Y387350D02*
D03*
X1359500Y412150D02*
D03*
Y405850D02*
D03*
X1295000Y218850D02*
D03*
Y225150D02*
D03*
X1285500Y218850D02*
D03*
Y225150D02*
D03*
D66*
X195000Y140000D02*
D03*
X205000D02*
D03*
X215000D02*
D03*
X225000D02*
D03*
X235000D02*
D03*
X375000D02*
D03*
X365000D02*
D03*
X425000D02*
D03*
X415000D02*
D03*
X405000D02*
D03*
X395000D02*
D03*
X385000D02*
D03*
X295000D02*
D03*
X305000D02*
D03*
X315000D02*
D03*
X325000D02*
D03*
X335000D02*
D03*
X275000D02*
D03*
X285000D02*
D03*
X385000Y330000D02*
D03*
X395000D02*
D03*
X335000D02*
D03*
X345000D02*
D03*
X355000D02*
D03*
X365000D02*
D03*
X375000D02*
D03*
X199000D02*
D03*
X189000D02*
D03*
X179000D02*
D03*
X169000D02*
D03*
X159000D02*
D03*
X219000D02*
D03*
X209000D02*
D03*
X295000D02*
D03*
X305000D02*
D03*
X245000D02*
D03*
X255000D02*
D03*
X265000D02*
D03*
X275000D02*
D03*
X285000D02*
D03*
X435000Y160000D02*
D03*
X445000D02*
D03*
X435000Y170000D02*
D03*
X445000D02*
D03*
X435000Y180000D02*
D03*
X445000D02*
D03*
X435000Y190000D02*
D03*
X445000D02*
D03*
X435000Y200000D02*
D03*
X445000D02*
D03*
X435000Y210000D02*
D03*
X445000D02*
D03*
X435000Y220000D02*
D03*
X445000D02*
D03*
X435000Y230000D02*
D03*
X445000D02*
D03*
Y240000D02*
D03*
X435000D02*
D03*
Y250000D02*
D03*
X445000D02*
D03*
X435000Y260000D02*
D03*
X445000D02*
D03*
X435000Y270000D02*
D03*
X445000D02*
D03*
X435000Y280000D02*
D03*
X445000D02*
D03*
X435000Y290000D02*
D03*
X445000D02*
D03*
X435000Y300000D02*
D03*
X445000D02*
D03*
X435000Y310000D02*
D03*
X445000D02*
D03*
X435000Y320000D02*
D03*
X445000D02*
D03*
X435000Y330000D02*
D03*
X445000D02*
D03*
D67*
X245000Y140000D02*
D03*
X355000D02*
D03*
X265000D02*
D03*
X405000Y330000D02*
D03*
X229000D02*
D03*
X315000D02*
D03*
D68*
X1400000Y109685D02*
D03*
X1390000D02*
D03*
X1380000D02*
D03*
D69*
X658667Y171916D02*
D03*
X988185Y326185D02*
D03*
X1456693Y324147D02*
D03*
Y171916D02*
D03*
X19685Y324147D02*
D03*
Y171916D02*
D03*
X1456693Y476378D02*
D03*
X330500D02*
D03*
X658667D02*
D03*
X986833D02*
D03*
X1315000D02*
D03*
Y19685D02*
D03*
X986833D02*
D03*
X658667D02*
D03*
X330500D02*
D03*
X1456693D02*
D03*
X19685D02*
D03*
X101500Y476378D02*
D03*
D70*
X67677Y64311D02*
D03*
X230177D02*
D03*
X392677D02*
D03*
X555334D02*
D03*
X880177D02*
D03*
X1042677D02*
D03*
X1205177D02*
D03*
Y236811D02*
D03*
D71*
X112165Y64390D02*
D03*
X274665D02*
D03*
X437165D02*
D03*
X599822D02*
D03*
X924665D02*
D03*
X1087165D02*
D03*
X1249665D02*
D03*
Y236890D02*
D03*
D72*
X99843Y34941D02*
D03*
X90000D02*
D03*
X80157D02*
D03*
X242657D02*
D03*
X252500D02*
D03*
X262343D02*
D03*
X424843D02*
D03*
X415000D02*
D03*
X405157D02*
D03*
X567814D02*
D03*
X577657D02*
D03*
X587500D02*
D03*
X912343D02*
D03*
X902500D02*
D03*
X892657D02*
D03*
X1055157D02*
D03*
X1065000D02*
D03*
X1074843D02*
D03*
X1237343D02*
D03*
X1227500D02*
D03*
X1217657D02*
D03*
Y207441D02*
D03*
X1227500D02*
D03*
X1237343D02*
D03*
D73*
X1208186Y335559D02*
D03*
Y325559D02*
D03*
X1246814D02*
D03*
Y335559D02*
D03*
X1176936Y358263D02*
D03*
Y348263D02*
D03*
X1208186Y454441D02*
D03*
Y444441D02*
D03*
X1246814D02*
D03*
Y454441D02*
D03*
X1278064Y348263D02*
D03*
Y358263D02*
D03*
X1370686Y325559D02*
D03*
Y335559D02*
D03*
X1339436Y358263D02*
D03*
Y348263D02*
D03*
X1370686Y454441D02*
D03*
Y444441D02*
D03*
X1409314D02*
D03*
Y454441D02*
D03*
X1440563Y348263D02*
D03*
Y358263D02*
D03*
X1409314Y335559D02*
D03*
Y325559D02*
D03*
D74*
X738000Y53000D02*
D03*
X732000D02*
D03*
Y68000D02*
D03*
X738000D02*
D03*
X750000D02*
D03*
X744000D02*
D03*
X750000Y53000D02*
D03*
X744000D02*
D03*
X756000Y78217D02*
D03*
X726000D02*
D03*
D75*
X765500Y35000D02*
D03*
X716000D02*
D03*
X766000Y85500D02*
D03*
X715500D02*
D03*
X1227500Y390000D02*
D03*
X1390000D02*
D03*
D76*
X54311Y374102D02*
D03*
D77*
X30689D02*
D03*
D78*
X42500Y393000D02*
D03*
D79*
X14153Y374102D02*
D03*
D80*
X1294437Y240335D02*
D03*
D81*
X1286563D02*
D03*
D82*
X353713Y347429D02*
D03*
Y357429D02*
D03*
X363713Y347429D02*
D03*
Y357429D02*
D03*
X373713Y347429D02*
D03*
X899646Y151614D02*
D03*
Y141614D02*
D03*
Y131614D02*
D03*
X712595Y378949D02*
D03*
X702595D02*
D03*
X692594D02*
D03*
X682594D02*
D03*
X672594D02*
D03*
X662595D02*
D03*
X652595D02*
D03*
X642594D02*
D03*
X632594D02*
D03*
X622594D02*
D03*
X612595D02*
D03*
X23417Y282634D02*
D03*
Y272634D02*
D03*
Y262634D02*
D03*
Y252634D02*
D03*
Y242634D02*
D03*
D83*
X373713Y357429D02*
D03*
X602595Y378949D02*
D03*
D84*
X1160000Y390000D02*
D03*
X1170000D02*
D03*
X1181936Y426737D02*
D03*
X1171936D02*
D03*
X1283064D02*
D03*
X1273064D02*
D03*
X1285000Y390000D02*
D03*
X1295000D02*
D03*
X1322500D02*
D03*
X1332500D02*
D03*
X1344436Y426737D02*
D03*
X1334436D02*
D03*
X1445564D02*
D03*
X1435564D02*
D03*
X1447500Y390000D02*
D03*
X1457500D02*
D03*
D85*
X899646Y161614D02*
D03*
X23417Y232634D02*
D03*
D86*
X1334500Y55500D02*
D03*
Y63374D02*
D03*
X1334421Y71248D02*
D03*
X568626Y268000D02*
D03*
X576500D02*
D03*
X584374Y268079D02*
D03*
X832500Y379000D02*
D03*
X852500D02*
D03*
X862500D02*
D03*
X872500D02*
D03*
X882500D02*
D03*
X892500D02*
D03*
X902500D02*
D03*
X912500D02*
D03*
X842500D02*
D03*
X732500D02*
D03*
X752500D02*
D03*
X762500D02*
D03*
X772500D02*
D03*
X782500D02*
D03*
X792500D02*
D03*
X802500D02*
D03*
X812500D02*
D03*
X742500D02*
D03*
D87*
X1040063Y374323D02*
D03*
X933158D02*
D03*
X489126D02*
D03*
X146362D02*
D03*
X352480Y461000D02*
D03*
X44000D02*
D03*
X1079433D02*
D03*
X772626D02*
D03*
D88*
X822500Y379000D02*
D03*
X722500D02*
D03*
D89*
X17740Y98532D02*
D03*
Y118532D02*
D03*
D90*
X1241260Y399997D02*
D03*
X1232756Y406175D02*
D03*
X1222244D02*
D03*
X1213740Y399997D02*
D03*
X1210492Y390000D02*
D03*
X1213740Y380003D02*
D03*
X1222244Y373825D02*
D03*
X1232756D02*
D03*
X1241260Y380003D02*
D03*
X1244508Y390000D02*
D03*
X1407008D02*
D03*
X1403760Y380003D02*
D03*
X1395256Y373825D02*
D03*
X1384744D02*
D03*
X1376240Y380003D02*
D03*
X1372992Y390000D02*
D03*
X1376240Y399997D02*
D03*
X1384744Y406175D02*
D03*
X1395256D02*
D03*
X1403760Y399997D02*
D03*
D91*
X1121630Y336250D02*
D03*
X1120630Y241500D02*
D03*
Y431000D02*
D03*
D92*
X1121630Y326250D02*
D03*
Y316250D02*
D03*
Y306250D02*
D03*
Y296250D02*
D03*
Y286250D02*
D03*
Y276250D02*
D03*
Y266250D02*
D03*
X1090370D02*
D03*
Y276250D02*
D03*
Y286250D02*
D03*
Y296250D02*
D03*
Y306250D02*
D03*
Y316250D02*
D03*
Y326250D02*
D03*
Y336250D02*
D03*
X1089370Y241500D02*
D03*
Y231500D02*
D03*
Y221500D02*
D03*
Y211500D02*
D03*
Y201500D02*
D03*
Y191500D02*
D03*
Y181500D02*
D03*
Y171500D02*
D03*
X1120630D02*
D03*
Y181500D02*
D03*
Y191500D02*
D03*
Y201500D02*
D03*
Y211500D02*
D03*
Y221500D02*
D03*
Y231500D02*
D03*
Y421000D02*
D03*
Y411000D02*
D03*
Y401000D02*
D03*
Y391000D02*
D03*
Y381000D02*
D03*
Y371000D02*
D03*
Y361000D02*
D03*
X1089370D02*
D03*
Y371000D02*
D03*
Y381000D02*
D03*
Y391000D02*
D03*
Y401000D02*
D03*
Y411000D02*
D03*
Y421000D02*
D03*
Y431000D02*
D03*
X722500Y332630D02*
D03*
X732500D02*
D03*
X742500D02*
D03*
X752500D02*
D03*
X762500D02*
D03*
X772500D02*
D03*
X782500D02*
D03*
Y301370D02*
D03*
X772500D02*
D03*
X762500D02*
D03*
X752500D02*
D03*
X742500D02*
D03*
X732500D02*
D03*
X722500D02*
D03*
X712500D02*
D03*
X609000Y333260D02*
D03*
X619000D02*
D03*
X629000D02*
D03*
X639000D02*
D03*
X649000D02*
D03*
X659000D02*
D03*
X669000D02*
D03*
Y302000D02*
D03*
X659000D02*
D03*
X649000D02*
D03*
X639000D02*
D03*
X629000D02*
D03*
X619000D02*
D03*
X609000D02*
D03*
X599000D02*
D03*
X491000Y333260D02*
D03*
X501000D02*
D03*
X511000D02*
D03*
X521000D02*
D03*
X531000D02*
D03*
X541000D02*
D03*
X551000D02*
D03*
Y302000D02*
D03*
X541000D02*
D03*
X531000D02*
D03*
X521000D02*
D03*
X511000D02*
D03*
X501000D02*
D03*
X491000D02*
D03*
X481000D02*
D03*
D93*
X34500Y424500D02*
D03*
Y471744D02*
D03*
D94*
X25445Y458161D02*
D03*
X15445Y454146D02*
D03*
X25445Y450130D02*
D03*
X15445Y446114D02*
D03*
X25445Y442098D02*
D03*
X15445Y438083D02*
D03*
D95*
X712500Y332630D02*
D03*
X599000Y333260D02*
D03*
X481000D02*
D03*
D96*
X315551Y249803D02*
D03*
X325551D02*
D03*
X315551Y239803D02*
D03*
X325551D02*
D03*
X315551Y229803D02*
D03*
X325551D02*
D03*
D97*
X325000Y270000D02*
D03*
X125000Y330000D02*
D03*
X120000Y140000D02*
D03*
X325000Y160000D02*
D03*
X445000Y140000D02*
D03*
X420000Y330000D02*
D03*
M02*
