M48
;Layer_Color=9474304
;FILE_FORMAT=2:5
INCH,LZ
;TYPE=PLATED
T1F00S00C0.01181
T2F00S00C0.02756
T3F00S00C0.02874
T4F00S00C0.03150
T5F00S00C0.03200
T6F00S00C0.03386
T7F00S00C0.03543
T8F00S00C0.03937
T9F00S00C0.04331
T11F00S00C0.05906
T12F00S00C0.06299
T13F00S00C0.06693
T14F00S00C0.11024
T15F00S00C0.12500
T16F00S00C0.12598
;TYPE=NON_PLATED
T17F00S00C0.07087
T18F00S00C0.09449
%
T01
X0011Y0036
Y0045
Y00545
X00245
Y0045
Y0036
X0053
Y0045
Y00545
X0178079Y0055618
X0196327Y0057106
X0211221Y0055244
X0214575Y0032153
X0198933
X0178823Y0029921
X02825Y0033
Y0043
Y0052
X0296
Y0043
Y0033
X03105
Y0043
Y0052
Y00615
X0296
X03245
Y0052
Y0043
Y0033
X0341Y00595
Y00695
Y00785
X03545
Y00695
Y00595
X0369
Y00695
Y00785
X0383
X0446Y00545
Y00455
Y00355
X04595
Y00455
Y00545
Y0064
X0474
Y00545
Y00455
Y00355
X0420551Y0024681
X0488Y00355
Y00455
Y00545
Y0064
X0501
Y0055
Y0045
X05145
Y0055
Y0064
X0611Y006
Y0069
X06245
Y006
Y005
X0611
X0639
Y006
Y0069
X0653
Y006
Y005
X07765Y0054
X079
Y0064
Y0073
X08045
X08185
Y0064
X0955Y0061
Y0052
Y0042
X09685
Y0052
Y0061
Y00705
X0955
X0983
Y0061
Y0052
Y0042
X0997
Y0052
Y0061
Y00705
X1113799Y0058512
X1123299
X1132299
X1142299
Y0044512
X1132299
X1123299
X1113799
X1269992Y0047083
X1279492
Y0061083
X1288492
X1269992
X1433Y0068
X14425
X14515
X14615
X1461Y0053
X1451
X1442
X14325
Y0039
X1442
X1451
X1461
X1442Y00245
X14325
Y0011
X1442
X14425Y00815
X14515
X14615
Y0096
X14515
X14425
X1433
Y011
X14425
X14515
X14615
X1433Y00815
X1410972Y0159563
X1400972
X1391972
X1382472
Y0173563
X1391972
X1400972
X1410972
X1335Y02025
X1325
X1316
X13065
Y0216
X1316
X1325
X1335
Y02305
X1325
X1316
X13065
X13155Y0101
Y00965
X12005Y01075
X11685Y01625
X11585
X11495
X114
Y0176
X11495
X11585
X11685
Y01905
X11585
X11495
X114
Y02045
X11495
X11585
X11685
X11075Y02325
X1104Y02305
X11005Y023
X1096252Y0144417
X1086252
X1077252
X1067752
Y0130417
X1077252
X1086252
X1096252
X1040929Y0132138
X1030929
X1021929
X1012429
Y0146138
X1021929
X1030929
X1040929
X09425Y01465
Y01315
X09305Y0123394
X09195Y01205
X09425Y01625
X08185Y00825
X08045
X079
X0728575Y0174059
X0718575
X0709575
X0700075
Y0188059
X0709575
X0718575
X0728575
X0729264Y0205327
X0719264
X0710264
X0700764
Y0219327
X0710264
X0719264
X0729264
X0680126Y0220705
X0670126
X0661126
X0651626
Y0206705
X0661126
X0670126
X0680126
X06005Y0182
X05475Y0179
X0544625Y01755
X0542Y01725
X0539Y01695
X04945Y01985
X04805Y0234
X04835Y0237
X0492476Y0138642
X0441055Y0152622
X0383Y0088
X0369
X03545
X0341
X0094028Y013835
X0090386Y0204437
X008574Y0204224
X0081157Y0203992
X0033669Y0222287
X0014547Y0234327
X001078Y0239035
X0006386Y0244685
X0006701Y0253634
Y0264937
X0007484Y0276083
X0008583Y0337461
X0005299Y0346693
X0005Y0384874
X0007077Y0388933
X0021173Y0388921
X0020571Y03845
X0021094Y0346244
X0013905Y0345795
X0033701Y0339185
X0050846Y0298114
X0056221Y0298047
X0058587Y0293634
X005311Y0293835
X0047842Y0293571
X0050398Y0288709
X0055646Y028839
X0068138Y0271866
X0077925Y0262016
X0087587Y0252232
X0097Y0242756
X0188819Y0286382
X039815Y0346965
X0420579Y0347937
X0446173Y0347453
X045422Y0355984
X0463728Y0364028
X0476256Y03165
X0477Y0296
X04775Y02805
X0477Y0276
X04775Y0256
X03685Y0388
X03635
X03585
X05459Y03903
X05509
X05559
X0566547Y029598
X05925Y03075
X0592Y0312
Y0316
X05915Y03195
X06095
X062Y0316
X0482Y0257897
X04865Y02405
X0651968Y023763
X0661469
X0670469
X0680469
Y025163
X0670469
X0661469
X0651968
X0701106
X0710606
X0719606
X0729606
Y023763
X0719606
X0710606
X0701106
X06905Y03035
X0654Y03075
X0642Y0312
X0726Y03195
X07475Y0316
X07595Y0312
X07705Y03075
X084852Y0319756
X085802
X086702
X087702
Y0333756
X086702
X085802
X084852
X0891819Y0333067
X0901319
X0910319
X0920319
Y0319067
X0910319
X0901319
X0891819
X093752Y0319413
X094702
Y0333413
X093752
X095602
X096602
Y0319413
X095602
X1029Y0328
X1066Y0326
X1099Y03245
X11045
X10515Y02965
X1051Y02865
X1065Y02515
X107285Y0376
X1143Y03705
X1147Y038
X11495Y039
X1155Y0341
X11095Y03225
X12285Y03215
X1237Y0311
X12835Y02765
X12925Y0281
X1301Y02855
X1314Y02915
X13325Y03005
Y0265
X1335Y02445
X1325
X1316
X13065
X13995Y02785
X14105Y0282
X13885Y0312
X14195Y02855
X14335Y04035
X12695Y04025
X1153Y04
X1156Y04105
X11395Y04305
X05559Y03958
X05509
X05459
X05159Y04363
Y04433
X05154Y04503
Y04583
X05014Y04578
X04894Y04583
Y04503
Y04433
X0480303Y0414732
X0470551Y0414248
Y0425216
Y0439843
X0462996Y0454224
X0440567Y0456906
X0421795Y0457638
X0404732Y0448618
X0402051Y0433748
X0402295Y0416197
X0376744Y0416496
X0374311Y0424547
X036289Y0426232
X0349972Y0425295
X0344547Y0421551
X0337807Y0416496
X03265Y04275
Y0435
Y04465
X0326Y04555
X03585Y03995
Y0394
X03635
X03685
Y03995
X0313Y04465
X03125Y04555
X0299Y0456
X02995Y0447
X0299Y0436
X0224547Y0439339
X0224358Y044589
X0227354Y0453004
X0234469Y0459366
X0213315Y0438961
X0203768
X0194595Y0438587
X0189539Y043185
X018224Y0424736
X0176996Y0417622
X0119579Y0425185
X0091Y042
X0081032Y0416339
X00735Y04445
X0018772Y0433232
X0011736Y0433008
X0012784Y0424772
X001922Y0425146
X0018772Y0413768
X0012409Y0414067
X0005299Y0414291
X000515Y0424472
X0005972Y0433157
T02
X121374Y0380003
X1210492Y039
X1222244Y0373825
X1232756
X124126Y0380003
X1244508Y039
X1372992
X137624Y0380003
X1384744Y0373825
X1395256
X140376Y0380003
X1407008Y039
X140376Y0399997
X1395256Y0406175
X1384744
X137624Y0399997
X124126
X1232756Y0406175
X1222244
X121374Y0399997
T03
X112063Y01715
Y01815
Y01915
Y02015
Y02115
Y02215
Y02315
X108937
Y02215
Y02115
Y02015
Y01915
Y01815
Y01715
X0629Y0302
X0619
X0609
X0599
Y033326
X0609
X0619
X0629
X0551
X0541
X0531
X0521
X0511
X0501
X0491
X0481
Y0302
X0491
X0501
X0511
X0521
X0531
X0541
X0551
X0639
X0649
X0659
X0669
Y033326
X0659
X0649
X0639
X07125Y033263
X07225
X07325
X07425
X07525
X07625
X07725
X07825
Y030137
X07725
X07625
X07525
X07425
X07325
X07225
X07125
X109037Y030625
Y029625
Y028625
Y027625
Y026625
X108937Y02415
X109037Y031625
Y032625
Y033625
X108937Y0361
Y0371
Y0381
Y0391
X112063
Y0381
Y0371
Y0361
X112163Y033625
Y032625
Y031625
Y030625
Y029625
Y028625
Y027625
Y026625
X112063Y02415
Y0401
Y0411
Y0421
Y0431
X108937
Y0421
Y0411
Y0401
T04
X0732Y0053
X0738
X0744
X075
Y0068
X0744
X0738
X0732
X0726Y0078217
X0756
T05
X138Y0109685
X139
X14
X1246814Y0325559
Y0335559
X1208186
Y0325559
X1176936Y0348263
Y0358263
X117Y039
X116
X1285
X1295
X13225
X13325
X1339436Y0358263
Y0348263
X1370686Y0335559
Y0325559
X1409314
Y0335559
X1278064Y0348263
Y0358263
X1440563
Y0348263
X14475Y039
X14575
X1445564Y0426737
X1435564
X1409314Y0444441
Y0454441
X1370686
Y0444441
X1344436Y0426737
X1334436
X1283064
X1273064
X1246814Y0444441
Y0454441
X1208186
Y0444441
X1181936Y0426737
X1171936
T06
X1286563Y0240335
X1294437
T07
X0899646Y0131614
Y0141614
Y0151614
Y0161614
X0325551Y0229803
X0315551
X0023417Y0232634
Y0242634
Y0252634
Y0262634
Y0272634
Y0282634
X0315551Y0249803
Y0239803
X0325551
Y0249803
X0353713Y0347429
Y0357429
X0363713
Y0347429
X0373713
Y0357429
X0602595Y0378949
X0612595
X0622594
X0632594
X0642594
X0652595
X0662595
X0672594
X0682594
X0692594
X0702595
X0712595
X0025445Y0442098
Y045013
Y0458161
X0015445Y0454146
Y0446114
Y0438083
T08
X13345Y00555
Y0063374
X1334421Y0071248
X0584374Y0268079
X05765Y0268
X0568626
T09
X0080157Y0034941
X009
X0099843
X0242657
X02525
X0262343
X0405157
X0415
X0424843
X0567814
X0577657
X05875
X0892657
X09025
X0912343
X1055157
X1065
X1074843
X1217657
X12275
X1237343
Y0207441
X12275
X1217657
X0445Y021
Y02
Y019
Y018
Y017
Y016
X0435
Y017
Y018
Y019
Y02
Y021
Y022
X0445
Y023
X0435
X0425Y014
X0415
X0405
X0395
X0385
X0375
X0365
X0355
X0335
X0325
X0315
X0305
X0295
X0285
X0275
X0265
X0245
X0235
X0225
X0215
X0205
X0195
X0159Y033
X0169
X0179
X0189
X0199
X0209
X0219
X0229
X0245
X0255
X0265
X0275
X0285
X0295
X0305
X0315
X0335
X0345
X0355
X0365
X0375
X0385
X0395
X0405
X0435
Y032
Y031
Y03
Y029
Y028
Y027
Y026
Y025
Y024
X0445
Y025
Y026
Y027
Y028
Y029
Y03
Y031
Y032
Y033
X07225Y0379
X07325
X07425
X07525
X07625
X07725
X07825
X07925
X08025
X08125
X08225
X08325
X08425
X08525
X08625
X08725
X08825
X08925
X09025
X09125
T11
X12275Y039
X139
T12
X0716Y0035
X07655
X0766Y00855
X07155
T13
X001774Y0098532
Y0118532
T14
X0067677Y0064311
X0112165Y006439
X0230177Y0064311
X0274665Y006439
X0392677Y0064311
X0437165Y006439
X0555334Y0064311
X0599822Y006439
X0880177Y0064311
X0924665Y006439
X1042677Y0064311
X1087165Y006439
X1205177Y0064311
X1249665Y006439
Y023689
X1205177Y0236811
T15
X0146362Y0374323
X0489126
X0933158
X1040063
X1079433Y0461
X0772626
X035248
X0044
T16
X0019685Y0019685
X03305
X0658667
X0986833
X1315
X1456693
Y0171916
X0658667
X0445Y014
X0325Y016
X012Y014
X0019685Y0171916
Y0324147
X0125Y033
X0325Y027
X042Y033
X0988185Y0326185
X1456693Y0324147
Y0476378
X1315
X0986833
X0658667
X03305
X01015
T17
X0014153Y0374102
T18
X00345Y04245
Y0471744
M30
