G04*
G04 #@! TF.GenerationSoftware,Altium Limited,Altium Designer,19.1.3 (30)*
G04*
G04 Layer_Color=16711935*
%FSLAX25Y25*%
%MOIN*%
G70*
G01*
G75*
%ADD112C,0.00050*%
D112*
X747658Y52142D02*
G03*
X747837Y52265I-2348J3616D01*
G01*
X747565Y52087D02*
G03*
X747658Y52142I-823J1485D01*
G01*
X747469Y52038D02*
G03*
X747565Y52087I-713J1517D01*
G01*
X747370Y51995D02*
G03*
X747469Y52038I-747J1844D01*
G01*
X747269Y51956D02*
G03*
X747370Y51995I-823J2319D01*
G01*
X747166Y51922D02*
G03*
X747269Y51956I-970J3060D01*
G01*
X747061Y51890D02*
G03*
X747166Y51922I-1272J4375D01*
G01*
X750132Y53874D02*
G03*
X750379Y54098I-12117J13614D01*
G01*
X749881Y53653D02*
G03*
X750007Y53763I-5943J6988D01*
G01*
X749752Y53547D02*
G03*
X749881Y53653I-3689J4595D01*
G01*
X749619Y53445D02*
G03*
X749752Y53547I-2581J3481D01*
G01*
X749483Y53348D02*
G03*
X749619Y53445I-2662J3883D01*
G01*
X749344Y53255D02*
G03*
X749483Y53348I-3595J5540D01*
G01*
X421530Y52142D02*
G03*
X421710Y52265I-2348J3616D01*
G01*
X421438Y52087D02*
G03*
X421530Y52142I-823J1485D01*
G01*
X421342Y52038D02*
G03*
X421438Y52087I-713J1517D01*
G01*
X421243Y51995D02*
G03*
X421342Y52038I-747J1844D01*
G01*
X421142Y51956D02*
G03*
X421243Y51995I-823J2319D01*
G01*
X421038Y51922D02*
G03*
X421142Y51956I-970J3060D01*
G01*
X420934Y51890D02*
G03*
X421038Y51922I-1272J4375D01*
G01*
X424004Y53874D02*
G03*
X424251Y54098I-12117J13614D01*
G01*
X423753Y53653D02*
G03*
X423879Y53763I-5943J6988D01*
G01*
X423624Y53547D02*
G03*
X423753Y53653I-3689J4595D01*
G01*
X423492Y53445D02*
G03*
X423624Y53547I-2581J3481D01*
G01*
X423356Y53348D02*
G03*
X423492Y53445I-2662J3883D01*
G01*
X423217Y53255D02*
G03*
X423356Y53348I-3595J5540D01*
G01*
X1227512Y241108D02*
G03*
X1227512Y223981I0J-8563D01*
G01*
D02*
G03*
X1227512Y241108I0J8563D01*
G01*
Y245044D02*
G03*
X1227512Y220044I0J-12500D01*
G01*
D02*
G03*
X1227512Y245044I0J12500D01*
G01*
X1238364Y225832D02*
G03*
X1238818Y227398I-12083J4355D01*
G01*
X1238032Y225087D02*
G03*
X1238364Y225832I-6972J3552D01*
G01*
X1237626Y224374D02*
G03*
X1238032Y225087I-7576J4778D01*
G01*
X1237160Y223696D02*
G03*
X1237626Y224374I-8218J6154D01*
G01*
X1236645Y223057D02*
G03*
X1237160Y223696I-8842J7645D01*
G01*
X1236093Y222454D02*
G03*
X1236645Y223057I-10230J9935D01*
G01*
X1235513Y221881D02*
G03*
X1236093Y222454I-13648J14392D01*
G01*
X1234914Y221327D02*
G03*
X1235513Y221881I-22140J24533D01*
G01*
X1220721Y220781D02*
G03*
X1234306Y220783I6791J11763D01*
G01*
X1213929Y232541D02*
G03*
X1220721Y220781I13583J3D01*
G01*
X1234303Y220782D02*
G03*
X1213929Y232541I-6791J11763D01*
G01*
X1241095Y232545D02*
G03*
X1237239Y242025I-13582J0D01*
G01*
X1236256Y242915D02*
G03*
X1219341Y221841I-8764J-10291D01*
G01*
X1239319Y239230D02*
G03*
X1236256Y242915I-9292J-4609D01*
G01*
X1222897Y219791D02*
G03*
X1223999Y219424I15515J44710D01*
G01*
X1222355Y219991D02*
G03*
X1222897Y219791I6695J17357D01*
G01*
X1221824Y220209D02*
G03*
X1222355Y219991I5231J11968D01*
G01*
X1221308Y220453D02*
G03*
X1221824Y220209I4519J8914D01*
G01*
X1220809Y220728D02*
G03*
X1221308Y220453I4160J6948D01*
G01*
X1220332Y221039D02*
G03*
X1220809Y220728I4561J6472D01*
G01*
X1219872Y221381D02*
G03*
X1220332Y221039I6935J8845D01*
G01*
X1219424Y221743D02*
G03*
X1219872Y221381I12199J14627D01*
G01*
X1217010Y224032D02*
G03*
X1217909Y222939I57586J46414D01*
G01*
X1216574Y224590D02*
G03*
X1217010Y224032I23669J18076D01*
G01*
X1216151Y225163D02*
G03*
X1216574Y224590I17503J12471D01*
G01*
X1215749Y225754D02*
G03*
X1216151Y225163I14254J9277D01*
G01*
X1215372Y226368D02*
G03*
X1215749Y225754I11570J6680D01*
G01*
X1215034Y227004D02*
G03*
X1215372Y226368I9248J4510D01*
G01*
X1214748Y227660D02*
G03*
X1215034Y227004I7616J2919D01*
G01*
X1214530Y228337D02*
G03*
X1214748Y227660I6416J1699D01*
G01*
X1214392Y229032D02*
G03*
X1214530Y228337I5540J736D01*
G01*
X1240878Y230268D02*
G03*
X1241095Y232544I-30629J4069D01*
G01*
X1240665Y229155D02*
G03*
X1240878Y230268I-11707J2811D01*
G01*
X1240339Y228069D02*
G03*
X1240665Y229155I-10403J3717D01*
G01*
X1239911Y227012D02*
G03*
X1240339Y228069I-12525J5686D01*
G01*
X1239402Y225980D02*
G03*
X1239911Y227012I-15880J8470D01*
G01*
X1238827Y224978D02*
G03*
X1239402Y225980I-13672J8516D01*
G01*
X1238168Y224040D02*
G03*
X1238827Y224978I-8076J6375D01*
G01*
X1237398Y223205D02*
G03*
X1238168Y224040I-4997J5386D01*
G01*
X1236508Y222496D02*
G03*
X1237398Y223205I-5918J8331D01*
G01*
X1240749Y230092D02*
G03*
X1241095Y232544I-51885J8563D01*
G01*
X1240505Y228879D02*
G03*
X1240749Y230092I-20463J4757D01*
G01*
X1240174Y227681D02*
G03*
X1240505Y228879I-14466J4639D01*
G01*
X1239730Y226506D02*
G03*
X1240174Y227681I-11513J5021D01*
G01*
X1239161Y225377D02*
G03*
X1239730Y226506I-9794J5643D01*
G01*
X1238465Y224331D02*
G03*
X1239161Y225377I-7781J5926D01*
G01*
X1237640Y223401D02*
G03*
X1238465Y224331I-5779J5957D01*
G01*
X1236685Y222620D02*
G03*
X1237640Y223401I-4219J6137D01*
G01*
X1235639Y221953D02*
G03*
X1236685Y222620I-10474J17581D01*
G01*
X1240844Y234800D02*
G03*
X1240691Y235166I-7636J-2990D01*
G01*
X1240909Y234616D02*
G03*
X1240844Y234800I-2994J-942D01*
G01*
X1240958Y234429D02*
G03*
X1240909Y234616I-2108J-461D01*
G01*
X1240998Y234049D02*
G03*
X1240958Y234429I-1767J9D01*
G01*
X1240990Y233855D02*
G03*
X1240998Y234049I-2578J195D01*
G01*
X1240970Y233659D02*
G03*
X1240990Y233855I-3731J478D01*
G01*
X1240942Y233463D02*
G03*
X1240970Y233659I-6393J1019D01*
G01*
X1240884Y229631D02*
G03*
X1240941Y231338I-5514J1039D01*
G01*
X1240755Y229077D02*
G03*
X1240884Y229631I-6440J1791D01*
G01*
X1240582Y228528D02*
G03*
X1240755Y229077I-7684J2734D01*
G01*
X1240371Y227985D02*
G03*
X1240582Y228528I-9563J4021D01*
G01*
X1240130Y227445D02*
G03*
X1240371Y227985I-12556J5920D01*
G01*
X1239867Y226908D02*
G03*
X1240130Y227445I-17928J9111D01*
G01*
X1239590Y226373D02*
G03*
X1239867Y226908I-30350J16099D01*
G01*
X1236132Y222127D02*
G03*
X1236372Y222442I-6412J5118D01*
G01*
X1236005Y221980D02*
G03*
X1236132Y222127I-2315J2121D01*
G01*
X1235869Y221844D02*
G03*
X1236005Y221980I-1456J1594D01*
G01*
X1235560Y221620D02*
G03*
X1235869Y221844I-873J1527D01*
G01*
X1235389Y221529D02*
G03*
X1235560Y221620I-1115J2315D01*
G01*
X1235211Y221449D02*
G03*
X1235389Y221529I-1444J3449D01*
G01*
X1235027Y221375D02*
G03*
X1235211Y221449I-2302J6009D01*
G01*
X1216990Y224028D02*
G03*
X1217185Y223883I3384J4333D01*
G01*
X1216898Y224105D02*
G03*
X1216990Y224028I1398J1577D01*
G01*
X1216813Y224187D02*
G03*
X1216898Y224105I1046J1002D01*
G01*
X1216737Y224276D02*
G03*
X1216813Y224187I867J668D01*
G01*
X1216671Y224372D02*
G03*
X1216737Y224276I934J567D01*
G01*
X1216613Y224476D02*
G03*
X1216671Y224372I1293J647D01*
G01*
X1216563Y224584D02*
G03*
X1216613Y224476I1932J833D01*
G01*
X1216517Y224696D02*
G03*
X1216563Y224584I3375J1324D01*
G01*
X1223575Y208726D02*
G03*
X1224362Y207938I787J0D01*
G01*
Y211088D02*
G03*
X1223575Y210300I0J-787D01*
G01*
X1231449D02*
G03*
X1230662Y211088I-787J0D01*
G01*
Y207938D02*
G03*
X1231449Y208726I0J787D01*
G01*
X1217984Y219631D02*
G03*
X1215836Y223138I-3932J2D01*
G01*
Y223138D02*
G03*
X1214048Y223568I-1769J-3425D01*
G01*
X1210780Y251639D02*
G03*
X1208811Y249671I0J-1969D01*
G01*
X1237040Y245458D02*
G03*
X1240977Y241521I3937J0D01*
G01*
X1244244Y207938D02*
G03*
X1246213Y209907I0J1969D01*
G01*
X1244835Y246915D02*
G03*
X1240110Y246915I-2362J0D01*
G01*
D02*
G03*
X1244835Y246915I2362J0D01*
G01*
X1214914Y218174D02*
G03*
X1210189Y218174I-2362J0D01*
G01*
Y218174D02*
G03*
X1214914Y218174I2362J0D01*
G01*
X1242473Y250064D02*
G03*
X1239323Y246915I0J-3150D01*
G01*
X1245622D02*
G03*
X1242473Y250064I-3150J0D01*
G01*
X1239323Y246915D02*
G03*
X1242473Y243765I3150J0D01*
G01*
D02*
G03*
X1245622Y246915I0J3150D01*
G01*
X1212551Y221324D02*
G03*
X1209402Y218174I0J-3150D01*
G01*
X1215701D02*
G03*
X1212551Y221324I-3150J0D01*
G01*
X1209402Y218174D02*
G03*
X1212551Y215025I3150J0D01*
G01*
D02*
G03*
X1215701Y218174I0J3150D01*
G01*
X1246213Y249671D02*
G03*
X1246117Y250278I-1921J7D01*
G01*
X1246117D02*
G03*
X1244244Y251639I-1871J-606D01*
G01*
X1208811Y209907D02*
G03*
X1210780Y207938I1969J0D01*
G01*
X1227512Y72617D02*
G03*
X1227512Y55491I0J-8563D01*
G01*
D02*
G03*
X1227512Y72617I0J8563D01*
G01*
Y51554D02*
G03*
X1227512Y76554I0J12500D01*
G01*
D02*
G03*
X1227512Y51554I0J-12500D01*
G01*
X1238364Y57342D02*
G03*
X1238818Y58907I-12083J4355D01*
G01*
X1238032Y56596D02*
G03*
X1238364Y57342I-6972J3552D01*
G01*
X1237626Y55883D02*
G03*
X1238032Y56596I-7576J4778D01*
G01*
X1237160Y55206D02*
G03*
X1237626Y55883I-8218J6154D01*
G01*
X1236645Y54566D02*
G03*
X1237160Y55206I-8842J7645D01*
G01*
X1236093Y53964D02*
G03*
X1236645Y54566I-10230J9935D01*
G01*
X1235513Y53390D02*
G03*
X1236093Y53964I-13648J14392D01*
G01*
X1234914Y52837D02*
G03*
X1235513Y53390I-22140J24533D01*
G01*
X1220721Y52291D02*
G03*
X1234306Y52293I6791J11763D01*
G01*
X1213929Y64051D02*
G03*
X1220721Y52291I13583J3D01*
G01*
X1234303Y52291D02*
G03*
X1213929Y64051I-6791J11763D01*
G01*
X1241095Y64054D02*
G03*
X1237239Y73535I-13582J0D01*
G01*
X1236256Y74424D02*
G03*
X1219341Y53350I-8764J-10291D01*
G01*
X1239319Y70740D02*
G03*
X1236256Y74424I-9292J-4609D01*
G01*
X1222897Y51301D02*
G03*
X1223999Y50933I15515J44710D01*
G01*
X1222355Y51500D02*
G03*
X1222897Y51301I6695J17357D01*
G01*
X1221824Y51718D02*
G03*
X1222355Y51500I5231J11968D01*
G01*
X1221308Y51962D02*
G03*
X1221824Y51718I4519J8914D01*
G01*
X1220809Y52237D02*
G03*
X1221308Y51962I4160J6948D01*
G01*
X1220332Y52548D02*
G03*
X1220809Y52237I4561J6472D01*
G01*
X1219872Y52890D02*
G03*
X1220332Y52548I6935J8845D01*
G01*
X1219424Y53252D02*
G03*
X1219872Y52890I12199J14627D01*
G01*
X1217010Y55542D02*
G03*
X1217909Y54449I57586J46414D01*
G01*
X1216574Y56100D02*
G03*
X1217010Y55542I23669J18076D01*
G01*
X1216151Y56672D02*
G03*
X1216574Y56100I17503J12471D01*
G01*
X1215749Y57263D02*
G03*
X1216151Y56672I14254J9277D01*
G01*
X1215372Y57877D02*
G03*
X1215749Y57263I11570J6680D01*
G01*
X1215034Y58513D02*
G03*
X1215372Y57877I9248J4510D01*
G01*
X1214748Y59170D02*
G03*
X1215034Y58513I7616J2919D01*
G01*
X1214530Y59846D02*
G03*
X1214748Y59170I6416J1699D01*
G01*
X1214392Y60541D02*
G03*
X1214530Y59846I5540J736D01*
G01*
X1214388Y67550D02*
G03*
X1214350Y67250I4076J-676D01*
G01*
X1214463Y67840D02*
G03*
X1214388Y67550I2028J-672D01*
G01*
X1214513Y67982D02*
G03*
X1214463Y67840I2556J-998D01*
G01*
X1214571Y68121D02*
G03*
X1214513Y67982I3117J-1379D01*
G01*
X1214635Y68259D02*
G03*
X1214571Y68121I4016J-1943D01*
G01*
X1214703Y68396D02*
G03*
X1214635Y68259I5647J-2902D01*
G01*
X1221540Y76298D02*
G03*
X1219908Y75193I3670J-7178D01*
G01*
X1222449Y76694D02*
G03*
X1221540Y76298I3250J-8717D01*
G01*
X1223400Y77009D02*
G03*
X1222449Y76694I3788J-13017D01*
G01*
X1224371Y77268D02*
G03*
X1223400Y77009I5235J-21534D01*
G01*
X1225350Y77477D02*
G03*
X1224371Y77268I2890J-15978D01*
G01*
X1226334Y77610D02*
G03*
X1225350Y77477I1033J-11273D01*
G01*
X1227318Y77644D02*
G03*
X1226334Y77610I-201J-8589D01*
G01*
X1228301Y77560D02*
G03*
X1227318Y77644I-1256J-8905D01*
G01*
X1229282Y77404D02*
G03*
X1228301Y77560I-4810J-27010D01*
G01*
X1240878Y61777D02*
G03*
X1241095Y64054I-30629J4069D01*
G01*
X1240665Y60664D02*
G03*
X1240878Y61777I-11707J2811D01*
G01*
X1240339Y59579D02*
G03*
X1240665Y60664I-10403J3717D01*
G01*
X1239911Y58521D02*
G03*
X1240339Y59579I-12525J5686D01*
G01*
X1239402Y57489D02*
G03*
X1239911Y58521I-15880J8470D01*
G01*
X1238827Y56487D02*
G03*
X1239402Y57489I-13672J8516D01*
G01*
X1238168Y55549D02*
G03*
X1238827Y56487I-8076J6375D01*
G01*
X1237398Y54715D02*
G03*
X1238168Y55549I-4997J5386D01*
G01*
X1236508Y54005D02*
G03*
X1237398Y54715I-5918J8331D01*
G01*
X1240749Y61602D02*
G03*
X1241095Y64054I-51885J8563D01*
G01*
X1240505Y60388D02*
G03*
X1240749Y61602I-20463J4757D01*
G01*
X1240174Y59191D02*
G03*
X1240505Y60388I-14466J4639D01*
G01*
X1239730Y58015D02*
G03*
X1240174Y59191I-11513J5021D01*
G01*
X1239161Y56887D02*
G03*
X1239730Y58015I-9794J5643D01*
G01*
X1238465Y55840D02*
G03*
X1239161Y56887I-7781J5926D01*
G01*
X1237640Y54910D02*
G03*
X1238465Y55840I-5779J5957D01*
G01*
X1236685Y54129D02*
G03*
X1237640Y54910I-4219J6137D01*
G01*
X1235639Y53463D02*
G03*
X1236685Y54129I-10474J17581D01*
G01*
X1240844Y66309D02*
G03*
X1240691Y66675I-7636J-2990D01*
G01*
X1240909Y66125D02*
G03*
X1240844Y66309I-2994J-942D01*
G01*
X1240958Y65939D02*
G03*
X1240909Y66125I-2108J-461D01*
G01*
X1240998Y65558D02*
G03*
X1240958Y65939I-1767J9D01*
G01*
X1240990Y65364D02*
G03*
X1240998Y65558I-2578J195D01*
G01*
X1240970Y65168D02*
G03*
X1240990Y65364I-3731J478D01*
G01*
X1240942Y64972D02*
G03*
X1240970Y65168I-6393J1019D01*
G01*
X1240884Y61141D02*
G03*
X1240941Y62848I-5514J1039D01*
G01*
X1240755Y60586D02*
G03*
X1240884Y61141I-6440J1791D01*
G01*
X1240582Y60038D02*
G03*
X1240755Y60586I-7684J2734D01*
G01*
X1240371Y59494D02*
G03*
X1240582Y60038I-9563J4021D01*
G01*
X1240130Y58954D02*
G03*
X1240371Y59494I-12556J5920D01*
G01*
X1239867Y58417D02*
G03*
X1240130Y58954I-17928J9111D01*
G01*
X1239590Y57882D02*
G03*
X1239867Y58417I-30350J16099D01*
G01*
X1236132Y53637D02*
G03*
X1236372Y53952I-6412J5118D01*
G01*
X1236005Y53489D02*
G03*
X1236132Y53637I-2315J2121D01*
G01*
X1235869Y53353D02*
G03*
X1236005Y53489I-1456J1594D01*
G01*
X1235560Y53129D02*
G03*
X1235869Y53353I-873J1527D01*
G01*
X1235389Y53039D02*
G03*
X1235560Y53129I-1115J2315D01*
G01*
X1235211Y52958D02*
G03*
X1235389Y53039I-1444J3449D01*
G01*
X1235027Y52885D02*
G03*
X1235211Y52958I-2302J6009D01*
G01*
X1216990Y55537D02*
G03*
X1217185Y55392I3384J4333D01*
G01*
X1216898Y55614D02*
G03*
X1216990Y55537I1398J1577D01*
G01*
X1216813Y55696D02*
G03*
X1216898Y55614I1046J1002D01*
G01*
X1216737Y55785D02*
G03*
X1216813Y55696I867J668D01*
G01*
X1216671Y55882D02*
G03*
X1216737Y55785I934J567D01*
G01*
X1216613Y55985D02*
G03*
X1216671Y55882I1293J647D01*
G01*
X1216563Y56094D02*
G03*
X1216613Y55985I1932J833D01*
G01*
X1216517Y56205D02*
G03*
X1216563Y56094I3375J1324D01*
G01*
X1224362Y42597D02*
G03*
X1223575Y41810I0J-787D01*
G01*
X1231449D02*
G03*
X1230662Y42597I-787J0D01*
G01*
Y39448D02*
G03*
X1231449Y40235I0J787D01*
G01*
X1223575Y40235D02*
G03*
X1224362Y39448I787J0D01*
G01*
X1217984Y51140D02*
G03*
X1215836Y54648I-3932J2D01*
G01*
D02*
G03*
X1214048Y55077I-1769J-3425D01*
G01*
X1210780Y83148D02*
G03*
X1208811Y81180I0J-1969D01*
G01*
X1237040Y76967D02*
G03*
X1240977Y73030I3937J0D01*
G01*
X1244244Y39448D02*
G03*
X1246213Y41416I0J1969D01*
G01*
X1244835Y78424D02*
G03*
X1240110Y78424I-2362J0D01*
G01*
D02*
G03*
X1244835Y78424I2362J0D01*
G01*
X1214914Y49684D02*
G03*
X1210189Y49684I-2362J0D01*
G01*
D02*
G03*
X1214914Y49684I2362J0D01*
G01*
X1242473Y81574D02*
G03*
X1239323Y78424I0J-3150D01*
G01*
X1245622D02*
G03*
X1242473Y81574I-3150J0D01*
G01*
X1239323Y78424D02*
G03*
X1242473Y75274I3150J0D01*
G01*
D02*
G03*
X1245622Y78424I0J3150D01*
G01*
X1212551Y52833D02*
G03*
X1209402Y49684I0J-3150D01*
G01*
X1215701D02*
G03*
X1212551Y52833I-3150J0D01*
G01*
X1209402Y49684D02*
G03*
X1212551Y46534I3150J0D01*
G01*
D02*
G03*
X1215701Y49684I0J3150D01*
G01*
X1246213Y81180D02*
G03*
X1246117Y81788I-1921J7D01*
G01*
X1246117D02*
G03*
X1244244Y83148I-1871J-606D01*
G01*
X1208811Y41416D02*
G03*
X1210780Y39448I1969J0D01*
G01*
X1065012Y55491D02*
G03*
X1065012Y72617I0J8563D01*
G01*
Y51554D02*
G03*
X1065012Y76554I0J12500D01*
G01*
Y72617D02*
G03*
X1065012Y55491I0J-8563D01*
G01*
Y76554D02*
G03*
X1065012Y51554I0J-12500D01*
G01*
X1075864Y57342D02*
G03*
X1076318Y58907I-12083J4355D01*
G01*
X1075532Y56596D02*
G03*
X1075864Y57342I-6972J3552D01*
G01*
X1075126Y55883D02*
G03*
X1075532Y56596I-7576J4778D01*
G01*
X1074660Y55206D02*
G03*
X1075126Y55883I-8218J6154D01*
G01*
X1074145Y54566D02*
G03*
X1074660Y55206I-8842J7645D01*
G01*
X1073593Y53964D02*
G03*
X1074145Y54566I-10230J9935D01*
G01*
X1073013Y53390D02*
G03*
X1073593Y53964I-13648J14392D01*
G01*
X1072414Y52837D02*
G03*
X1073013Y53390I-22140J24533D01*
G01*
X1058221Y52291D02*
G03*
X1071806Y52293I6791J11763D01*
G01*
X1051429Y64051D02*
G03*
X1058221Y52291I13583J3D01*
G01*
X1071803Y52291D02*
G03*
X1051429Y64051I-6791J11763D01*
G01*
X1078595Y64054D02*
G03*
X1074739Y73535I-13582J0D01*
G01*
X1073756Y74424D02*
G03*
X1056841Y53350I-8764J-10291D01*
G01*
X1076819Y70740D02*
G03*
X1073756Y74424I-9292J-4609D01*
G01*
X1060397Y51301D02*
G03*
X1061499Y50933I15515J44710D01*
G01*
X1059855Y51500D02*
G03*
X1060397Y51301I6695J17357D01*
G01*
X1059324Y51718D02*
G03*
X1059855Y51500I5231J11968D01*
G01*
X1058808Y51962D02*
G03*
X1059324Y51718I4519J8914D01*
G01*
X1058309Y52237D02*
G03*
X1058808Y51962I4160J6948D01*
G01*
X1057832Y52548D02*
G03*
X1058309Y52237I4561J6472D01*
G01*
X1057372Y52890D02*
G03*
X1057832Y52548I6935J8845D01*
G01*
X1056924Y53253D02*
G03*
X1057372Y52890I12199J14627D01*
G01*
X1054510Y55542D02*
G03*
X1055409Y54449I57586J46414D01*
G01*
X1054074Y56100D02*
G03*
X1054510Y55542I23669J18076D01*
G01*
X1053651Y56672D02*
G03*
X1054074Y56100I17503J12471D01*
G01*
X1053249Y57263D02*
G03*
X1053651Y56672I14254J9277D01*
G01*
X1052872Y57877D02*
G03*
X1053249Y57263I11570J6680D01*
G01*
X1052534Y58513D02*
G03*
X1052872Y57877I9248J4510D01*
G01*
X1052248Y59170D02*
G03*
X1052534Y58513I7616J2919D01*
G01*
X1052030Y59846D02*
G03*
X1052248Y59170I6416J1699D01*
G01*
X1051892Y60541D02*
G03*
X1052030Y59846I5540J736D01*
G01*
X1059040Y76298D02*
G03*
X1057408Y75193I3670J-7178D01*
G01*
X1059949Y76694D02*
G03*
X1059040Y76298I3250J-8717D01*
G01*
X1060900Y77009D02*
G03*
X1059949Y76694I3788J-13017D01*
G01*
X1061871Y77268D02*
G03*
X1060900Y77009I5235J-21534D01*
G01*
X1062850Y77477D02*
G03*
X1061871Y77268I2890J-15978D01*
G01*
X1063834Y77610D02*
G03*
X1062850Y77477I1033J-11273D01*
G01*
X1064818Y77644D02*
G03*
X1063834Y77610I-201J-8589D01*
G01*
X1065801Y77560D02*
G03*
X1064818Y77644I-1256J-8905D01*
G01*
X1066782Y77404D02*
G03*
X1065801Y77560I-4810J-27010D01*
G01*
X1078378Y61777D02*
G03*
X1078595Y64054I-30629J4069D01*
G01*
X1078165Y60664D02*
G03*
X1078378Y61777I-11707J2811D01*
G01*
X1077839Y59579D02*
G03*
X1078165Y60664I-10403J3717D01*
G01*
X1077411Y58521D02*
G03*
X1077839Y59579I-12525J5686D01*
G01*
X1076902Y57489D02*
G03*
X1077411Y58521I-15880J8470D01*
G01*
X1076327Y56487D02*
G03*
X1076902Y57489I-13672J8516D01*
G01*
X1075668Y55549D02*
G03*
X1076327Y56487I-8076J6375D01*
G01*
X1074898Y54715D02*
G03*
X1075668Y55549I-4997J5386D01*
G01*
X1074008Y54005D02*
G03*
X1074898Y54715I-5918J8331D01*
G01*
X1078249Y61602D02*
G03*
X1078595Y64054I-51885J8563D01*
G01*
X1078005Y60388D02*
G03*
X1078249Y61602I-20463J4757D01*
G01*
X1077674Y59191D02*
G03*
X1078005Y60388I-14466J4639D01*
G01*
X1077230Y58015D02*
G03*
X1077674Y59191I-11513J5021D01*
G01*
X1076661Y56887D02*
G03*
X1077230Y58015I-9794J5643D01*
G01*
X1075965Y55840D02*
G03*
X1076661Y56887I-7781J5926D01*
G01*
X1075140Y54910D02*
G03*
X1075965Y55840I-5779J5957D01*
G01*
X1074185Y54129D02*
G03*
X1075140Y54910I-4219J6137D01*
G01*
X1073139Y53463D02*
G03*
X1074185Y54129I-10474J17581D01*
G01*
X1078344Y66309D02*
G03*
X1078191Y66675I-7636J-2990D01*
G01*
X1078409Y66125D02*
G03*
X1078344Y66309I-2994J-942D01*
G01*
X1078458Y65939D02*
G03*
X1078409Y66125I-2108J-461D01*
G01*
X1078498Y65558D02*
G03*
X1078458Y65939I-1767J9D01*
G01*
X1078490Y65364D02*
G03*
X1078498Y65558I-2578J195D01*
G01*
X1078470Y65168D02*
G03*
X1078490Y65364I-3731J478D01*
G01*
X1078442Y64972D02*
G03*
X1078470Y65168I-6393J1019D01*
G01*
X1078384Y61141D02*
G03*
X1078441Y62848I-5514J1039D01*
G01*
X1078255Y60586D02*
G03*
X1078384Y61141I-6440J1791D01*
G01*
X1078082Y60038D02*
G03*
X1078255Y60586I-7684J2734D01*
G01*
X1077871Y59494D02*
G03*
X1078082Y60038I-9563J4021D01*
G01*
X1077630Y58954D02*
G03*
X1077871Y59494I-12556J5920D01*
G01*
X1077367Y58417D02*
G03*
X1077630Y58954I-17928J9111D01*
G01*
X1077090Y57882D02*
G03*
X1077367Y58417I-30350J16099D01*
G01*
X1073632Y53637D02*
G03*
X1073872Y53952I-6412J5118D01*
G01*
X1073505Y53489D02*
G03*
X1073632Y53637I-2315J2121D01*
G01*
X1073369Y53353D02*
G03*
X1073505Y53489I-1456J1594D01*
G01*
X1073060Y53129D02*
G03*
X1073369Y53353I-873J1527D01*
G01*
X1072889Y53039D02*
G03*
X1073060Y53129I-1115J2315D01*
G01*
X1072711Y52958D02*
G03*
X1072889Y53039I-1444J3449D01*
G01*
X1072527Y52885D02*
G03*
X1072711Y52958I-2302J6009D01*
G01*
X1054490Y55537D02*
G03*
X1054685Y55392I3384J4333D01*
G01*
X1054398Y55614D02*
G03*
X1054490Y55537I1398J1577D01*
G01*
X1054313Y55696D02*
G03*
X1054398Y55614I1046J1002D01*
G01*
X1054237Y55785D02*
G03*
X1054313Y55696I867J668D01*
G01*
X1054171Y55882D02*
G03*
X1054237Y55785I934J567D01*
G01*
X1054113Y55985D02*
G03*
X1054171Y55882I1293J647D01*
G01*
X1054063Y56094D02*
G03*
X1054113Y55985I1932J833D01*
G01*
X1054017Y56205D02*
G03*
X1054063Y56094I3375J1324D01*
G01*
X1061862Y42597D02*
G03*
X1061075Y41810I0J-787D01*
G01*
X1068949D02*
G03*
X1068162Y42597I-787J0D01*
G01*
Y39448D02*
G03*
X1068949Y40235I0J787D01*
G01*
X1061075Y40235D02*
G03*
X1061862Y39448I787J0D01*
G01*
X1055485Y51140D02*
G03*
X1053336Y54648I-3932J2D01*
G01*
X1053336D02*
G03*
X1051548Y55077I-1769J-3425D01*
G01*
X1048280Y83148D02*
G03*
X1046311Y81180I0J-1969D01*
G01*
X1074540Y76967D02*
G03*
X1078477Y73030I3937J0D01*
G01*
X1081744Y39448D02*
G03*
X1083713Y41416I0J1969D01*
G01*
X1082335Y78424D02*
G03*
X1077610Y78424I-2362J0D01*
G01*
D02*
G03*
X1082335Y78424I2362J0D01*
G01*
X1052414Y49684D02*
G03*
X1047689Y49684I-2362J0D01*
G01*
D02*
G03*
X1052414Y49684I2362J0D01*
G01*
X1079973Y81574D02*
G03*
X1076823Y78424I0J-3150D01*
G01*
X1083122D02*
G03*
X1079973Y81574I-3150J0D01*
G01*
X1076823Y78424D02*
G03*
X1079973Y75274I3150J0D01*
G01*
D02*
G03*
X1083122Y78424I0J3150D01*
G01*
X1050051Y52833D02*
G03*
X1046902Y49684I0J-3150D01*
G01*
X1053201D02*
G03*
X1050051Y52833I-3150J0D01*
G01*
X1046902Y49684D02*
G03*
X1050051Y46534I3150J0D01*
G01*
D02*
G03*
X1053201Y49684I0J3150D01*
G01*
X1083713Y81180D02*
G03*
X1083617Y81788I-1921J7D01*
G01*
D02*
G03*
X1081744Y83148I-1871J-606D01*
G01*
X1046311Y41416D02*
G03*
X1048280Y39448I1969J0D01*
G01*
X902512Y55491D02*
G03*
X902512Y72617I0J8563D01*
G01*
Y51554D02*
G03*
X902512Y76554I0J12500D01*
G01*
Y72617D02*
G03*
X902512Y55491I0J-8563D01*
G01*
Y76554D02*
G03*
X902512Y51554I0J-12500D01*
G01*
X913364Y57342D02*
G03*
X913818Y58907I-12083J4355D01*
G01*
X913032Y56596D02*
G03*
X913364Y57342I-6972J3552D01*
G01*
X912626Y55883D02*
G03*
X913032Y56596I-7576J4778D01*
G01*
X912160Y55206D02*
G03*
X912626Y55883I-8218J6154D01*
G01*
X911645Y54566D02*
G03*
X912160Y55206I-8842J7645D01*
G01*
X911093Y53964D02*
G03*
X911645Y54566I-10230J9935D01*
G01*
X910513Y53390D02*
G03*
X911093Y53964I-13648J14392D01*
G01*
X909914Y52837D02*
G03*
X910513Y53390I-22140J24533D01*
G01*
X895721Y52291D02*
G03*
X909306Y52293I6791J11763D01*
G01*
X888929Y64051D02*
G03*
X895721Y52291I13583J3D01*
G01*
X909303Y52291D02*
G03*
X888929Y64051I-6791J11763D01*
G01*
X916095Y64054D02*
G03*
X912239Y73535I-13582J0D01*
G01*
X911256Y74424D02*
G03*
X894341Y53350I-8764J-10291D01*
G01*
X914319Y70740D02*
G03*
X911256Y74424I-9292J-4609D01*
G01*
X897897Y51301D02*
G03*
X898999Y50933I15515J44710D01*
G01*
X897355Y51500D02*
G03*
X897897Y51301I6695J17357D01*
G01*
X896824Y51718D02*
G03*
X897355Y51500I5231J11968D01*
G01*
X896308Y51962D02*
G03*
X896824Y51718I4519J8914D01*
G01*
X895809Y52237D02*
G03*
X896308Y51962I4160J6948D01*
G01*
X895332Y52548D02*
G03*
X895809Y52237I4561J6472D01*
G01*
X894872Y52890D02*
G03*
X895332Y52548I6935J8845D01*
G01*
X894424Y53252D02*
G03*
X894872Y52890I12199J14627D01*
G01*
X892010Y55542D02*
G03*
X892909Y54449I57586J46414D01*
G01*
X891574Y56100D02*
G03*
X892010Y55542I23669J18076D01*
G01*
X891151Y56672D02*
G03*
X891574Y56100I17503J12471D01*
G01*
X890749Y57263D02*
G03*
X891151Y56672I14254J9277D01*
G01*
X890372Y57877D02*
G03*
X890749Y57263I11570J6680D01*
G01*
X890034Y58513D02*
G03*
X890372Y57877I9248J4510D01*
G01*
X889748Y59170D02*
G03*
X890034Y58513I7616J2919D01*
G01*
X889530Y59846D02*
G03*
X889748Y59170I6416J1699D01*
G01*
X889392Y60541D02*
G03*
X889530Y59846I5540J736D01*
G01*
X889389Y67550D02*
G03*
X889350Y67250I4076J-676D01*
G01*
X889463Y67840D02*
G03*
X889389Y67550I2028J-672D01*
G01*
X889513Y67982D02*
G03*
X889463Y67840I2556J-998D01*
G01*
X889571Y68121D02*
G03*
X889513Y67982I3117J-1379D01*
G01*
X889635Y68259D02*
G03*
X889571Y68121I4016J-1943D01*
G01*
X889703Y68396D02*
G03*
X889635Y68259I5647J-2902D01*
G01*
X896540Y76298D02*
G03*
X894908Y75193I3670J-7178D01*
G01*
X897449Y76694D02*
G03*
X896540Y76298I3250J-8717D01*
G01*
X898400Y77009D02*
G03*
X897449Y76694I3788J-13017D01*
G01*
X899371Y77268D02*
G03*
X898400Y77009I5235J-21534D01*
G01*
X900350Y77477D02*
G03*
X899371Y77268I2890J-15978D01*
G01*
X901334Y77610D02*
G03*
X900350Y77477I1033J-11273D01*
G01*
X902318Y77644D02*
G03*
X901334Y77610I-201J-8589D01*
G01*
X903301Y77560D02*
G03*
X902318Y77644I-1256J-8905D01*
G01*
X904282Y77404D02*
G03*
X903301Y77560I-4810J-27010D01*
G01*
X915878Y61777D02*
G03*
X916095Y64054I-30629J4069D01*
G01*
X915665Y60664D02*
G03*
X915878Y61777I-11707J2811D01*
G01*
X915339Y59579D02*
G03*
X915665Y60664I-10403J3717D01*
G01*
X914911Y58521D02*
G03*
X915339Y59579I-12525J5686D01*
G01*
X914402Y57489D02*
G03*
X914911Y58521I-15880J8470D01*
G01*
X913827Y56487D02*
G03*
X914402Y57489I-13672J8516D01*
G01*
X913168Y55549D02*
G03*
X913827Y56487I-8076J6375D01*
G01*
X912398Y54715D02*
G03*
X913168Y55549I-4997J5386D01*
G01*
X911508Y54005D02*
G03*
X912398Y54715I-5918J8331D01*
G01*
X915749Y61602D02*
G03*
X916095Y64054I-51885J8563D01*
G01*
X915505Y60388D02*
G03*
X915749Y61602I-20463J4757D01*
G01*
X915174Y59191D02*
G03*
X915505Y60388I-14466J4639D01*
G01*
X914730Y58015D02*
G03*
X915174Y59191I-11513J5021D01*
G01*
X914161Y56887D02*
G03*
X914730Y58015I-9794J5643D01*
G01*
X913465Y55840D02*
G03*
X914161Y56887I-7781J5926D01*
G01*
X912640Y54910D02*
G03*
X913465Y55840I-5779J5957D01*
G01*
X911685Y54129D02*
G03*
X912640Y54910I-4219J6137D01*
G01*
X910640Y53463D02*
G03*
X911685Y54129I-10474J17581D01*
G01*
X915844Y66309D02*
G03*
X915691Y66675I-7636J-2990D01*
G01*
X915909Y66125D02*
G03*
X915844Y66309I-2994J-942D01*
G01*
X915958Y65939D02*
G03*
X915909Y66125I-2108J-461D01*
G01*
X915998Y65558D02*
G03*
X915958Y65939I-1767J9D01*
G01*
X915990Y65364D02*
G03*
X915998Y65558I-2578J195D01*
G01*
X915970Y65168D02*
G03*
X915990Y65364I-3731J478D01*
G01*
X915942Y64972D02*
G03*
X915970Y65168I-6393J1019D01*
G01*
X915884Y61141D02*
G03*
X915941Y62848I-5514J1039D01*
G01*
X915755Y60586D02*
G03*
X915884Y61141I-6440J1791D01*
G01*
X915582Y60038D02*
G03*
X915755Y60586I-7684J2734D01*
G01*
X915371Y59494D02*
G03*
X915582Y60038I-9563J4021D01*
G01*
X915130Y58954D02*
G03*
X915371Y59494I-12556J5920D01*
G01*
X914867Y58417D02*
G03*
X915130Y58954I-17928J9111D01*
G01*
X914590Y57882D02*
G03*
X914867Y58417I-30350J16099D01*
G01*
X911132Y53637D02*
G03*
X911372Y53952I-6412J5118D01*
G01*
X911005Y53489D02*
G03*
X911132Y53637I-2315J2121D01*
G01*
X910869Y53353D02*
G03*
X911005Y53489I-1456J1594D01*
G01*
X910560Y53129D02*
G03*
X910869Y53353I-873J1527D01*
G01*
X910389Y53039D02*
G03*
X910560Y53129I-1115J2315D01*
G01*
X910211Y52958D02*
G03*
X910389Y53039I-1444J3449D01*
G01*
X910027Y52885D02*
G03*
X910211Y52958I-2302J6009D01*
G01*
X891990Y55537D02*
G03*
X892185Y55392I3384J4333D01*
G01*
X891898Y55614D02*
G03*
X891990Y55537I1398J1577D01*
G01*
X891813Y55696D02*
G03*
X891898Y55614I1046J1002D01*
G01*
X891737Y55785D02*
G03*
X891813Y55696I867J668D01*
G01*
X891671Y55882D02*
G03*
X891737Y55785I934J567D01*
G01*
X891613Y55985D02*
G03*
X891671Y55882I1293J647D01*
G01*
X891563Y56094D02*
G03*
X891613Y55985I1932J833D01*
G01*
X891517Y56205D02*
G03*
X891563Y56094I3375J1324D01*
G01*
X899362Y42597D02*
G03*
X898575Y41810I0J-787D01*
G01*
X906449D02*
G03*
X905662Y42597I-787J0D01*
G01*
Y39448D02*
G03*
X906449Y40235I0J787D01*
G01*
X898575Y40235D02*
G03*
X899362Y39448I787J0D01*
G01*
X892985Y51140D02*
G03*
X890836Y54648I-3932J2D01*
G01*
D02*
G03*
X889048Y55077I-1769J-3425D01*
G01*
X885780Y83148D02*
G03*
X883811Y81180I0J-1969D01*
G01*
X912040Y76967D02*
G03*
X915977Y73030I3937J0D01*
G01*
X919244Y39448D02*
G03*
X921213Y41416I0J1969D01*
G01*
X919835Y78424D02*
G03*
X915111Y78424I-2362J0D01*
G01*
D02*
G03*
X919835Y78424I2362J0D01*
G01*
X889914Y49684D02*
G03*
X885189Y49684I-2362J0D01*
G01*
D02*
G03*
X889914Y49684I2362J0D01*
G01*
X917473Y81574D02*
G03*
X914323Y78424I0J-3150D01*
G01*
X920622D02*
G03*
X917473Y81574I-3150J0D01*
G01*
X914323Y78424D02*
G03*
X917473Y75274I3150J0D01*
G01*
D02*
G03*
X920622Y78424I0J3150D01*
G01*
X887551Y52833D02*
G03*
X884402Y49684I0J-3150D01*
G01*
X890701D02*
G03*
X887551Y52833I-3150J0D01*
G01*
X884402Y49684D02*
G03*
X887551Y46534I3150J0D01*
G01*
D02*
G03*
X890701Y49684I0J3150D01*
G01*
X921213Y81180D02*
G03*
X921117Y81788I-1921J7D01*
G01*
D02*
G03*
X919244Y83148I-1871J-606D01*
G01*
X883811Y41416D02*
G03*
X885780Y39448I1969J0D01*
G01*
X741140Y55491D02*
G03*
X741140Y72617I0J8563D01*
G01*
Y51554D02*
G03*
X741140Y76554I0J12500D01*
G01*
Y72617D02*
G03*
X741140Y55491I0J-8563D01*
G01*
Y76554D02*
G03*
X741140Y51554I0J-12500D01*
G01*
X751991Y57342D02*
G03*
X752445Y58907I-12083J4355D01*
G01*
X751659Y56596D02*
G03*
X751991Y57342I-6972J3552D01*
G01*
X751254Y55883D02*
G03*
X751659Y56596I-7576J4778D01*
G01*
X750788Y55206D02*
G03*
X751254Y55883I-8218J6154D01*
G01*
X750273Y54566D02*
G03*
X750788Y55206I-8842J7645D01*
G01*
X749720Y53964D02*
G03*
X750273Y54566I-10230J9935D01*
G01*
X749140Y53390D02*
G03*
X749720Y53964I-13648J14392D01*
G01*
X748541Y52837D02*
G03*
X749140Y53390I-22140J24533D01*
G01*
X734348Y52291D02*
G03*
X747934Y52293I6791J11763D01*
G01*
X727557Y64051D02*
G03*
X734348Y52291I13583J3D01*
G01*
X747931Y52291D02*
G03*
X727557Y64051I-6791J11763D01*
G01*
X754722Y64054D02*
G03*
X750866Y73535I-13582J0D01*
G01*
X749884Y74424D02*
G03*
X732968Y53350I-8764J-10291D01*
G01*
X752946Y70740D02*
G03*
X749884Y74424I-9292J-4609D01*
G01*
X736524Y51301D02*
G03*
X737627Y50933I15515J44710D01*
G01*
X735983Y51500D02*
G03*
X736524Y51301I6695J17357D01*
G01*
X735452Y51718D02*
G03*
X735983Y51500I5231J11968D01*
G01*
X734935Y51962D02*
G03*
X735452Y51718I4519J8914D01*
G01*
X734437Y52237D02*
G03*
X734935Y51962I4160J6948D01*
G01*
X733959Y52548D02*
G03*
X734437Y52237I4561J6472D01*
G01*
X733500Y52890D02*
G03*
X733959Y52548I6935J8845D01*
G01*
X733052Y53253D02*
G03*
X733500Y52890I12199J14627D01*
G01*
X730638Y55542D02*
G03*
X731536Y54449I57586J46414D01*
G01*
X730201Y56100D02*
G03*
X730638Y55542I23669J18076D01*
G01*
X729779Y56672D02*
G03*
X730201Y56100I17503J12471D01*
G01*
X729376Y57263D02*
G03*
X729779Y56672I14254J9277D01*
G01*
X728999Y57877D02*
G03*
X729376Y57263I11570J6680D01*
G01*
X728661Y58513D02*
G03*
X728999Y57877I9248J4510D01*
G01*
X728376Y59170D02*
G03*
X728661Y58513I7616J2919D01*
G01*
X728157Y59846D02*
G03*
X728376Y59170I6416J1699D01*
G01*
X728020Y60541D02*
G03*
X728157Y59846I5540J736D01*
G01*
X735168Y76298D02*
G03*
X733535Y75193I3670J-7178D01*
G01*
X736077Y76694D02*
G03*
X735168Y76298I3250J-8717D01*
G01*
X737027Y77009D02*
G03*
X736077Y76694I3788J-13017D01*
G01*
X737998Y77268D02*
G03*
X737027Y77009I5235J-21534D01*
G01*
X738978Y77477D02*
G03*
X737998Y77268I2890J-15978D01*
G01*
X739961Y77610D02*
G03*
X738978Y77477I1033J-11273D01*
G01*
X740945Y77644D02*
G03*
X739961Y77610I-201J-8589D01*
G01*
X741928Y77560D02*
G03*
X740945Y77644I-1256J-8905D01*
G01*
X742909Y77404D02*
G03*
X741928Y77560I-4810J-27010D01*
G01*
X754505Y61777D02*
G03*
X754722Y64054I-30629J4069D01*
G01*
X754293Y60664D02*
G03*
X754505Y61777I-11707J2811D01*
G01*
X753967Y59579D02*
G03*
X754293Y60664I-10403J3717D01*
G01*
X753539Y58521D02*
G03*
X753967Y59579I-12525J5686D01*
G01*
X753030Y57489D02*
G03*
X753539Y58521I-15880J8470D01*
G01*
X752455Y56487D02*
G03*
X753030Y57489I-13672J8516D01*
G01*
X751795Y55549D02*
G03*
X752455Y56487I-8076J6375D01*
G01*
X751025Y54715D02*
G03*
X751795Y55549I-4997J5386D01*
G01*
X750136Y54005D02*
G03*
X751025Y54715I-5918J8331D01*
G01*
X754376Y61594D02*
G03*
X754722Y64054I-51642J8532D01*
G01*
X754130Y60377D02*
G03*
X754376Y61594I-20359J4748D01*
G01*
X753797Y59176D02*
G03*
X754130Y60377I-14387J4636D01*
G01*
X753349Y57998D02*
G03*
X753797Y59176I-11466J5028D01*
G01*
X752776Y56868D02*
G03*
X753349Y57998I-9764J5658D01*
G01*
X752076Y55820D02*
G03*
X752776Y56868I-7761J5947D01*
G01*
X751246Y54890D02*
G03*
X752076Y55820I-5765J5981D01*
G01*
X750285Y54109D02*
G03*
X751246Y54890I-4249J6211D01*
G01*
X749236Y53442D02*
G03*
X750285Y54109I-10722J18015D01*
G01*
X754471Y66309D02*
G03*
X754318Y66675I-7636J-2990D01*
G01*
X754536Y66125D02*
G03*
X754471Y66309I-2994J-942D01*
G01*
X754586Y65939D02*
G03*
X754536Y66125I-2108J-461D01*
G01*
X754625Y65558D02*
G03*
X754586Y65939I-1767J9D01*
G01*
X754618Y65364D02*
G03*
X754625Y65558I-2578J195D01*
G01*
X754598Y65168D02*
G03*
X754618Y65364I-3731J478D01*
G01*
X754569Y64972D02*
G03*
X754598Y65168I-6393J1019D01*
G01*
X754512Y61141D02*
G03*
X754569Y62848I-5514J1039D01*
G01*
X754383Y60586D02*
G03*
X754512Y61141I-6440J1791D01*
G01*
X754209Y60038D02*
G03*
X754383Y60586I-7684J2734D01*
G01*
X753998Y59494D02*
G03*
X754209Y60038I-9563J4021D01*
G01*
X753757Y58954D02*
G03*
X753998Y59494I-12556J5920D01*
G01*
X753495Y58417D02*
G03*
X753757Y58954I-17928J9111D01*
G01*
X753217Y57882D02*
G03*
X753495Y58417I-30350J16099D01*
G01*
X749760Y53637D02*
G03*
X749999Y53952I-6412J5118D01*
G01*
X749633Y53489D02*
G03*
X749760Y53637I-2315J2121D01*
G01*
X749497Y53353D02*
G03*
X749633Y53489I-1456J1594D01*
G01*
X749188Y53129D02*
G03*
X749497Y53353I-873J1527D01*
G01*
X749017Y53039D02*
G03*
X749188Y53129I-1115J2315D01*
G01*
X748838Y52958D02*
G03*
X749017Y53039I-1444J3449D01*
G01*
X748654Y52885D02*
G03*
X748838Y52958I-2302J6009D01*
G01*
X730617Y55537D02*
G03*
X730812Y55392I3384J4333D01*
G01*
X730525Y55614D02*
G03*
X730617Y55537I1398J1577D01*
G01*
X730440Y55696D02*
G03*
X730525Y55614I1046J1002D01*
G01*
X730364Y55785D02*
G03*
X730440Y55696I867J668D01*
G01*
X730298Y55882D02*
G03*
X730364Y55785I934J567D01*
G01*
X730241Y55985D02*
G03*
X730298Y55882I1293J647D01*
G01*
X730190Y56094D02*
G03*
X730241Y55985I1932J833D01*
G01*
X730144Y56205D02*
G03*
X730190Y56094I3375J1324D01*
G01*
X737990Y42597D02*
G03*
X737203Y41810I0J-787D01*
G01*
X745077D02*
G03*
X744289Y42597I-787J0D01*
G01*
Y39448D02*
G03*
X745077Y40235I0J787D01*
G01*
X737203Y40235D02*
G03*
X737990Y39448I787J0D01*
G01*
X736919Y51261D02*
G03*
X737258Y51243I872J13127D01*
G01*
X736752Y51276D02*
G03*
X736919Y51261I521J5066D01*
G01*
X736588Y51297D02*
G03*
X736752Y51276I524J3472D01*
G01*
X736427Y51326D02*
G03*
X736588Y51297I552J2565D01*
G01*
X736270Y51366D02*
G03*
X736427Y51326I592J1982D01*
G01*
X736119Y51419D02*
G03*
X736270Y51366I639J1582D01*
G01*
X735974Y51487D02*
G03*
X736119Y51419I699J1301D01*
G01*
X735836Y51571D02*
G03*
X735974Y51487I928J1367D01*
G01*
X735702Y51666D02*
G03*
X735836Y51571I3000J4132D01*
G01*
X731612Y51140D02*
G03*
X729463Y54648I-3932J2D01*
G01*
D02*
G03*
X727675Y55077I-1769J-3425D01*
G01*
X724407Y83148D02*
G03*
X722439Y81180I0J-1969D01*
G01*
X750667Y76967D02*
G03*
X754604Y73030I3937J0D01*
G01*
X757872Y39448D02*
G03*
X759840Y41416I0J1969D01*
G01*
X758462Y78424D02*
G03*
X753738Y78424I-2362J0D01*
G01*
D02*
G03*
X758462Y78424I2362J0D01*
G01*
X728541Y49684D02*
G03*
X723817Y49684I-2362J0D01*
G01*
D02*
G03*
X728541Y49684I2362J0D01*
G01*
X756100Y81574D02*
G03*
X752951Y78424I0J-3150D01*
G01*
X759250D02*
G03*
X756100Y81574I-3150J0D01*
G01*
X752951Y78424D02*
G03*
X756100Y75274I3150J0D01*
G01*
D02*
G03*
X759250Y78424I0J3150D01*
G01*
X726179Y52833D02*
G03*
X723029Y49684I0J-3150D01*
G01*
X729328D02*
G03*
X726179Y52833I-3150J0D01*
G01*
X723029Y49684D02*
G03*
X726179Y46534I3150J0D01*
G01*
D02*
G03*
X729328Y49684I0J3150D01*
G01*
X759840Y81180D02*
G03*
X759744Y81788I-1921J7D01*
G01*
D02*
G03*
X757872Y83148I-1871J-606D01*
G01*
X722439Y41416D02*
G03*
X724407Y39448I1969J0D01*
G01*
X415012Y72617D02*
G03*
X415012Y55491I0J-8563D01*
G01*
D02*
G03*
X415012Y72617I0J8563D01*
G01*
Y76554D02*
G03*
X415012Y51554I0J-12500D01*
G01*
D02*
G03*
X415012Y76554I0J12500D01*
G01*
X425864Y57342D02*
G03*
X426318Y58907I-12083J4355D01*
G01*
X425531Y56596D02*
G03*
X425864Y57342I-6972J3552D01*
G01*
X425126Y55883D02*
G03*
X425531Y56596I-7576J4778D01*
G01*
X424660Y55206D02*
G03*
X425126Y55883I-8218J6154D01*
G01*
X424145Y54566D02*
G03*
X424660Y55206I-8842J7645D01*
G01*
X423593Y53964D02*
G03*
X424145Y54566I-10230J9935D01*
G01*
X423013Y53390D02*
G03*
X423593Y53964I-13648J14392D01*
G01*
X422414Y52837D02*
G03*
X423013Y53390I-22140J24533D01*
G01*
X408221Y52291D02*
G03*
X421806Y52293I6791J11763D01*
G01*
X401429Y64051D02*
G03*
X408221Y52291I13583J3D01*
G01*
X421803Y52291D02*
G03*
X401429Y64051I-6791J11763D01*
G01*
X428595Y64054D02*
G03*
X424739Y73535I-13582J0D01*
G01*
X423756Y74424D02*
G03*
X406841Y53350I-8764J-10291D01*
G01*
X426819Y70740D02*
G03*
X423756Y74424I-9292J-4609D01*
G01*
X410397Y51301D02*
G03*
X411499Y50933I15515J44710D01*
G01*
X409855Y51500D02*
G03*
X410397Y51301I6695J17357D01*
G01*
X409324Y51718D02*
G03*
X409855Y51500I5231J11968D01*
G01*
X408808Y51962D02*
G03*
X409324Y51718I4519J8914D01*
G01*
X408309Y52237D02*
G03*
X408808Y51962I4160J6948D01*
G01*
X407832Y52548D02*
G03*
X408309Y52237I4561J6472D01*
G01*
X407372Y52890D02*
G03*
X407832Y52548I6935J8845D01*
G01*
X406924Y53252D02*
G03*
X407372Y52890I12199J14627D01*
G01*
X404510Y55542D02*
G03*
X405409Y54449I57586J46414D01*
G01*
X404074Y56100D02*
G03*
X404510Y55542I23669J18076D01*
G01*
X403651Y56672D02*
G03*
X404074Y56100I17503J12471D01*
G01*
X403249Y57263D02*
G03*
X403651Y56672I14254J9277D01*
G01*
X402872Y57877D02*
G03*
X403249Y57263I11570J6680D01*
G01*
X402534Y58513D02*
G03*
X402872Y57877I9248J4510D01*
G01*
X402248Y59170D02*
G03*
X402534Y58513I7616J2919D01*
G01*
X402030Y59846D02*
G03*
X402248Y59170I6416J1699D01*
G01*
X401892Y60541D02*
G03*
X402030Y59846I5540J736D01*
G01*
X401889Y67550D02*
G03*
X401850Y67250I4076J-676D01*
G01*
X401963Y67840D02*
G03*
X401889Y67550I2028J-672D01*
G01*
X402013Y67982D02*
G03*
X401963Y67840I2556J-998D01*
G01*
X402071Y68121D02*
G03*
X402013Y67982I3117J-1379D01*
G01*
X402135Y68259D02*
G03*
X402071Y68121I4016J-1943D01*
G01*
X402204Y68396D02*
G03*
X402135Y68259I5647J-2902D01*
G01*
X428378Y61777D02*
G03*
X428595Y64054I-30629J4069D01*
G01*
X428165Y60664D02*
G03*
X428378Y61777I-11707J2811D01*
G01*
X427839Y59579D02*
G03*
X428165Y60664I-10403J3717D01*
G01*
X427411Y58521D02*
G03*
X427839Y59579I-12525J5686D01*
G01*
X426902Y57489D02*
G03*
X427411Y58521I-15880J8470D01*
G01*
X426327Y56487D02*
G03*
X426902Y57489I-13672J8516D01*
G01*
X425668Y55549D02*
G03*
X426327Y56487I-8076J6375D01*
G01*
X424898Y54715D02*
G03*
X425668Y55549I-4997J5386D01*
G01*
X424008Y54005D02*
G03*
X424898Y54715I-5918J8331D01*
G01*
X428248Y61594D02*
G03*
X428595Y64054I-51642J8532D01*
G01*
X428002Y60377D02*
G03*
X428248Y61594I-20359J4748D01*
G01*
X427669Y59176D02*
G03*
X428002Y60377I-14387J4636D01*
G01*
X427222Y57998D02*
G03*
X427669Y59176I-11466J5028D01*
G01*
X426649Y56868D02*
G03*
X427222Y57998I-9764J5658D01*
G01*
X425948Y55820D02*
G03*
X426649Y56868I-7761J5947D01*
G01*
X425118Y54890D02*
G03*
X425948Y55820I-5765J5981D01*
G01*
X424157Y54109D02*
G03*
X425118Y54890I-4249J6211D01*
G01*
X423108Y53442D02*
G03*
X424157Y54109I-10722J18015D01*
G01*
X428344Y66309D02*
G03*
X428191Y66675I-7636J-2990D01*
G01*
X428408Y66125D02*
G03*
X428344Y66309I-2994J-942D01*
G01*
X428458Y65939D02*
G03*
X428408Y66125I-2108J-461D01*
G01*
X428498Y65558D02*
G03*
X428458Y65939I-1767J9D01*
G01*
X428490Y65364D02*
G03*
X428498Y65558I-2578J195D01*
G01*
X428470Y65168D02*
G03*
X428490Y65364I-3731J478D01*
G01*
X428442Y64972D02*
G03*
X428470Y65168I-6393J1019D01*
G01*
X428385Y61145D02*
G03*
X428441Y62854I-5526J1037D01*
G01*
X428256Y60590D02*
G03*
X428385Y61145I-6440J1788D01*
G01*
X428082Y60041D02*
G03*
X428256Y60590I-7684J2731D01*
G01*
X427871Y59497D02*
G03*
X428082Y60041I-9562J4017D01*
G01*
X427631Y58956D02*
G03*
X427871Y59497I-12554J5915D01*
G01*
X427368Y58419D02*
G03*
X427631Y58956I-17925J9105D01*
G01*
X427090Y57883D02*
G03*
X427368Y58419I-30346J16090D01*
G01*
X423632Y53637D02*
G03*
X423872Y53952I-6412J5118D01*
G01*
X423505Y53489D02*
G03*
X423632Y53637I-2315J2121D01*
G01*
X423369Y53353D02*
G03*
X423505Y53489I-1456J1594D01*
G01*
X423060Y53129D02*
G03*
X423369Y53353I-873J1527D01*
G01*
X422889Y53039D02*
G03*
X423060Y53129I-1115J2315D01*
G01*
X422711Y52958D02*
G03*
X422889Y53039I-1444J3449D01*
G01*
X422527Y52885D02*
G03*
X422711Y52958I-2302J6009D01*
G01*
X404490Y55537D02*
G03*
X404684Y55392I3384J4333D01*
G01*
X404398Y55614D02*
G03*
X404490Y55537I1398J1577D01*
G01*
X404313Y55696D02*
G03*
X404398Y55614I1046J1002D01*
G01*
X404237Y55785D02*
G03*
X404313Y55696I867J668D01*
G01*
X404171Y55882D02*
G03*
X404237Y55785I934J567D01*
G01*
X404113Y55985D02*
G03*
X404171Y55882I1293J647D01*
G01*
X404063Y56094D02*
G03*
X404113Y55985I1932J833D01*
G01*
X404017Y56205D02*
G03*
X404063Y56094I3375J1324D01*
G01*
X411075Y40235D02*
G03*
X411863Y39448I787J0D01*
G01*
Y42597D02*
G03*
X411075Y41810I0J-787D01*
G01*
X418949D02*
G03*
X418162Y42597I-787J0D01*
G01*
Y39448D02*
G03*
X418949Y40235I0J787D01*
G01*
X410792Y51261D02*
G03*
X411131Y51243I872J13127D01*
G01*
X410625Y51276D02*
G03*
X410792Y51261I521J5066D01*
G01*
X410460Y51297D02*
G03*
X410625Y51276I524J3472D01*
G01*
X410299Y51326D02*
G03*
X410460Y51297I552J2565D01*
G01*
X410143Y51366D02*
G03*
X410299Y51326I592J1982D01*
G01*
X409992Y51419D02*
G03*
X410143Y51366I639J1582D01*
G01*
X409846Y51487D02*
G03*
X409992Y51419I699J1301D01*
G01*
X409708Y51571D02*
G03*
X409846Y51487I928J1367D01*
G01*
X409574Y51666D02*
G03*
X409708Y51571I3000J4132D01*
G01*
X405484Y51140D02*
G03*
X403336Y54648I-3932J2D01*
G01*
D02*
G03*
X401547Y55077I-1769J-3425D01*
G01*
X398280Y83148D02*
G03*
X396311Y81180I0J-1969D01*
G01*
X424540Y76967D02*
G03*
X428477Y73030I3937J0D01*
G01*
X431744Y39448D02*
G03*
X433713Y41416I0J1969D01*
G01*
X432335Y78424D02*
G03*
X427610Y78424I-2362J0D01*
G01*
D02*
G03*
X432335Y78424I2362J0D01*
G01*
X402414Y49684D02*
G03*
X397689Y49684I-2362J0D01*
G01*
D02*
G03*
X402414Y49684I2362J0D01*
G01*
X429973Y81574D02*
G03*
X426823Y78424I0J-3150D01*
G01*
X433122D02*
G03*
X429973Y81574I-3150J0D01*
G01*
X426823Y78424D02*
G03*
X429973Y75274I3150J0D01*
G01*
D02*
G03*
X433122Y78424I0J3150D01*
G01*
X400051Y52833D02*
G03*
X396902Y49684I0J-3150D01*
G01*
X403201D02*
G03*
X400051Y52833I-3150J0D01*
G01*
X396902Y49684D02*
G03*
X400051Y46534I3150J0D01*
G01*
D02*
G03*
X403201Y49684I0J3150D01*
G01*
X433713Y81180D02*
G03*
X433617Y81788I-1921J7D01*
G01*
X433617D02*
G03*
X431744Y83148I-1871J-606D01*
G01*
X396311Y41416D02*
G03*
X398280Y39448I1969J0D01*
G01*
X252512Y55491D02*
G03*
X252512Y72617I0J8563D01*
G01*
Y51554D02*
G03*
X252512Y76554I0J12500D01*
G01*
Y72617D02*
G03*
X252512Y55491I0J-8563D01*
G01*
Y76554D02*
G03*
X252512Y51554I0J-12500D01*
G01*
X263364Y57342D02*
G03*
X263818Y58907I-12083J4355D01*
G01*
X263032Y56596D02*
G03*
X263364Y57342I-6972J3552D01*
G01*
X262626Y55883D02*
G03*
X263032Y56596I-7576J4778D01*
G01*
X262160Y55206D02*
G03*
X262626Y55883I-8218J6154D01*
G01*
X261645Y54566D02*
G03*
X262160Y55206I-8842J7645D01*
G01*
X261093Y53964D02*
G03*
X261645Y54566I-10230J9935D01*
G01*
X260513Y53390D02*
G03*
X261093Y53964I-13648J14392D01*
G01*
X259914Y52837D02*
G03*
X260513Y53390I-22140J24533D01*
G01*
X245721Y52291D02*
G03*
X259306Y52293I6791J11763D01*
G01*
X238929Y64051D02*
G03*
X245721Y52291I13583J3D01*
G01*
X259303Y52291D02*
G03*
X238929Y64051I-6791J11763D01*
G01*
X266095Y64054D02*
G03*
X262239Y73535I-13582J0D01*
G01*
X261256Y74424D02*
G03*
X244341Y53350I-8764J-10291D01*
G01*
X264319Y70740D02*
G03*
X261256Y74424I-9292J-4609D01*
G01*
X247897Y51301D02*
G03*
X248999Y50933I15515J44710D01*
G01*
X247355Y51500D02*
G03*
X247897Y51301I6695J17357D01*
G01*
X246824Y51718D02*
G03*
X247355Y51500I5231J11968D01*
G01*
X246308Y51962D02*
G03*
X246824Y51718I4519J8914D01*
G01*
X245809Y52237D02*
G03*
X246308Y51962I4160J6948D01*
G01*
X245332Y52548D02*
G03*
X245809Y52237I4561J6472D01*
G01*
X244872Y52890D02*
G03*
X245332Y52548I6935J8845D01*
G01*
X244424Y53253D02*
G03*
X244872Y52890I12199J14627D01*
G01*
X242010Y55542D02*
G03*
X242909Y54449I57586J46414D01*
G01*
X241574Y56100D02*
G03*
X242010Y55542I23669J18076D01*
G01*
X241151Y56672D02*
G03*
X241574Y56100I17503J12471D01*
G01*
X240749Y57263D02*
G03*
X241151Y56672I14254J9277D01*
G01*
X240372Y57877D02*
G03*
X240749Y57263I11570J6680D01*
G01*
X240034Y58513D02*
G03*
X240372Y57877I9248J4510D01*
G01*
X239748Y59170D02*
G03*
X240034Y58513I7616J2919D01*
G01*
X239530Y59846D02*
G03*
X239748Y59170I6416J1699D01*
G01*
X239392Y60541D02*
G03*
X239530Y59846I5540J736D01*
G01*
X246540Y76298D02*
G03*
X244908Y75193I3670J-7178D01*
G01*
X247449Y76694D02*
G03*
X246540Y76298I3250J-8717D01*
G01*
X248400Y77009D02*
G03*
X247449Y76694I3788J-13017D01*
G01*
X249371Y77268D02*
G03*
X248400Y77009I5235J-21534D01*
G01*
X250350Y77477D02*
G03*
X249371Y77268I2890J-15978D01*
G01*
X251334Y77610D02*
G03*
X250350Y77477I1033J-11273D01*
G01*
X252318Y77644D02*
G03*
X251334Y77610I-201J-8589D01*
G01*
X253301Y77560D02*
G03*
X252318Y77644I-1256J-8905D01*
G01*
X254282Y77404D02*
G03*
X253301Y77560I-4810J-27010D01*
G01*
X265878Y61777D02*
G03*
X266095Y64054I-30629J4069D01*
G01*
X265665Y60664D02*
G03*
X265878Y61777I-11707J2811D01*
G01*
X265339Y59579D02*
G03*
X265665Y60664I-10403J3717D01*
G01*
X264911Y58521D02*
G03*
X265339Y59579I-12525J5686D01*
G01*
X264402Y57489D02*
G03*
X264911Y58521I-15880J8470D01*
G01*
X263827Y56487D02*
G03*
X264402Y57489I-13672J8516D01*
G01*
X263168Y55549D02*
G03*
X263827Y56487I-8076J6375D01*
G01*
X262398Y54715D02*
G03*
X263168Y55549I-4997J5386D01*
G01*
X261508Y54005D02*
G03*
X262398Y54715I-5918J8331D01*
G01*
X265749Y61602D02*
G03*
X266095Y64054I-51885J8563D01*
G01*
X265505Y60388D02*
G03*
X265749Y61602I-20463J4757D01*
G01*
X265174Y59191D02*
G03*
X265505Y60388I-14466J4639D01*
G01*
X264730Y58015D02*
G03*
X265174Y59191I-11513J5021D01*
G01*
X264161Y56887D02*
G03*
X264730Y58015I-9794J5643D01*
G01*
X263465Y55840D02*
G03*
X264161Y56887I-7781J5926D01*
G01*
X262640Y54910D02*
G03*
X263465Y55840I-5779J5957D01*
G01*
X261685Y54129D02*
G03*
X262640Y54910I-4219J6137D01*
G01*
X260640Y53463D02*
G03*
X261685Y54129I-10474J17581D01*
G01*
X265844Y66309D02*
G03*
X265691Y66675I-7636J-2990D01*
G01*
X265908Y66125D02*
G03*
X265844Y66309I-2994J-942D01*
G01*
X265958Y65939D02*
G03*
X265908Y66125I-2108J-461D01*
G01*
X265998Y65558D02*
G03*
X265958Y65939I-1767J9D01*
G01*
X265990Y65364D02*
G03*
X265998Y65558I-2578J195D01*
G01*
X265970Y65168D02*
G03*
X265990Y65364I-3731J478D01*
G01*
X265942Y64972D02*
G03*
X265970Y65168I-6393J1019D01*
G01*
X265884Y61141D02*
G03*
X265941Y62848I-5514J1039D01*
G01*
X265755Y60586D02*
G03*
X265884Y61141I-6440J1791D01*
G01*
X265581Y60038D02*
G03*
X265755Y60586I-7684J2734D01*
G01*
X265371Y59494D02*
G03*
X265581Y60038I-9563J4021D01*
G01*
X265130Y58954D02*
G03*
X265371Y59494I-12556J5920D01*
G01*
X264867Y58417D02*
G03*
X265130Y58954I-17928J9111D01*
G01*
X264589Y57882D02*
G03*
X264867Y58417I-30350J16099D01*
G01*
X261132Y53637D02*
G03*
X261371Y53952I-6412J5118D01*
G01*
X261005Y53489D02*
G03*
X261132Y53637I-2315J2121D01*
G01*
X260869Y53353D02*
G03*
X261005Y53489I-1456J1594D01*
G01*
X260560Y53129D02*
G03*
X260869Y53353I-873J1527D01*
G01*
X260389Y53039D02*
G03*
X260560Y53129I-1115J2315D01*
G01*
X260211Y52958D02*
G03*
X260389Y53039I-1444J3449D01*
G01*
X260027Y52885D02*
G03*
X260211Y52958I-2302J6009D01*
G01*
X241990Y55537D02*
G03*
X242184Y55392I3384J4333D01*
G01*
X241898Y55614D02*
G03*
X241990Y55537I1398J1577D01*
G01*
X241813Y55696D02*
G03*
X241898Y55614I1046J1002D01*
G01*
X241737Y55785D02*
G03*
X241813Y55696I867J668D01*
G01*
X241671Y55882D02*
G03*
X241737Y55785I934J567D01*
G01*
X241613Y55985D02*
G03*
X241671Y55882I1293J647D01*
G01*
X241563Y56094D02*
G03*
X241614Y55985I1932J833D01*
G01*
X241517Y56205D02*
G03*
X241563Y56094I3375J1324D01*
G01*
X248575Y40235D02*
G03*
X249362Y39448I787J0D01*
G01*
Y42597D02*
G03*
X248575Y41810I0J-787D01*
G01*
X256449D02*
G03*
X255662Y42597I-787J0D01*
G01*
Y39448D02*
G03*
X256449Y40235I0J787D01*
G01*
X242985Y51140D02*
G03*
X240836Y54648I-3932J2D01*
G01*
X240836D02*
G03*
X239048Y55077I-1769J-3425D01*
G01*
X235780Y83148D02*
G03*
X233811Y81180I0J-1969D01*
G01*
X262040Y76967D02*
G03*
X265977Y73030I3937J0D01*
G01*
X269244Y39448D02*
G03*
X271213Y41416I0J1969D01*
G01*
X269835Y78424D02*
G03*
X265110Y78424I-2362J0D01*
G01*
D02*
G03*
X269835Y78424I2362J0D01*
G01*
X239914Y49684D02*
G03*
X235189Y49684I-2362J0D01*
G01*
D02*
G03*
X239914Y49684I2362J0D01*
G01*
X267473Y81574D02*
G03*
X264323Y78424I0J-3150D01*
G01*
X270622D02*
G03*
X267473Y81574I-3150J0D01*
G01*
X264323Y78424D02*
G03*
X267473Y75274I3150J0D01*
G01*
D02*
G03*
X270622Y78424I0J3150D01*
G01*
X237551Y52833D02*
G03*
X234402Y49684I0J-3150D01*
G01*
X240701D02*
G03*
X237551Y52833I-3150J0D01*
G01*
X234402Y49684D02*
G03*
X237551Y46534I3150J0D01*
G01*
D02*
G03*
X240701Y49684I0J3150D01*
G01*
X271213Y81180D02*
G03*
X271117Y81788I-1921J7D01*
G01*
D02*
G03*
X269244Y83148I-1871J-606D01*
G01*
X233811Y41416D02*
G03*
X235780Y39448I1969J0D01*
G01*
X90012Y55491D02*
G03*
X90012Y72617I0J8563D01*
G01*
Y51554D02*
G03*
X90012Y76554I0J12500D01*
G01*
Y72617D02*
G03*
X90012Y55491I0J-8563D01*
G01*
Y76554D02*
G03*
X90012Y51554I0J-12500D01*
G01*
X100864Y57342D02*
G03*
X101318Y58907I-12083J4355D01*
G01*
X100532Y56596D02*
G03*
X100864Y57342I-6972J3552D01*
G01*
X100126Y55883D02*
G03*
X100532Y56596I-7576J4778D01*
G01*
X99660Y55206D02*
G03*
X100126Y55883I-8218J6154D01*
G01*
X99145Y54566D02*
G03*
X99660Y55206I-8842J7645D01*
G01*
X98593Y53964D02*
G03*
X99145Y54566I-10230J9935D01*
G01*
X98013Y53390D02*
G03*
X98593Y53964I-13648J14392D01*
G01*
X97414Y52837D02*
G03*
X98013Y53390I-22140J24533D01*
G01*
X83221Y52291D02*
G03*
X96806Y52293I6791J11763D01*
G01*
X76429Y64051D02*
G03*
X83221Y52291I13583J3D01*
G01*
X96803Y52291D02*
G03*
X76429Y64051I-6791J11763D01*
G01*
X103595Y64054D02*
G03*
X99739Y73535I-13582J0D01*
G01*
X98756Y74424D02*
G03*
X81841Y53350I-8764J-10291D01*
G01*
X101819Y70740D02*
G03*
X98756Y74424I-9292J-4609D01*
G01*
X85397Y51301D02*
G03*
X86499Y50933I15515J44710D01*
G01*
X84855Y51500D02*
G03*
X85397Y51301I6695J17357D01*
G01*
X84324Y51718D02*
G03*
X84855Y51500I5231J11968D01*
G01*
X83808Y51962D02*
G03*
X84324Y51718I4519J8914D01*
G01*
X83309Y52237D02*
G03*
X83808Y51962I4160J6948D01*
G01*
X82832Y52548D02*
G03*
X83309Y52237I4561J6472D01*
G01*
X82372Y52890D02*
G03*
X82832Y52548I6935J8845D01*
G01*
X81924Y53253D02*
G03*
X82372Y52890I12199J14627D01*
G01*
X79510Y55542D02*
G03*
X80409Y54449I57586J46414D01*
G01*
X79074Y56100D02*
G03*
X79510Y55542I23669J18076D01*
G01*
X78651Y56672D02*
G03*
X79074Y56100I17503J12471D01*
G01*
X78249Y57263D02*
G03*
X78651Y56672I14254J9277D01*
G01*
X77872Y57877D02*
G03*
X78249Y57263I11570J6680D01*
G01*
X77534Y58513D02*
G03*
X77872Y57877I9248J4510D01*
G01*
X77248Y59170D02*
G03*
X77534Y58513I7616J2919D01*
G01*
X77030Y59846D02*
G03*
X77248Y59170I6416J1699D01*
G01*
X76892Y60541D02*
G03*
X77030Y59846I5540J736D01*
G01*
X76889Y67550D02*
G03*
X76850Y67250I4076J-676D01*
G01*
X76963Y67840D02*
G03*
X76889Y67550I2028J-672D01*
G01*
X77013Y67982D02*
G03*
X76963Y67840I2556J-998D01*
G01*
X77071Y68121D02*
G03*
X77013Y67982I3117J-1379D01*
G01*
X77135Y68259D02*
G03*
X77071Y68121I4016J-1943D01*
G01*
X77204Y68396D02*
G03*
X77135Y68259I5647J-2902D01*
G01*
X103378Y61777D02*
G03*
X103595Y64054I-30629J4069D01*
G01*
X103165Y60664D02*
G03*
X103378Y61777I-11707J2811D01*
G01*
X102839Y59579D02*
G03*
X103165Y60664I-10403J3717D01*
G01*
X102411Y58521D02*
G03*
X102839Y59579I-12525J5686D01*
G01*
X101902Y57489D02*
G03*
X102411Y58521I-15880J8470D01*
G01*
X101327Y56487D02*
G03*
X101902Y57489I-13672J8516D01*
G01*
X100668Y55549D02*
G03*
X101327Y56487I-8076J6375D01*
G01*
X99898Y54715D02*
G03*
X100668Y55549I-4997J5386D01*
G01*
X99008Y54005D02*
G03*
X99898Y54715I-5918J8331D01*
G01*
X103249Y61602D02*
G03*
X103595Y64054I-51885J8563D01*
G01*
X103005Y60388D02*
G03*
X103249Y61602I-20463J4757D01*
G01*
X102674Y59191D02*
G03*
X103005Y60388I-14466J4639D01*
G01*
X102230Y58015D02*
G03*
X102674Y59191I-11513J5021D01*
G01*
X101661Y56887D02*
G03*
X102230Y58015I-9794J5643D01*
G01*
X100965Y55840D02*
G03*
X101661Y56887I-7781J5926D01*
G01*
X100140Y54910D02*
G03*
X100965Y55840I-5779J5957D01*
G01*
X99185Y54129D02*
G03*
X100140Y54910I-4219J6137D01*
G01*
X98140Y53463D02*
G03*
X99185Y54129I-10474J17581D01*
G01*
X103344Y66309D02*
G03*
X103191Y66675I-7636J-2990D01*
G01*
X103408Y66125D02*
G03*
X103344Y66309I-2994J-942D01*
G01*
X103458Y65939D02*
G03*
X103408Y66125I-2108J-461D01*
G01*
X103498Y65558D02*
G03*
X103458Y65939I-1767J9D01*
G01*
X103490Y65364D02*
G03*
X103498Y65558I-2578J195D01*
G01*
X103470Y65168D02*
G03*
X103490Y65364I-3731J478D01*
G01*
X103442Y64972D02*
G03*
X103470Y65168I-6393J1019D01*
G01*
X103384Y61141D02*
G03*
X103441Y62848I-5514J1039D01*
G01*
X103255Y60586D02*
G03*
X103384Y61141I-6440J1791D01*
G01*
X103082Y60038D02*
G03*
X103255Y60586I-7684J2734D01*
G01*
X102871Y59494D02*
G03*
X103082Y60038I-9563J4021D01*
G01*
X102630Y58954D02*
G03*
X102871Y59494I-12556J5920D01*
G01*
X102367Y58417D02*
G03*
X102630Y58954I-17928J9111D01*
G01*
X102090Y57882D02*
G03*
X102367Y58417I-30350J16099D01*
G01*
X98632Y53637D02*
G03*
X98871Y53952I-6412J5118D01*
G01*
X98505Y53489D02*
G03*
X98632Y53637I-2315J2121D01*
G01*
X98369Y53353D02*
G03*
X98505Y53489I-1456J1594D01*
G01*
X98060Y53129D02*
G03*
X98369Y53353I-873J1527D01*
G01*
X97889Y53039D02*
G03*
X98060Y53129I-1115J2315D01*
G01*
X97711Y52958D02*
G03*
X97889Y53039I-1444J3449D01*
G01*
X97527Y52885D02*
G03*
X97711Y52958I-2302J6009D01*
G01*
X79490Y55537D02*
G03*
X79685Y55392I3384J4333D01*
G01*
X79398Y55614D02*
G03*
X79490Y55537I1398J1577D01*
G01*
X79313Y55696D02*
G03*
X79398Y55614I1046J1002D01*
G01*
X79237Y55785D02*
G03*
X79313Y55696I867J668D01*
G01*
X79171Y55882D02*
G03*
X79237Y55785I934J567D01*
G01*
X79114Y55985D02*
G03*
X79171Y55882I1293J647D01*
G01*
X79063Y56094D02*
G03*
X79114Y55985I1932J833D01*
G01*
X79017Y56205D02*
G03*
X79063Y56094I3375J1324D01*
G01*
X86862Y42597D02*
G03*
X86075Y41810I0J-787D01*
G01*
X93949D02*
G03*
X93162Y42597I-787J0D01*
G01*
Y39448D02*
G03*
X93949Y40235I0J787D01*
G01*
X86075Y40235D02*
G03*
X86862Y39448I787J0D01*
G01*
X80485Y51140D02*
G03*
X78336Y54648I-3932J2D01*
G01*
X78336D02*
G03*
X76547Y55077I-1769J-3425D01*
G01*
X73280Y83148D02*
G03*
X71311Y81180I0J-1969D01*
G01*
X99540Y76967D02*
G03*
X103477Y73030I3937J0D01*
G01*
X106744Y39448D02*
G03*
X108713Y41416I0J1969D01*
G01*
X107335Y78424D02*
G03*
X102611Y78424I-2362J0D01*
G01*
D02*
G03*
X107335Y78424I2362J0D01*
G01*
X77414Y49684D02*
G03*
X72689Y49684I-2362J0D01*
G01*
D02*
G03*
X77414Y49684I2362J0D01*
G01*
X104973Y81574D02*
G03*
X101823Y78424I0J-3150D01*
G01*
X108122D02*
G03*
X104973Y81574I-3150J0D01*
G01*
X101823Y78424D02*
G03*
X104973Y75274I3150J0D01*
G01*
D02*
G03*
X108122Y78424I0J3150D01*
G01*
X75051Y52833D02*
G03*
X71902Y49684I0J-3150D01*
G01*
X78201D02*
G03*
X75051Y52833I-3150J0D01*
G01*
X71902Y49684D02*
G03*
X75051Y46534I3150J0D01*
G01*
D02*
G03*
X78201Y49684I0J3150D01*
G01*
X108713Y81180D02*
G03*
X108617Y81788I-1921J7D01*
G01*
D02*
G03*
X106744Y83148I-1871J-606D01*
G01*
X71311Y41416D02*
G03*
X73280Y39448I1969J0D01*
G01*
X276525Y330025D02*
G03*
X273525Y330025I-1500J0D01*
G01*
X190525D02*
G03*
X187525Y330025I-1500J0D01*
G01*
X180525D02*
G03*
X177525Y330025I-1500J0D01*
G01*
X220525D02*
G03*
X217525Y330025I-1500J0D01*
G01*
X446525Y310025D02*
G03*
X443525Y310025I-1500J0D01*
G01*
X436525Y320025D02*
G03*
X433525Y320025I-1500J0D01*
G01*
X131324Y330025D02*
G03*
X118726Y330025I-6299J0D01*
G01*
X356525D02*
G03*
X353525Y330025I-1500J0D01*
G01*
X386525D02*
G03*
X383525Y330025I-1500J0D01*
G01*
X366525D02*
G03*
X363525Y330025I-1500J0D01*
G01*
X376525D02*
G03*
X373525Y330025I-1500J0D01*
G01*
X396525D02*
G03*
X393525Y330025I-1500J0D01*
G01*
X552462Y302025D02*
G03*
X549588Y302025I-1437J0D01*
G01*
X640462D02*
G03*
X637588Y302025I-1437J0D01*
G01*
X522462D02*
G03*
X519588Y302025I-1437J0D01*
G01*
X532462D02*
G03*
X529588Y302025I-1437J0D01*
G01*
X723962Y301395D02*
G03*
X721088Y301395I-1437J0D01*
G01*
X733962D02*
G03*
X731088Y301395I-1437J0D01*
G01*
X670462Y302025D02*
G03*
X667588Y302025I-1437J0D01*
G01*
X743962Y332655D02*
G03*
X741088Y332655I-1437J0D01*
G01*
X522462Y333285D02*
G03*
X519588Y333285I-1437J0D01*
G01*
X542462D02*
G03*
X539588Y333285I-1437J0D01*
G01*
X650462D02*
G03*
X647588Y333285I-1437J0D01*
G01*
X600462D02*
G03*
X597588Y333285I-1437J0D01*
G01*
X624391Y378974D02*
G03*
X620848Y378974I-1772J0D01*
G01*
X634391D02*
G03*
X630848Y378974I-1772J0D01*
G01*
X660462Y333285D02*
G03*
X657588Y333285I-1437J0D01*
G01*
X670462D02*
G03*
X667588Y333285I-1437J0D01*
G01*
X724690Y379025D02*
G03*
X720360Y379025I-2165J0D01*
G01*
X1090832Y171525D02*
G03*
X1087958Y171525I-1437J0D01*
G01*
X1102297Y148525D02*
G03*
X1098753Y148525I-1772J0D01*
G01*
X1090832Y201525D02*
G03*
X1087958Y201525I-1437J0D01*
G01*
X1090832Y231525D02*
G03*
X1087958Y231525I-1437J0D01*
G01*
X1091832Y326275D02*
G03*
X1088958Y326275I-1437J0D01*
G01*
X1091832Y296275D02*
G03*
X1088958Y296275I-1437J0D01*
G01*
X1401625Y109710D02*
G03*
X1398425Y109710I-1600J0D01*
G01*
X1469297Y128025D02*
G03*
X1465753Y128025I-1772J0D01*
G01*
X1469297Y168025D02*
G03*
X1465753Y168025I-1772J0D01*
G01*
X1178561Y348288D02*
G03*
X1175361Y348288I-1600J0D01*
G01*
X1090832Y381025D02*
G03*
X1087958Y381025I-1437J0D01*
G01*
X1090832Y401025D02*
G03*
X1087958Y401025I-1437J0D01*
G01*
X1171625Y390025D02*
G03*
X1168425Y390025I-1600J0D01*
G01*
X1341061Y348288D02*
G03*
X1337861Y348288I-1600J0D01*
G01*
X1386147Y373850D02*
G03*
X1383391Y373850I-1378J0D01*
G01*
X1408411Y390025D02*
G03*
X1405655Y390025I-1378J0D01*
G01*
X1449125D02*
G03*
X1445925Y390025I-1600J0D01*
G01*
X1230478D02*
G03*
X1224572Y390025I-2953J0D01*
G01*
X1346061Y426762D02*
G03*
X1342861Y426762I-1600J0D01*
G01*
X1372311Y444466D02*
G03*
X1369111Y444466I-1600J0D01*
G01*
X1215143Y400022D02*
G03*
X1212387Y400022I-1378J0D01*
G01*
X1234159Y406200D02*
G03*
X1231403Y406200I-1378J0D01*
G01*
X1296625Y390025D02*
G03*
X1293425Y390025I-1600J0D01*
G01*
X1090832Y421025D02*
G03*
X1087958Y421025I-1437J0D01*
G01*
X1091832Y316275D02*
G03*
X1088958Y316275I-1437J0D01*
G01*
X1122092Y381025D02*
G03*
X1119218Y381025I-1437J0D01*
G01*
X620462Y302025D02*
G03*
X617588Y302025I-1437J0D01*
G01*
X1122092Y391025D02*
G03*
X1119218Y391025I-1437J0D01*
G01*
X193525Y140025D02*
G03*
X196525Y140025I1500J0D01*
G01*
X1091832Y286275D02*
G03*
X1088958Y286275I-1437J0D01*
G01*
X446525Y320025D02*
G03*
X443525Y320025I-1500J0D01*
G01*
X160525Y330025D02*
G03*
X157525Y330025I-1500J0D01*
G01*
X1377643Y400022D02*
G03*
X1374887Y400022I-1378J0D01*
G01*
X260203Y34966D02*
G03*
X264533Y34966I2166J0D01*
G01*
X422703D02*
G03*
X427034Y34966I2166J0D01*
G01*
X403017D02*
G03*
X407347Y34966I2166J0D01*
G01*
X412859D02*
G03*
X417191Y34966I2166J0D01*
G01*
X1372311Y454466D02*
G03*
X1369111Y454466I-1600J0D01*
G01*
X660462Y302025D02*
G03*
X657588Y302025I-1437J0D01*
G01*
X1234159Y373850D02*
G03*
X1231403Y373850I-1378J0D01*
G01*
X1279689Y348288D02*
G03*
X1276489Y348288I-1600J0D01*
G01*
X713962Y332655D02*
G03*
X711088Y332655I-1437J0D01*
G01*
X1242663Y380028D02*
G03*
X1239907Y380028I-1378J0D01*
G01*
X1090832Y411025D02*
G03*
X1087958Y411025I-1437J0D01*
G01*
X1092297Y128525D02*
G03*
X1088753Y128525I-1772J0D01*
G01*
X1469297Y178025D02*
G03*
X1465753Y178025I-1772J0D01*
G01*
X1469297Y138025D02*
G03*
X1465753Y138025I-1772J0D01*
G01*
X1469297Y158025D02*
G03*
X1465753Y158025I-1772J0D01*
G01*
X1469297Y148025D02*
G03*
X1465753Y148025I-1772J0D01*
G01*
X630462Y333285D02*
G03*
X627588Y333285I-1437J0D01*
G01*
X286525Y330025D02*
G03*
X283525Y330025I-1500J0D01*
G01*
X1090832Y221525D02*
G03*
X1087958Y221525I-1437J0D01*
G01*
X266525Y330025D02*
G03*
X263525Y330025I-1500J0D01*
G01*
X363525Y140025D02*
G03*
X366525Y140025I1500J0D01*
G01*
X1374395Y390025D02*
G03*
X1371639Y390025I-1378J0D01*
G01*
X1377643Y380028D02*
G03*
X1374887Y380028I-1378J0D01*
G01*
X1405163D02*
G03*
X1402407Y380028I-1378J0D01*
G01*
X373525Y140025D02*
G03*
X376525Y140025I1500J0D01*
G01*
X383525D02*
G03*
X386525Y140025I1500J0D01*
G01*
X323805Y229828D02*
G03*
X327348Y229828I1772J0D01*
G01*
X323805Y249828D02*
G03*
X327348Y249828I1772J0D01*
G01*
X323805Y239828D02*
G03*
X327348Y239828I1772J0D01*
G01*
X423525Y140025D02*
G03*
X426525Y140025I1500J0D01*
G01*
X393525D02*
G03*
X396525Y140025I1500J0D01*
G01*
X403525D02*
G03*
X406525Y140025I1500J0D01*
G01*
X240516Y34966D02*
G03*
X244847Y34966I2166J0D01*
G01*
X1122092Y411025D02*
G03*
X1119218Y411025I-1437J0D01*
G01*
X12178Y118025D02*
G03*
X18871Y118025I3347J0D01*
G01*
X565517Y34966D02*
G03*
X569847Y34966I2166J0D01*
G01*
X575359D02*
G03*
X579691Y34966I2166J0D01*
G01*
X433525Y170025D02*
G03*
X436525Y170025I1500J0D01*
G01*
X433525Y190025D02*
G03*
X436525Y190025I1500J0D01*
G01*
X433525Y180025D02*
G03*
X436525Y180025I1500J0D01*
G01*
X443525Y170025D02*
G03*
X446525Y170025I1500J0D01*
G01*
X711875Y37525D02*
G03*
X718175Y37525I3150J0D01*
G01*
X336525Y330025D02*
G03*
X333525Y330025I-1500J0D01*
G01*
X1437189Y426762D02*
G03*
X1433989Y426762I-1600J0D01*
G01*
X283525Y140025D02*
G03*
X286525Y140025I1500J0D01*
G01*
X864690Y379025D02*
G03*
X860360Y379025I-2165J0D01*
G01*
X293525Y140025D02*
G03*
X296525Y140025I1500J0D01*
G01*
X113726D02*
G03*
X126324Y140025I6299J0D01*
G01*
X47962Y461025D02*
G03*
X40088Y461025I-3937J0D01*
G01*
X56068Y362525D02*
G03*
X48982Y362525I-3543J0D01*
G01*
X150324Y374348D02*
G03*
X142450Y374348I-3937J0D01*
G01*
X356442Y461025D02*
G03*
X348568Y461025I-3937J0D01*
G01*
X433525Y240025D02*
G03*
X436525Y240025I1500J0D01*
G01*
X433525Y230025D02*
G03*
X436525Y230025I1500J0D01*
G01*
X433525Y280025D02*
G03*
X436525Y280025I1500J0D01*
G01*
X433525Y300025D02*
G03*
X436525Y300025I1500J0D01*
G01*
X333525Y140025D02*
G03*
X336525Y140025I1500J0D01*
G01*
X353525D02*
G03*
X356525Y140025I1500J0D01*
G01*
X413525D02*
G03*
X416525Y140025I1500J0D01*
G01*
X914690Y379025D02*
G03*
X910360Y379025I-2165J0D01*
G01*
X443525Y190025D02*
G03*
X446525Y190025I1500J0D01*
G01*
X443525Y220025D02*
G03*
X446525Y220025I1500J0D01*
G01*
X443525Y200025D02*
G03*
X446525Y200025I1500J0D01*
G01*
X443525Y270025D02*
G03*
X446525Y270025I1500J0D01*
G01*
X542462Y302025D02*
G03*
X539588Y302025I-1437J0D01*
G01*
X97702Y34966D02*
G03*
X102033Y34966I2166J0D01*
G01*
X1091832Y306275D02*
G03*
X1088958Y306275I-1437J0D01*
G01*
X443525Y230025D02*
G03*
X446525Y230025I1500J0D01*
G01*
X12178Y98025D02*
G03*
X18871Y98025I3347J0D01*
G01*
X610462Y302025D02*
G03*
X607588Y302025I-1437J0D01*
G01*
X253525Y330025D02*
G03*
X256525Y330025I1500J0D01*
G01*
X227525D02*
G03*
X230525Y330025I1500J0D01*
G01*
X243525D02*
G03*
X246525Y330025I1500J0D01*
G01*
X630462Y302025D02*
G03*
X627588Y302025I-1437J0D01*
G01*
X620462Y333285D02*
G03*
X617588Y333285I-1437J0D01*
G01*
X640462D02*
G03*
X637588Y333285I-1437J0D01*
G01*
X167525Y330025D02*
G03*
X170525Y330025I1500J0D01*
G01*
X650462Y302025D02*
G03*
X647588Y302025I-1437J0D01*
G01*
X713962Y301395D02*
G03*
X711088Y301395I-1437J0D01*
G01*
X1248439Y335584D02*
G03*
X1245239Y335584I-1600J0D01*
G01*
X207525Y330025D02*
G03*
X210525Y330025I1500J0D01*
G01*
X743962Y301395D02*
G03*
X741088Y301395I-1437J0D01*
G01*
X433525Y310025D02*
G03*
X436525Y310025I1500J0D01*
G01*
X479588Y302025D02*
G03*
X482462Y302025I1437J0D01*
G01*
X509588D02*
G03*
X512462Y302025I1437J0D01*
G01*
X489588D02*
G03*
X492462Y302025I1437J0D01*
G01*
X723962Y332655D02*
G03*
X721088Y332655I-1437J0D01*
G01*
X733962D02*
G03*
X731088Y332655I-1437J0D01*
G01*
X552462Y333285D02*
G03*
X549588Y333285I-1437J0D01*
G01*
X303525Y330025D02*
G03*
X306525Y330025I1500J0D01*
G01*
X532462Y333285D02*
G03*
X529588Y333285I-1437J0D01*
G01*
X313805Y249828D02*
G03*
X317348Y249828I1772J0D01*
G01*
X614391Y378974D02*
G03*
X610848Y378974I-1772J0D01*
G01*
X644391D02*
G03*
X640848Y378974I-1772J0D01*
G01*
X754690Y379025D02*
G03*
X750360Y379025I-2165J0D01*
G01*
X734690D02*
G03*
X730360Y379025I-2165J0D01*
G01*
X744690D02*
G03*
X740360Y379025I-2165J0D01*
G01*
X674391Y378974D02*
G03*
X670848Y378974I-1772J0D01*
G01*
X654391D02*
G03*
X650848Y378974I-1772J0D01*
G01*
X1242663Y400022D02*
G03*
X1239907Y400022I-1378J0D01*
G01*
X556659Y62525D02*
G03*
X562957Y62525I3150J0D01*
G01*
X443525Y260025D02*
G03*
X446525Y260025I1500J0D01*
G01*
X694391Y378974D02*
G03*
X690848Y378974I-1772J0D01*
G01*
X499588Y333285D02*
G03*
X502462Y333285I1437J0D01*
G01*
X485214Y374348D02*
G03*
X493088Y374348I3937J0D01*
G01*
X509588Y333285D02*
G03*
X512462Y333285I1437J0D01*
G01*
X768675Y37525D02*
G03*
X762375Y37525I-3150J0D01*
G01*
X768175Y88025D02*
G03*
X761875Y88025I-3150J0D01*
G01*
X1405163Y400022D02*
G03*
X1402407Y400022I-1378J0D01*
G01*
X901443Y141639D02*
G03*
X897899Y141639I-1772J0D01*
G01*
X901443Y161639D02*
G03*
X897899Y161639I-1772J0D01*
G01*
X901443Y151639D02*
G03*
X897899Y151639I-1772J0D01*
G01*
X854690Y379025D02*
G03*
X850360Y379025I-2165J0D01*
G01*
X592093Y62525D02*
G03*
X598391Y62525I3150J0D01*
G01*
X1123092Y336275D02*
G03*
X1120218Y336275I-1437J0D01*
G01*
X1102297Y128525D02*
G03*
X1098753Y128525I-1772J0D01*
G01*
X751088Y301395D02*
G03*
X753962Y301395I1437J0D01*
G01*
X1092297Y138525D02*
G03*
X1088753Y138525I-1772J0D01*
G01*
X1102297D02*
G03*
X1098753Y138525I-1772J0D01*
G01*
X1092297Y148525D02*
G03*
X1088753Y148525I-1772J0D01*
G01*
X783962Y301395D02*
G03*
X781088Y301395I-1437J0D01*
G01*
X1090832Y211525D02*
G03*
X1087958Y211525I-1437J0D01*
G01*
X1090832Y191525D02*
G03*
X1087958Y191525I-1437J0D01*
G01*
X443525Y290025D02*
G03*
X446525Y290025I1500J0D01*
G01*
X443525Y280025D02*
G03*
X446525Y280025I1500J0D01*
G01*
X443525Y240025D02*
G03*
X446525Y240025I1500J0D01*
G01*
X1091832Y276275D02*
G03*
X1088958Y276275I-1437J0D01*
G01*
X610462Y333285D02*
G03*
X607588Y333285I-1437J0D01*
G01*
X250360Y34966D02*
G03*
X254691Y34966I2166J0D01*
G01*
X1381625Y109710D02*
G03*
X1378425Y109710I-1600J0D01*
G01*
X1122092Y181525D02*
G03*
X1119218Y181525I-1437J0D01*
G01*
X1122092Y211525D02*
G03*
X1119218Y211525I-1437J0D01*
G01*
X1122092Y201525D02*
G03*
X1119218Y201525I-1437J0D01*
G01*
X897899Y131639D02*
G03*
X901443Y131639I1772J0D01*
G01*
X1062860Y34966D02*
G03*
X1067190Y34966I2166J0D01*
G01*
X1053016D02*
G03*
X1057347Y34966I2166J0D01*
G01*
X313805Y229828D02*
G03*
X317348Y229828I1772J0D01*
G01*
X604391Y378974D02*
G03*
X600848Y378974I-1772J0D01*
G01*
X318726Y270025D02*
G03*
X331324Y270025I6299J0D01*
G01*
X1123092Y266275D02*
G03*
X1120218Y266275I-1437J0D01*
G01*
X1123092Y286275D02*
G03*
X1120218Y286275I-1437J0D01*
G01*
X1123092Y306275D02*
G03*
X1120218Y306275I-1437J0D01*
G01*
X1123092Y296275D02*
G03*
X1120218Y296275I-1437J0D01*
G01*
X771088Y301395D02*
G03*
X773962Y301395I1437J0D01*
G01*
X751088Y332655D02*
G03*
X753962Y332655I1437J0D01*
G01*
X761088Y301395D02*
G03*
X763962Y301395I1437J0D01*
G01*
X1087958Y241525D02*
G03*
X1090832Y241525I1437J0D01*
G01*
X781088Y332655D02*
G03*
X783962Y332655I1437J0D01*
G01*
X433525Y160025D02*
G03*
X436525Y160025I1500J0D01*
G01*
X438726Y140025D02*
G03*
X451324Y140025I6299J0D01*
G01*
X585203Y34966D02*
G03*
X589534Y34966I2166J0D01*
G01*
X1441100Y252147D02*
G03*
X1431651Y252147I-4724J0D01*
G01*
X1372311Y325584D02*
G03*
X1369111Y325584I-1600J0D01*
G01*
X1410939D02*
G03*
X1407739Y325584I-1600J0D01*
G01*
X763962Y332655D02*
G03*
X761088Y332655I-1437J0D01*
G01*
X443525Y160025D02*
G03*
X446525Y160025I1500J0D01*
G01*
X443525Y180025D02*
G03*
X446525Y180025I1500J0D01*
G01*
X1225360Y34966D02*
G03*
X1229690Y34966I2166J0D01*
G01*
X1215516D02*
G03*
X1219847Y34966I2166J0D01*
G01*
X1235203D02*
G03*
X1239534Y34966I2166J0D01*
G01*
X712375Y88025D02*
G03*
X718675Y88025I3150J0D01*
G01*
X1178561Y358288D02*
G03*
X1175361Y358288I-1600J0D01*
G01*
X1388425Y109710D02*
G03*
X1391625Y109710I1600J0D01*
G01*
X443525Y210025D02*
G03*
X446525Y210025I1500J0D01*
G01*
X1429395Y232545D02*
G03*
X1350655Y232545I-39370J0D01*
G01*
X1466757Y25D02*
G03*
X1475025Y8293I0J8268D01*
G01*
Y481757D02*
G03*
X1466757Y490025I-8268J0D01*
G01*
X433525Y290025D02*
G03*
X436525Y290025I1500J0D01*
G01*
X1406560Y32997D02*
G03*
X1409710Y36147I0J3150D01*
G01*
Y88903D02*
G03*
X1406560Y92053I-3150J0D01*
G01*
X1373490D02*
G03*
X1370340Y88903I0J-3150D01*
G01*
X551147Y231710D02*
G03*
X547997Y228560I0J-3150D01*
G01*
Y195490D02*
G03*
X551147Y192340I3150J0D01*
G01*
X603903D02*
G03*
X607053Y195490I0J3150D01*
G01*
Y228560D02*
G03*
X603903Y231710I-3150J0D01*
G01*
X762915Y175804D02*
G03*
X766064Y172655I3150J0D01*
G01*
X1035356D02*
G03*
X1038505Y175804I0J3150D01*
G01*
X1209811Y444466D02*
G03*
X1206611Y444466I-1600J0D01*
G01*
X766064Y251395D02*
G03*
X762915Y248246I0J-3150D01*
G01*
X1223647Y373850D02*
G03*
X1220891Y373850I-1378J0D01*
G01*
X206525Y140025D02*
G03*
X203525Y140025I-1500J0D01*
G01*
X216525D02*
G03*
X213525Y140025I-1500J0D01*
G01*
X276525D02*
G03*
X273525Y140025I-1500J0D01*
G01*
X246525D02*
G03*
X243525Y140025I-1500J0D01*
G01*
X266525D02*
G03*
X263525Y140025I-1500J0D01*
G01*
X704391Y378974D02*
G03*
X700848Y378974I-1772J0D01*
G01*
X714391D02*
G03*
X710848Y378974I-1772J0D01*
G01*
X684391D02*
G03*
X680848Y378974I-1772J0D01*
G01*
X226525Y140025D02*
G03*
X223525Y140025I-1500J0D01*
G01*
X326525D02*
G03*
X323525Y140025I-1500J0D01*
G01*
X306525D02*
G03*
X303525Y140025I-1500J0D01*
G01*
X316525D02*
G03*
X313525Y140025I-1500J0D01*
G01*
X236525D02*
G03*
X233525Y140025I-1500J0D01*
G01*
X317348Y239828D02*
G03*
X313805Y239828I-1772J0D01*
G01*
X1386147Y406200D02*
G03*
X1383391Y406200I-1378J0D01*
G01*
X1459125Y390025D02*
G03*
X1455925Y390025I-1600J0D01*
G01*
X1396659Y406200D02*
G03*
X1393903Y406200I-1378J0D01*
G01*
X87859Y34966D02*
G03*
X92190Y34966I2166J0D01*
G01*
X1370340Y36147D02*
G03*
X1373490Y32997I3150J0D01*
G01*
X436525Y210025D02*
G03*
X433525Y210025I-1500J0D01*
G01*
X436525Y260025D02*
G03*
X433525Y260025I-1500J0D01*
G01*
X1072703Y34966D02*
G03*
X1077034Y34966I2166J0D01*
G01*
X1122092Y231525D02*
G03*
X1119218Y231525I-1437J0D01*
G01*
X1123092Y276275D02*
G03*
X1120218Y276275I-1437J0D01*
G01*
X900360Y379025D02*
G03*
X904690Y379025I2165J0D01*
G01*
X200525Y330025D02*
G03*
X197525Y330025I-1500J0D01*
G01*
X1123092Y326275D02*
G03*
X1120218Y326275I-1437J0D01*
G01*
X446525Y300025D02*
G03*
X443525Y300025I-1500J0D01*
G01*
X502462Y302025D02*
G03*
X499588Y302025I-1437J0D01*
G01*
X316525Y330025D02*
G03*
X313525Y330025I-1500J0D01*
G01*
X296525D02*
G03*
X293525Y330025I-1500J0D01*
G01*
X1088958Y266275D02*
G03*
X1091832Y266275I1437J0D01*
G01*
X1119218Y191525D02*
G03*
X1122092Y191525I1437J0D01*
G01*
X764690Y379025D02*
G03*
X760360Y379025I-2165J0D01*
G01*
X773962Y332655D02*
G03*
X771088Y332655I-1437J0D01*
G01*
X804690Y379025D02*
G03*
X800360Y379025I-2165J0D01*
G01*
X784690D02*
G03*
X780360Y379025I-2165J0D01*
G01*
X844690D02*
G03*
X840360Y379025I-2165J0D01*
G01*
X346525Y330025D02*
G03*
X343525Y330025I-1500J0D01*
G01*
X433525Y200025D02*
G03*
X436525Y200025I1500J0D01*
G01*
X433525Y220025D02*
G03*
X436525Y220025I1500J0D01*
G01*
X937119Y374348D02*
G03*
X929245Y374348I-3937J0D01*
G01*
X1122092Y361025D02*
G03*
X1119218Y361025I-1437J0D01*
G01*
X1090832Y371025D02*
G03*
X1087958Y371025I-1437J0D01*
G01*
X25Y8293D02*
G03*
X8293Y25I8268J0D01*
G01*
X406525Y330025D02*
G03*
X403525Y330025I-1500J0D01*
G01*
X426324D02*
G03*
X413726Y330025I-6299J0D01*
G01*
X436525D02*
G03*
X433525Y330025I-1500J0D01*
G01*
X446525D02*
G03*
X443525Y330025I-1500J0D01*
G01*
X482462Y333285D02*
G03*
X479588Y333285I-1437J0D01*
G01*
X492462D02*
G03*
X489588Y333285I-1437J0D01*
G01*
X600462Y302025D02*
G03*
X597588Y302025I-1437J0D01*
G01*
X1120218Y316275D02*
G03*
X1123092Y316275I1437J0D01*
G01*
X443525Y250025D02*
G03*
X446525Y250025I1500J0D01*
G01*
X1161625Y390025D02*
G03*
X1158425Y390025I-1600J0D01*
G01*
X1090832Y431025D02*
G03*
X1087958Y431025I-1437J0D01*
G01*
X1122092D02*
G03*
X1119218Y431025I-1437J0D01*
G01*
X1173561Y426762D02*
G03*
X1170361Y426762I-1600J0D01*
G01*
X1279689Y358288D02*
G03*
X1276489Y358288I-1600J0D01*
G01*
X1245911Y390025D02*
G03*
X1243155Y390025I-1378J0D01*
G01*
X1324125D02*
G03*
X1320925Y390025I-1600J0D01*
G01*
X1334125D02*
G03*
X1330925Y390025I-1600J0D01*
G01*
X1372311Y335584D02*
G03*
X1369111Y335584I-1600J0D01*
G01*
X1341061Y358288D02*
G03*
X1337861Y358288I-1600J0D01*
G01*
X1396659Y373850D02*
G03*
X1393903Y373850I-1378J0D01*
G01*
X1036151Y374348D02*
G03*
X1044025Y374348I3937J0D01*
G01*
X664391Y378974D02*
G03*
X660848Y378974I-1772J0D01*
G01*
X1248439Y454466D02*
G03*
X1245239Y454466I-1600J0D01*
G01*
X1336061Y426762D02*
G03*
X1332861Y426762I-1600J0D01*
G01*
X1274689D02*
G03*
X1271489Y426762I-1600J0D01*
G01*
X1209139Y390025D02*
G03*
X1211895Y390025I1378J0D01*
G01*
X1212387Y380028D02*
G03*
X1215143Y380028I1378J0D01*
G01*
X814690Y379025D02*
G03*
X810360Y379025I-2165J0D01*
G01*
X1090832Y181525D02*
G03*
X1087958Y181525I-1437J0D01*
G01*
X890516Y34966D02*
G03*
X894847Y34966I2166J0D01*
G01*
X900360D02*
G03*
X904690Y34966I2166J0D01*
G01*
X910203D02*
G03*
X914534Y34966I2166J0D01*
G01*
X1443989Y426762D02*
G03*
X1447189Y426762I1600J0D01*
G01*
X1407739Y444466D02*
G03*
X1410939Y444466I1600J0D01*
G01*
X318726Y160025D02*
G03*
X331324Y160025I6299J0D01*
G01*
X1122092Y241525D02*
G03*
X1119218Y241525I-1437J0D01*
G01*
X1442188Y358288D02*
G03*
X1438988Y358288I-1600J0D01*
G01*
X1442188Y348288D02*
G03*
X1438988Y348288I-1600J0D01*
G01*
X894690Y379025D02*
G03*
X890360Y379025I-2165J0D01*
G01*
X1209811Y325584D02*
G03*
X1206611Y325584I-1600J0D01*
G01*
X1119218Y371025D02*
G03*
X1122092Y371025I1437J0D01*
G01*
X870360Y379025D02*
G03*
X874690Y379025I2165J0D01*
G01*
X770360D02*
G03*
X774690Y379025I2165J0D01*
G01*
X1286625Y390025D02*
G03*
X1283425Y390025I-1600J0D01*
G01*
X1296797Y241025D02*
G03*
X1293253Y241025I-1772J0D01*
G01*
X1248439Y325584D02*
G03*
X1245239Y325584I-1600J0D01*
G01*
X1286797Y241025D02*
G03*
X1283253Y241025I-1772J0D01*
G01*
X1075521Y461025D02*
G03*
X1083395Y461025I3937J0D01*
G01*
X1284689Y426762D02*
G03*
X1281489Y426762I-1600J0D01*
G01*
X1392978Y390025D02*
G03*
X1387072Y390025I-2953J0D01*
G01*
X1119218Y401025D02*
G03*
X1122092Y401025I1437J0D01*
G01*
X824690Y379025D02*
G03*
X820360Y379025I-2165J0D01*
G01*
X834690D02*
G03*
X830360Y379025I-2165J0D01*
G01*
X884690D02*
G03*
X880360Y379025I-2165J0D01*
G01*
X1090832Y361025D02*
G03*
X1087958Y361025I-1437J0D01*
G01*
X1091832Y336275D02*
G03*
X1088958Y336275I-1437J0D01*
G01*
X1209811Y335584D02*
G03*
X1206611Y335584I-1600J0D01*
G01*
X8293Y490025D02*
G03*
X25Y481757I0J-8268D01*
G01*
X433525Y250025D02*
G03*
X436525Y250025I1500J0D01*
G01*
X776588Y461025D02*
G03*
X768714Y461025I-3937J0D01*
G01*
X1090832Y391025D02*
G03*
X1087958Y391025I-1437J0D01*
G01*
X1119218Y171525D02*
G03*
X1122092Y171525I1437J0D01*
G01*
X1209811Y454466D02*
G03*
X1206611Y454466I-1600J0D01*
G01*
X436525Y270025D02*
G03*
X433525Y270025I-1500J0D01*
G01*
X1410939Y335584D02*
G03*
X1407739Y335584I-1600J0D01*
G01*
X78017Y34966D02*
G03*
X82348Y34966I2166J0D01*
G01*
X1223647Y406200D02*
G03*
X1220891Y406200I-1378J0D01*
G01*
X1248439Y444466D02*
G03*
X1245239Y444466I-1600J0D01*
G01*
X1119218Y421025D02*
G03*
X1122092Y421025I1437J0D01*
G01*
X1410939Y454466D02*
G03*
X1407739Y454466I-1600J0D01*
G01*
X1122092Y221525D02*
G03*
X1119218Y221525I-1437J0D01*
G01*
X1183561Y426762D02*
G03*
X1180361Y426762I-1600J0D01*
G01*
X790360Y379025D02*
G03*
X794690Y379025I2165J0D01*
G01*
X746956Y51860D02*
X747061Y51890D01*
X746850Y51831D02*
X746956Y51860D01*
X750007Y53763D02*
X750132Y53874D01*
X749203Y53165D02*
X749344Y53255D01*
X749061Y53076D02*
X749203Y53165D01*
X748489Y52697D02*
X749824Y53610D01*
X750267Y53995D01*
X750361Y54081D01*
X750372Y54091D01*
X750378Y54097D01*
X750378Y54097D01*
X750379Y54097D01*
X750379Y54098D01*
X750379Y54098D01*
X750379Y54098D01*
X420828Y51860D02*
X420934Y51890D01*
X420722Y51831D02*
X420828Y51860D01*
X423879Y53763D02*
X424004Y53874D01*
X423076Y53165D02*
X423217Y53255D01*
X422934Y53076D02*
X423076Y53165D01*
X422362Y52697D02*
X423696Y53610D01*
X424139Y53995D01*
X424233Y54081D01*
X424244Y54091D01*
X424250Y54097D01*
X424251Y54097D01*
X424251Y54097D01*
X424251Y54098D01*
X424251Y54098D01*
X424251Y54098D01*
X881898Y63730D02*
X881992Y63936D01*
X881658Y62525D02*
X881898Y63730D01*
X1248152Y236230D02*
X1248392Y235025D01*
X1248021Y236506D02*
X1248152Y236230D01*
X273035Y61069D02*
X273152Y61320D01*
X273392Y62525D01*
X394159D02*
X394398Y61320D01*
X394507Y61084D01*
X435535Y61069D02*
X435652Y61320D01*
X435891Y62525D01*
X923152Y63730D02*
X923392Y62525D01*
X923021Y64006D02*
X923152Y63730D01*
X1248152D02*
X1248392Y62525D01*
X1248021Y64006D02*
X1248152Y63730D01*
X923035Y61069D02*
X923152Y61320D01*
X923392Y62525D01*
X881658D02*
X881898Y61320D01*
X882007Y61084D01*
X1044158Y62525D02*
X1044398Y61320D01*
X1044507Y61084D01*
X1206898Y236230D02*
X1206992Y236436D01*
X1206658Y235025D02*
X1206898Y236230D01*
X1248035Y61069D02*
X1248152Y61320D01*
X1248392Y62525D01*
X69398Y63730D02*
X69492Y63936D01*
X69159Y62525D02*
X69398Y63730D01*
X110652D02*
X110891Y62525D01*
X110521Y64006D02*
X110652Y63730D01*
X231898D02*
X231992Y63936D01*
X231659Y62525D02*
X231898Y63730D01*
X273152D02*
X273392Y62525D01*
X273021Y64006D02*
X273152Y63730D01*
X435652D02*
X435891Y62525D01*
X435521Y64006D02*
X435652Y63730D01*
X1085652D02*
X1085892Y62525D01*
X1085521Y64006D02*
X1085652Y63730D01*
X69159Y62525D02*
X69398Y61320D01*
X69507Y61084D01*
X110535Y61069D02*
X110652Y61320D01*
X110891Y62525D01*
X231659D02*
X231898Y61320D01*
X232007Y61084D01*
X1206658Y62525D02*
X1206898Y61320D01*
X1207007Y61084D01*
X1248035Y233569D02*
X1248152Y233820D01*
X1248392Y235025D01*
X1044398Y63730D02*
X1044492Y63936D01*
X1044158Y62525D02*
X1044398Y63730D01*
X1206898D02*
X1206992Y63936D01*
X1206658Y62525D02*
X1206898Y63730D01*
X1206658Y235025D02*
X1206898Y233820D01*
X1207007Y233584D01*
X1085535Y61069D02*
X1085652Y61320D01*
X1085892Y62525D01*
X394398Y63730D02*
X394492Y63936D01*
X394159Y62525D02*
X394398Y63730D01*
X1234306Y220783D02*
X1234914Y221327D01*
X1218982Y222115D02*
X1219424Y221743D01*
X1240910Y233265D02*
X1240942Y233463D01*
X1239304Y225839D02*
X1239590Y226373D01*
X1234840Y221305D02*
X1235027Y221375D01*
X1216473Y224810D02*
X1216517Y224696D01*
X1244835Y246915D02*
X1245622D01*
X1239323D02*
X1240110D01*
X1214914Y218174D02*
X1215701D01*
X1209402D02*
X1210189D01*
X1220622Y203017D02*
Y204985D01*
X1214717D02*
X1214717Y203017D01*
X1230465Y203017D02*
Y204985D01*
X1224559Y203017D02*
Y204985D01*
X1240307Y203017D02*
Y204985D01*
X1234402Y203017D02*
Y204985D01*
X1246410Y226639D02*
X1247985D01*
X1246410Y238450D02*
X1247985D01*
X1207040Y226639D02*
X1208615D01*
X1207040Y238450D02*
X1208615D01*
X1234306Y52293D02*
X1234914Y52837D01*
X1218982Y53625D02*
X1219424Y53253D01*
X1214703Y68396D02*
X1214775Y68532D01*
X1214847Y68667D01*
X1240910Y64775D02*
X1240942Y64972D01*
X1239304Y57349D02*
X1239590Y57882D01*
X1234840Y52814D02*
X1235027Y52885D01*
X1216473Y56319D02*
X1216517Y56205D01*
X1244835Y78424D02*
X1245622Y78424D01*
X1239323Y78424D02*
X1240110D01*
X1214914Y49684D02*
X1215701D01*
X1209402D02*
X1210189D01*
X1224559Y34526D02*
Y36495D01*
X1230465Y34526D02*
Y36495D01*
X1234402Y34526D02*
Y36495D01*
X1240307Y34526D02*
Y36495D01*
X1220622Y34526D02*
Y36495D01*
X1214717D02*
X1214717Y34526D01*
X1246410Y58148D02*
X1247985D01*
X1246410Y69959D02*
X1247985D01*
X1207040Y58148D02*
X1208615D01*
X1207040Y69959D02*
X1208615D01*
X1071806Y52293D02*
X1072414Y52837D01*
X1056482Y53625D02*
X1056924Y53253D01*
X1078410Y64775D02*
X1078442Y64972D01*
X1076804Y57349D02*
X1077090Y57882D01*
X1072340Y52814D02*
X1072527Y52885D01*
X1053973Y56319D02*
X1054017Y56205D01*
X1082335Y78424D02*
X1083122Y78424D01*
X1076823Y78424D02*
X1077610D01*
X1052414Y49684D02*
X1053201D01*
X1046902D02*
X1047689D01*
X1077807Y34526D02*
Y36495D01*
X1071902Y34526D02*
Y36495D01*
X1067965Y34526D02*
Y36495D01*
X1062059Y34526D02*
Y36495D01*
X1058122Y34526D02*
Y36495D01*
X1052217Y34526D02*
Y36495D01*
X1083910Y58148D02*
X1085485D01*
X1083910Y69959D02*
X1085485D01*
X1044540Y58148D02*
X1046115D01*
X1044540Y69959D02*
X1046115D01*
X909306Y52293D02*
X909914Y52837D01*
X893982Y53625D02*
X894424Y53253D01*
X889703Y68396D02*
X889775Y68532D01*
X889847Y68667D01*
X915910Y64775D02*
X915942Y64972D01*
X914304Y57349D02*
X914590Y57882D01*
X909840Y52814D02*
X910027Y52885D01*
X891473Y56319D02*
X891517Y56205D01*
X919835Y78424D02*
X920622Y78424D01*
X914323Y78424D02*
X915111D01*
X889914Y49684D02*
X890701D01*
X884402D02*
X885189D01*
X889717Y34526D02*
Y36495D01*
X895622D02*
X895622Y34526D01*
X905465D02*
Y36495D01*
X899559Y34526D02*
Y36495D01*
X909402Y34526D02*
Y36495D01*
X915307Y34526D02*
Y36495D01*
X921410Y58148D02*
X922985D01*
X921410Y69959D02*
X922985D01*
X882040Y58148D02*
X883615D01*
X882040Y69959D02*
X883615D01*
X747934Y52293D02*
X748541Y52837D01*
X732610Y53625D02*
X733052Y53253D01*
X754537Y64775D02*
X754569Y64972D01*
X752932Y57349D02*
X753217Y57882D01*
X748468Y52814D02*
X748654Y52885D01*
X730100Y56319D02*
X730144Y56205D01*
X758462Y78424D02*
X759250Y78424D01*
X752951Y78424D02*
X753738D01*
X728541Y49684D02*
X729328D01*
X723029D02*
X723817D01*
X744092Y34526D02*
Y36495D01*
X738187Y34526D02*
Y36495D01*
X734250Y34526D02*
Y36495D01*
X728344Y34526D02*
Y36495D01*
X753935Y34526D02*
Y36495D01*
X748029Y34526D02*
Y36495D01*
X760037Y58148D02*
X761612D01*
X760037Y69959D02*
X761612D01*
X720667Y58148D02*
X722242D01*
X720667Y69959D02*
X722242D01*
X421806Y52293D02*
X422414Y52837D01*
X406482Y53625D02*
X406924Y53253D01*
X402204Y68396D02*
X402275Y68532D01*
X402347Y68667D01*
X428410Y64775D02*
X428442Y64972D01*
X426804Y57349D02*
X427090Y57883D01*
X422340Y52814D02*
X422527Y52885D01*
X403973Y56319D02*
X404017Y56205D01*
X432335Y78424D02*
X433122Y78424D01*
X426823Y78424D02*
X427610D01*
X402414Y49684D02*
X403201D01*
X396902D02*
X397689D01*
X421902Y34526D02*
Y36495D01*
X427807Y34526D02*
Y36495D01*
X408122Y34526D02*
Y36495D01*
X402217D02*
X402217Y34526D01*
X417965D02*
Y36495D01*
X412059Y34526D02*
Y36495D01*
X433910Y58148D02*
X435485D01*
X433910Y69959D02*
X435485D01*
X394540Y58148D02*
X396114D01*
X394540Y69959D02*
X396114D01*
X259306Y52293D02*
X259914Y52837D01*
X243982Y53625D02*
X244424Y53253D01*
X265910Y64775D02*
X265942Y64972D01*
X264304Y57349D02*
X264589Y57882D01*
X259840Y52814D02*
X260027Y52885D01*
X241473Y56319D02*
X241517Y56205D01*
X269835Y78424D02*
X270622Y78424D01*
X264323Y78424D02*
X265110D01*
X239914Y49684D02*
X240701D01*
X234402D02*
X235189D01*
X255465Y34526D02*
Y36495D01*
X249559Y34526D02*
Y36495D01*
X245622Y34526D02*
Y36495D01*
X239717Y34526D02*
Y36495D01*
X265307Y34526D02*
Y36495D01*
X259402Y34526D02*
Y36495D01*
X271410Y58148D02*
X272985D01*
X271410Y69959D02*
X272985D01*
X232040Y58148D02*
X233614D01*
X232040Y69959D02*
X233614D01*
X96806Y52293D02*
X97414Y52837D01*
X81482Y53625D02*
X81924Y53253D01*
X77204Y68396D02*
X77275Y68532D01*
X77347Y68667D01*
X103410Y64775D02*
X103442Y64972D01*
X101804Y57349D02*
X102090Y57882D01*
X97340Y52814D02*
X97527Y52885D01*
X78973Y56319D02*
X79017Y56205D01*
X107335Y78424D02*
X108122Y78424D01*
X101823Y78424D02*
X102611D01*
X77414Y49684D02*
X78201D01*
X71902D02*
X72689D01*
X92965Y34526D02*
Y36495D01*
X87059Y34526D02*
Y36495D01*
X83122Y34526D02*
Y36495D01*
X77217Y34526D02*
Y36495D01*
X102807Y34526D02*
Y36495D01*
X96902Y34526D02*
Y36495D01*
X108910Y58148D02*
X110485D01*
X108910Y69959D02*
X110485D01*
X69540Y58148D02*
X71114D01*
X69540Y69959D02*
X71114D01*
X748489Y52697D02*
X749061Y53076D01*
X422362Y52697D02*
X422934Y53076D01*
X556560Y11653D02*
Y17559D01*
X566403D01*
Y11653D02*
Y17559D01*
X556560Y11653D02*
X566403D01*
X394159D02*
Y17559D01*
X404001D01*
Y11653D02*
Y17559D01*
X394159Y11653D02*
X404001D01*
X425655D02*
Y17559D01*
X435497D01*
Y11653D02*
Y17559D01*
X425655Y11653D02*
X435497D01*
X69356D02*
Y17559D01*
X79198D01*
Y11653D02*
Y17559D01*
X69356Y11653D02*
X79198D01*
X263253D02*
Y17559D01*
X273096D01*
Y11653D02*
Y17559D01*
X263253Y11653D02*
X273096D01*
X231757D02*
Y17559D01*
X241600D01*
Y11653D02*
Y17559D01*
X231757Y11653D02*
X241600D01*
X100852D02*
Y17559D01*
X110694D01*
Y11653D02*
Y17559D01*
X100852Y11653D02*
X110694D01*
X1206167D02*
Y17559D01*
X1216009D01*
Y11653D02*
Y17559D01*
X1206167Y11653D02*
X1216009D01*
X881364D02*
Y17559D01*
X891206D01*
Y11653D02*
Y17559D01*
X881364Y11653D02*
X891206D01*
X1400064D02*
Y17559D01*
X1409907D01*
Y11653D02*
Y17559D01*
X1400064Y11653D02*
X1409907D01*
X1368568D02*
Y17559D01*
X1378411D01*
Y11653D02*
Y17559D01*
X1368568Y11653D02*
X1378411D01*
X1237663D02*
Y17559D01*
X1247505D01*
Y11653D02*
Y17559D01*
X1237663Y11653D02*
X1247505D01*
X1075261D02*
Y17559D01*
X1085104D01*
Y11653D02*
Y17559D01*
X1075261Y11653D02*
X1085104D01*
X718962D02*
Y17559D01*
X728804D01*
Y11653D02*
Y17559D01*
X718962Y11653D02*
X728804D01*
X912860Y17559D02*
X922702D01*
X912860Y11653D02*
Y17559D01*
Y11653D02*
X922702D01*
Y17559D01*
X750458D02*
X760301D01*
X750458Y11653D02*
Y17559D01*
Y11653D02*
X760301D01*
Y17559D01*
X588057D02*
X597899D01*
X588057Y11653D02*
Y17559D01*
Y11653D02*
X597899D01*
Y17559D01*
X30084Y341659D02*
Y345596D01*
X18273D02*
X30084D01*
X14336Y355635D02*
Y369415D01*
X1043765Y17559D02*
X1053608D01*
X1043765Y11653D02*
Y17559D01*
Y11653D02*
X1053608D01*
Y17559D01*
X18273Y341659D02*
Y345596D01*
Y341659D02*
X30084D01*
X1409710Y36147D02*
Y88903D01*
X1373490Y92053D02*
X1406560D01*
X1370340Y36147D02*
Y88903D01*
X551147Y231710D02*
X603903D01*
X547997Y195490D02*
Y228560D01*
X551147Y192340D02*
X603903D01*
X607053Y195490D02*
Y228560D01*
X762915Y175804D02*
Y248246D01*
X1038505Y175804D02*
Y248246D01*
X25Y8293D02*
Y481757D01*
X8293Y490025D02*
X1466757D01*
X1475025Y8293D02*
Y481757D01*
X8293Y25D02*
X1466757D01*
X34021Y368430D02*
X37958D01*
X34021Y356620D02*
Y368430D01*
Y356620D02*
X37958D01*
Y368430D01*
X10399Y369415D02*
X14336D01*
X10399Y355635D02*
Y369415D01*
Y355635D02*
X14336D01*
X766064Y172655D02*
X1035356D01*
X1373490Y32997D02*
X1406560D01*
X766064Y251395D02*
X1035356D01*
X1227512Y220044D02*
Y223981D01*
X1227512Y241108D02*
Y245044D01*
X1240642Y235986D02*
X1240872Y234235D01*
X1213930Y232546D02*
X1214139Y234138D01*
X1215749Y239335D02*
X1217184Y241206D01*
X1217907Y242148D02*
X1219340Y243248D01*
X1227514Y246127D02*
X1229282Y245894D01*
X1216361Y239834D02*
X1217410Y241404D01*
X1216340Y240010D02*
X1216736Y240813D01*
X1214046Y234317D02*
X1214104Y233423D01*
X1223575Y208726D02*
Y210300D01*
X1224362Y211088D02*
X1230662D01*
X1231449Y208726D02*
Y210300D01*
X1210780Y207938D02*
X1244244Y207938D01*
X1208811Y223568D02*
X1214048Y223568D01*
X1208811Y209907D02*
Y249671D01*
X1210780Y251639D02*
X1244244Y251639D01*
X1237040Y245458D02*
Y251639D01*
X1240977Y241521D02*
X1246213D01*
Y249671D02*
X1246213Y209907D01*
X1217984Y207938D02*
Y219631D01*
X1214717Y204985D02*
X1220622D01*
X1214717Y203017D02*
X1220622Y203017D01*
X1224559Y204985D02*
X1230465D01*
Y207938D01*
X1224559Y204985D02*
Y207938D01*
Y203017D02*
X1230465D01*
X1234402Y204985D02*
X1240307D01*
Y207938D01*
X1234402Y204985D02*
Y207938D01*
Y203017D02*
X1240307D01*
X1220622Y204985D02*
Y207938D01*
X1214717Y204985D02*
Y207938D01*
X1247985Y226639D02*
Y238450D01*
X1207040Y238450D02*
X1207040Y226639D01*
X1227512Y51554D02*
Y55491D01*
X1227512Y72617D02*
Y76554D01*
X1240642Y67496D02*
X1240872Y65745D01*
X1213930Y64056D02*
X1214139Y65648D01*
X1215749Y70845D02*
X1217184Y72715D01*
X1217907Y73658D02*
X1219340Y74757D01*
X1216361Y71344D02*
X1217410Y72913D01*
X1216340Y71519D02*
X1216736Y72322D01*
X1214046Y65827D02*
X1214104Y64932D01*
X1210780Y39448D02*
X1244244Y39448D01*
X1223575Y40235D02*
Y41810D01*
X1224362Y42597D02*
X1230662D01*
X1231449Y40235D02*
Y41810D01*
X1208811Y55077D02*
X1214048D01*
X1208811Y41416D02*
Y81180D01*
X1210780Y83148D02*
X1244244D01*
X1237040Y76967D02*
Y83148D01*
X1240977Y73030D02*
X1246213D01*
Y81180D02*
X1246213Y41416D01*
X1217984Y39448D02*
Y51140D01*
X1224559Y36495D02*
X1230465D01*
X1224559Y34526D02*
X1230465D01*
X1234402Y36495D02*
X1240307D01*
X1234402D02*
Y39448D01*
X1240307Y36495D02*
Y39448D01*
X1234402Y34526D02*
X1240307D01*
X1214717Y36495D02*
X1220622D01*
X1214717Y34526D02*
X1220622D01*
Y36495D02*
Y39448D01*
X1214717Y36495D02*
Y39448D01*
X1224559Y36495D02*
Y39448D01*
X1230465Y36495D02*
Y39448D01*
X1247985Y58148D02*
Y69959D01*
X1207040Y69959D02*
X1207040Y58148D01*
X1065012Y51554D02*
Y55491D01*
Y72617D02*
Y76554D01*
X1078142Y67496D02*
X1078372Y65745D01*
X1051430Y64056D02*
X1051639Y65648D01*
X1053249Y70845D02*
X1054684Y72715D01*
X1055407Y73658D02*
X1056840Y74757D01*
X1053861Y71344D02*
X1054910Y72913D01*
X1053840Y71519D02*
X1054236Y72322D01*
X1051546Y65827D02*
X1051604Y64932D01*
X1048280Y39448D02*
X1081744Y39448D01*
X1061075Y40235D02*
Y41810D01*
X1061862Y42597D02*
X1068162D01*
X1068949Y40235D02*
Y41810D01*
X1046311Y55077D02*
X1051548D01*
X1046311Y81180D02*
X1046311Y41416D01*
X1048280Y83148D02*
X1081744D01*
X1074540Y76967D02*
Y83148D01*
X1078477Y73030D02*
X1083713D01*
X1083713Y81180D02*
X1083713Y41416D01*
X1055485Y39448D02*
Y51140D01*
X1071902Y36495D02*
X1077807D01*
X1071902Y34526D02*
X1077807D01*
X1062059Y36495D02*
X1067965D01*
X1062059Y34526D02*
X1067965D01*
X1077807Y36495D02*
Y39448D01*
X1071902Y36495D02*
Y39448D01*
X1058122Y36495D02*
Y39448D01*
X1052217Y36495D02*
X1058122D01*
X1052217D02*
Y39448D01*
X1062059Y36495D02*
Y39448D01*
X1067965Y36495D02*
Y39448D01*
X1052217Y34526D02*
X1058122D01*
X1085485Y58148D02*
Y69959D01*
X1044540Y58148D02*
Y69959D01*
X902512Y51554D02*
Y55491D01*
X902512Y72617D02*
Y76554D01*
X915642Y67496D02*
X915872Y65745D01*
X888930Y64056D02*
X889139Y65648D01*
X890749Y70845D02*
X892184Y72715D01*
X892907Y73658D02*
X894340Y74757D01*
X891361Y71344D02*
X892410Y72913D01*
X891340Y71519D02*
X891736Y72322D01*
X889046Y65827D02*
X889104Y64932D01*
X898575Y40235D02*
Y41810D01*
X899362Y42597D02*
X905662D01*
X906449Y40235D02*
Y41810D01*
X885780Y39448D02*
X919244Y39448D01*
X883811Y55077D02*
X889048D01*
X883811Y81180D02*
X883811Y41416D01*
X885780Y83148D02*
X919244D01*
X912040Y76967D02*
Y83148D01*
X915977Y73030D02*
X921213D01*
Y81180D02*
X921213Y41416D01*
X892985Y39448D02*
Y51140D01*
X915307Y36495D02*
Y39448D01*
X909402Y36495D02*
X915307D01*
X909402D02*
Y39448D01*
X895622Y36495D02*
Y39448D01*
X889717Y36495D02*
X895622D01*
X889717D02*
Y39448D01*
Y34526D02*
X895622D01*
X899559Y36495D02*
X905465D01*
X899559Y34526D02*
X905465D01*
X909402Y34526D02*
X915307D01*
X905465Y36495D02*
Y39448D01*
X899559Y36495D02*
Y39448D01*
X922985Y69959D02*
X922985Y58148D01*
X882040D02*
Y69959D01*
X741140Y51554D02*
Y55491D01*
Y72617D02*
Y76554D01*
X754269Y67496D02*
X754500Y65745D01*
X727557Y64056D02*
X727767Y65648D01*
X729377Y70845D02*
X730811Y72715D01*
X731534Y73658D02*
X732967Y74757D01*
X729989Y71344D02*
X731037Y72913D01*
X729968Y71519D02*
X730364Y72322D01*
X727673Y65827D02*
X727732Y64932D01*
X724407Y39448D02*
X757872Y39448D01*
X737203Y40235D02*
Y41810D01*
X737990Y42597D02*
X744289D01*
X745077Y40235D02*
Y41810D01*
X722439Y55077D02*
X727675D01*
X722439Y81180D02*
X722439Y41416D01*
X724407Y83148D02*
X757872D01*
X750667Y76967D02*
Y83148D01*
X754604Y73030D02*
X759840D01*
Y41416D02*
Y81180D01*
X731612Y39448D02*
Y51140D01*
X744092Y36495D02*
Y39448D01*
X738187Y36495D02*
X744092D01*
X738187D02*
Y39448D01*
X734250Y36495D02*
Y39448D01*
X728344Y36495D02*
X734250D01*
X728344D02*
Y39448D01*
X738187Y34526D02*
X744092D01*
X728344D02*
X734250D01*
X748029Y36495D02*
X753935D01*
Y39448D01*
X748029Y36495D02*
Y39448D01*
Y34526D02*
X753935D01*
X761612Y58148D02*
Y69959D01*
X720667Y58148D02*
Y69959D01*
X415012Y51554D02*
Y55491D01*
X415012Y72617D02*
Y76554D01*
X428142Y67496D02*
X428372Y65745D01*
X401430Y64056D02*
X401639Y65648D01*
X403249Y70845D02*
X404684Y72715D01*
X405407Y73658D02*
X406840Y74757D01*
X415014Y77636D02*
X416782Y77404D01*
X403861Y71344D02*
X404910Y72913D01*
X403840Y71519D02*
X404236Y72322D01*
X401546Y65827D02*
X401604Y64932D01*
X398280Y39448D02*
X431744Y39448D01*
X411075Y40235D02*
Y41810D01*
X411863Y42597D02*
X418162D01*
X418949Y40235D02*
Y41810D01*
X396311Y55077D02*
X401547D01*
X396311Y41416D02*
Y81180D01*
X398280Y83148D02*
X431744D01*
X424540Y76967D02*
Y83148D01*
X428477Y73030D02*
X433713D01*
Y81180D02*
X433713Y41416D01*
X405484Y39448D02*
Y51140D01*
X427807Y36495D02*
Y39448D01*
X421902Y36495D02*
X427807D01*
X421902D02*
Y39448D01*
Y34526D02*
X427807D01*
X417965Y36495D02*
Y39448D01*
X412059Y36495D02*
X417965D01*
X412059D02*
Y39448D01*
X402217Y36495D02*
X408122D01*
Y39448D01*
X402217Y36495D02*
Y39448D01*
X402217Y34526D02*
X408122D01*
X412059D02*
X417965D01*
X435485Y58148D02*
Y69959D01*
X394540Y69959D02*
X394540Y58148D01*
X252512Y51554D02*
Y55491D01*
Y72617D02*
Y76554D01*
X265642Y67496D02*
X265872Y65745D01*
X238930Y64056D02*
X239139Y65648D01*
X240749Y70845D02*
X242184Y72715D01*
X242907Y73658D02*
X244340Y74757D01*
X241361Y71344D02*
X242410Y72913D01*
X241340Y71519D02*
X241736Y72322D01*
X239046Y65827D02*
X239104Y64932D01*
X248575Y40235D02*
Y41810D01*
X249362Y42597D02*
X255662D01*
X256449Y40235D02*
Y41810D01*
X235780Y39448D02*
X269244Y39448D01*
X233811Y55077D02*
X239048D01*
X233811Y81180D02*
X233811Y41416D01*
X235780Y83148D02*
X269244D01*
X262040Y76967D02*
Y83148D01*
X265977Y73030D02*
X271213D01*
X271213Y81180D02*
X271213Y41416D01*
X242985Y39448D02*
Y51140D01*
X265307Y36495D02*
Y39448D01*
X259402Y36495D02*
X265307D01*
X259402D02*
Y39448D01*
X249559Y36495D02*
X255465D01*
X249559Y34526D02*
X255465D01*
Y36495D02*
Y39448D01*
X249559Y36495D02*
Y39448D01*
X239717Y36495D02*
X245622D01*
X239717Y34526D02*
X245622D01*
Y36495D02*
Y39448D01*
X239717Y36495D02*
Y39448D01*
X259402Y34526D02*
X265307D01*
X272985Y58148D02*
Y69959D01*
X232040Y58148D02*
Y69959D01*
X90012Y51554D02*
Y55491D01*
Y72617D02*
Y76554D01*
X103142Y67496D02*
X103372Y65745D01*
X76430Y64056D02*
X76639Y65648D01*
X78249Y70845D02*
X79684Y72715D01*
X80407Y73658D02*
X81840Y74757D01*
X90013Y77636D02*
X91782Y77404D01*
X78861Y71344D02*
X79910Y72913D01*
X78840Y71519D02*
X79236Y72322D01*
X76546Y65827D02*
X76604Y64932D01*
X73280Y39448D02*
X106744Y39448D01*
X86075Y40235D02*
Y41810D01*
X86862Y42597D02*
X93162D01*
X93949Y40235D02*
Y41810D01*
X71311Y55077D02*
X76547D01*
X71311Y81180D02*
X71311Y41416D01*
X73280Y83148D02*
X106744D01*
X99540D02*
X99540Y76967D01*
X103477Y73030D02*
X108713D01*
Y81180D02*
X108713Y41416D01*
X80484Y39448D02*
Y51140D01*
X87059Y36495D02*
X92965D01*
X87059Y34526D02*
X92965D01*
X77217Y36495D02*
X83122D01*
X77217Y34526D02*
X83122D01*
X92965Y36495D02*
Y39448D01*
X87059Y36495D02*
Y39448D01*
X96902Y36495D02*
X102807D01*
X96902Y34526D02*
X102807D01*
X77217Y36495D02*
Y39448D01*
X83122Y36495D02*
Y39448D01*
X102807Y36495D02*
Y39448D01*
X96902Y36495D02*
Y39448D01*
X110485Y58148D02*
Y69959D01*
X69540Y58148D02*
Y69959D01*
X1219341Y221841D02*
X1220721Y220781D01*
X1234303Y220782D02*
X1236508Y222496D01*
X1219341Y53350D02*
X1220721Y52291D01*
X1234303Y52291D02*
X1236508Y54005D01*
X1056841Y53350D02*
X1058221Y52291D01*
X1071803Y52291D02*
X1074008Y54005D01*
X894341Y53350D02*
X895721Y52291D01*
X909303Y52291D02*
X911508Y54005D01*
X732968Y53350D02*
X734348Y52291D01*
X747931Y52291D02*
X750136Y54005D01*
X406841Y53350D02*
X408221Y52291D01*
X421803Y52291D02*
X424008Y54005D01*
X244341Y53350D02*
X245721Y52291D01*
X259303Y52291D02*
X261508Y54005D01*
X81841Y53350D02*
X83221Y52291D01*
X96803Y52291D02*
X99008Y54005D01*
M02*
