G04*
G04 #@! TF.GenerationSoftware,Altium Limited,Altium Designer,19.1.3 (30)*
G04*
G04 Layer_Color=32896*
%FSLAX25Y25*%
%MOIN*%
G70*
G01*
G75*
%ADD11C,0.00500*%
%ADD20C,0.00394*%
G36*
X55667Y54491D02*
X55820Y54469D01*
X55890Y54456D01*
X55956Y54443D01*
X56021Y54426D01*
X56078Y54408D01*
X56130Y54391D01*
X56174Y54373D01*
X56218Y54360D01*
X56248Y54347D01*
X56279Y54334D01*
X56296Y54325D01*
X56309Y54317D01*
X56314D01*
X56441Y54238D01*
X56550Y54150D01*
X56646Y54059D01*
X56725Y53971D01*
X56786Y53888D01*
X56808Y53858D01*
X56830Y53827D01*
X56843Y53801D01*
X56856Y53783D01*
X56860Y53770D01*
X56865Y53766D01*
X56899Y53696D01*
X56926Y53626D01*
X56974Y53486D01*
X57004Y53351D01*
X57031Y53224D01*
X57035Y53167D01*
X57044Y53115D01*
X57048Y53067D01*
Y53027D01*
X57052Y52997D01*
Y52953D01*
X57048Y52831D01*
X57035Y52713D01*
X57013Y52603D01*
X56991Y52507D01*
X56982Y52468D01*
X56974Y52429D01*
X56961Y52394D01*
X56952Y52363D01*
X56943Y52341D01*
X56939Y52324D01*
X56934Y52315D01*
Y52311D01*
X56886Y52193D01*
X56830Y52083D01*
X56768Y51978D01*
X56712Y51887D01*
X56685Y51847D01*
X56659Y51808D01*
X56637Y51777D01*
X56620Y51751D01*
X56602Y51729D01*
X56589Y51712D01*
X56585Y51703D01*
X56581Y51699D01*
X55457D01*
Y52984D01*
X55816D01*
Y52092D01*
X56384D01*
X56428Y52145D01*
X56467Y52206D01*
X56502Y52271D01*
X56532Y52333D01*
X56559Y52385D01*
X56581Y52433D01*
X56589Y52451D01*
X56594Y52459D01*
X56598Y52468D01*
Y52472D01*
X56629Y52564D01*
X56655Y52656D01*
X56672Y52739D01*
X56681Y52818D01*
X56690Y52883D01*
Y52909D01*
X56694Y52935D01*
Y52979D01*
X56690Y53088D01*
X56672Y53193D01*
X56650Y53290D01*
X56629Y53377D01*
X56602Y53447D01*
X56594Y53477D01*
X56585Y53499D01*
X56576Y53521D01*
X56567Y53534D01*
X56563Y53543D01*
Y53547D01*
X56506Y53639D01*
X56445Y53722D01*
X56379Y53792D01*
X56314Y53849D01*
X56253Y53897D01*
X56205Y53927D01*
X56187Y53941D01*
X56174Y53945D01*
X56165Y53954D01*
X56161D01*
X56052Y53997D01*
X55938Y54032D01*
X55825Y54054D01*
X55715Y54072D01*
X55667Y54076D01*
X55624Y54080D01*
X55580Y54085D01*
X55545D01*
X55519Y54089D01*
X55497D01*
X55484D01*
X55479D01*
X55357Y54085D01*
X55248Y54072D01*
X55143Y54054D01*
X55051Y54032D01*
X55012Y54024D01*
X54977Y54011D01*
X54946Y54002D01*
X54920Y53993D01*
X54898Y53984D01*
X54885Y53980D01*
X54876Y53976D01*
X54872D01*
X54811Y53945D01*
X54754Y53914D01*
X54701Y53884D01*
X54658Y53853D01*
X54623Y53827D01*
X54592Y53805D01*
X54575Y53788D01*
X54570Y53783D01*
X54522Y53735D01*
X54479Y53683D01*
X54444Y53626D01*
X54409Y53574D01*
X54387Y53530D01*
X54365Y53495D01*
X54356Y53469D01*
X54352Y53460D01*
X54321Y53381D01*
X54299Y53303D01*
X54286Y53220D01*
X54273Y53145D01*
X54269Y53080D01*
Y53053D01*
X54264Y53032D01*
Y52984D01*
X54269Y52901D01*
X54277Y52822D01*
X54291Y52752D01*
X54304Y52691D01*
X54321Y52638D01*
X54334Y52599D01*
X54343Y52577D01*
X54347Y52569D01*
X54378Y52503D01*
X54413Y52446D01*
X54448Y52394D01*
X54483Y52354D01*
X54514Y52324D01*
X54535Y52298D01*
X54553Y52284D01*
X54557Y52280D01*
X54610Y52241D01*
X54671Y52210D01*
X54728Y52179D01*
X54789Y52153D01*
X54841Y52136D01*
X54881Y52123D01*
X54898Y52118D01*
X54911Y52114D01*
X54915Y52110D01*
X54920D01*
X54824Y51747D01*
X54715Y51777D01*
X54618Y51817D01*
X54531Y51856D01*
X54461Y51891D01*
X54404Y51926D01*
X54365Y51952D01*
X54339Y51970D01*
X54330Y51978D01*
X54260Y52040D01*
X54203Y52105D01*
X54151Y52175D01*
X54107Y52241D01*
X54076Y52302D01*
X54050Y52350D01*
X54041Y52367D01*
X54037Y52381D01*
X54033Y52389D01*
Y52394D01*
X53998Y52494D01*
X53972Y52599D01*
X53950Y52695D01*
X53937Y52787D01*
X53928Y52870D01*
Y52905D01*
X53923Y52931D01*
Y53071D01*
X53932Y53150D01*
X53954Y53303D01*
X53967Y53373D01*
X53985Y53438D01*
X53998Y53499D01*
X54015Y53556D01*
X54033Y53609D01*
X54050Y53652D01*
X54068Y53692D01*
X54081Y53727D01*
X54094Y53753D01*
X54103Y53770D01*
X54107Y53783D01*
X54111Y53788D01*
X54151Y53849D01*
X54190Y53910D01*
X54282Y54015D01*
X54374Y54107D01*
X54470Y54181D01*
X54553Y54242D01*
X54588Y54264D01*
X54623Y54282D01*
X54649Y54299D01*
X54666Y54308D01*
X54680Y54312D01*
X54684Y54317D01*
X54828Y54378D01*
X54972Y54421D01*
X55112Y54456D01*
X55178Y54465D01*
X55239Y54478D01*
X55296Y54483D01*
X55344Y54491D01*
X55392Y54496D01*
X55431D01*
X55462Y54500D01*
X55484D01*
X55501D01*
X55506D01*
X55667Y54491D01*
D02*
G37*
G36*
X57000Y50729D02*
X54627D01*
X57000Y49147D01*
Y48732D01*
X53976D01*
Y49116D01*
X56353D01*
X53976Y50703D01*
Y51113D01*
X57000D01*
Y50729D01*
D02*
G37*
G36*
Y46970D02*
X56996Y46870D01*
X56991Y46778D01*
X56982Y46695D01*
X56974Y46625D01*
X56965Y46564D01*
X56961Y46520D01*
X56956Y46507D01*
X56952Y46494D01*
Y46485D01*
X56930Y46407D01*
X56904Y46337D01*
X56882Y46276D01*
X56856Y46223D01*
X56834Y46180D01*
X56817Y46149D01*
X56803Y46132D01*
X56799Y46123D01*
X56760Y46066D01*
X56712Y46018D01*
X56668Y45970D01*
X56624Y45930D01*
X56585Y45895D01*
X56554Y45869D01*
X56532Y45852D01*
X56524Y45847D01*
X56454Y45804D01*
X56379Y45760D01*
X56309Y45725D01*
X56240Y45699D01*
X56178Y45673D01*
X56130Y45655D01*
X56113Y45651D01*
X56100Y45646D01*
X56091Y45642D01*
X56087D01*
X55982Y45616D01*
X55877Y45594D01*
X55776Y45581D01*
X55680Y45568D01*
X55597Y45563D01*
X55562D01*
X55532Y45559D01*
X55510D01*
X55488D01*
X55479D01*
X55475D01*
X55326Y45563D01*
X55191Y45577D01*
X55068Y45598D01*
X55012Y45607D01*
X54964Y45620D01*
X54915Y45633D01*
X54876Y45642D01*
X54841Y45651D01*
X54811Y45664D01*
X54784Y45668D01*
X54767Y45677D01*
X54758Y45681D01*
X54754D01*
X54640Y45729D01*
X54540Y45786D01*
X54452Y45847D01*
X54378Y45904D01*
X54317Y45957D01*
X54273Y46000D01*
X54260Y46018D01*
X54247Y46031D01*
X54242Y46035D01*
X54238Y46040D01*
X54181Y46110D01*
X54138Y46184D01*
X54098Y46258D01*
X54068Y46328D01*
X54046Y46389D01*
X54033Y46437D01*
X54024Y46455D01*
Y46468D01*
X54020Y46477D01*
Y46481D01*
X54007Y46555D01*
X53993Y46643D01*
X53985Y46730D01*
X53980Y46817D01*
X53976Y46896D01*
Y48059D01*
X57000D01*
Y46970D01*
D02*
G37*
G36*
X56139Y43991D02*
X56244Y43974D01*
X56336Y43948D01*
X56419Y43917D01*
X56484Y43886D01*
X56511Y43873D01*
X56532Y43865D01*
X56550Y43851D01*
X56563Y43847D01*
X56572Y43838D01*
X56576D01*
X56659Y43773D01*
X56733Y43703D01*
X56795Y43629D01*
X56847Y43559D01*
X56886Y43497D01*
X56913Y43445D01*
X56921Y43428D01*
X56930Y43414D01*
X56934Y43406D01*
Y43401D01*
X56974Y43292D01*
X57004Y43178D01*
X57022Y43065D01*
X57039Y42956D01*
X57044Y42903D01*
X57048Y42859D01*
Y42820D01*
X57052Y42785D01*
Y42715D01*
X57048Y42597D01*
X57035Y42488D01*
X57013Y42388D01*
X56991Y42304D01*
X56974Y42235D01*
X56961Y42204D01*
X56952Y42178D01*
X56943Y42160D01*
X56939Y42147D01*
X56934Y42138D01*
Y42134D01*
X56886Y42042D01*
X56834Y41964D01*
X56777Y41894D01*
X56725Y41837D01*
X56681Y41793D01*
X56642Y41763D01*
X56615Y41741D01*
X56611Y41736D01*
X56607D01*
X56524Y41688D01*
X56445Y41653D01*
X56371Y41631D01*
X56301Y41614D01*
X56240Y41605D01*
X56191Y41596D01*
X56174D01*
X56161D01*
X56157D01*
X56152D01*
X56065Y41601D01*
X55982Y41614D01*
X55907Y41636D01*
X55846Y41658D01*
X55794Y41684D01*
X55755Y41701D01*
X55733Y41719D01*
X55724Y41723D01*
X55658Y41776D01*
X55597Y41837D01*
X55545Y41902D01*
X55497Y41968D01*
X55462Y42025D01*
X55436Y42073D01*
X55427Y42090D01*
X55418Y42103D01*
X55414Y42112D01*
Y42116D01*
X55396Y42151D01*
X55383Y42195D01*
X55366Y42243D01*
X55348Y42296D01*
X55318Y42405D01*
X55287Y42519D01*
X55274Y42571D01*
X55261Y42619D01*
X55248Y42667D01*
X55239Y42707D01*
X55230Y42737D01*
X55226Y42763D01*
X55221Y42781D01*
Y42785D01*
X55200Y42873D01*
X55182Y42951D01*
X55160Y43021D01*
X55143Y43082D01*
X55121Y43139D01*
X55103Y43187D01*
X55086Y43231D01*
X55073Y43270D01*
X55055Y43301D01*
X55042Y43327D01*
X55033Y43345D01*
X55020Y43362D01*
X55007Y43384D01*
X55003Y43388D01*
X54959Y43428D01*
X54915Y43454D01*
X54872Y43476D01*
X54828Y43489D01*
X54793Y43497D01*
X54763Y43502D01*
X54745D01*
X54736D01*
X54666Y43493D01*
X54605Y43476D01*
X54553Y43449D01*
X54505Y43419D01*
X54470Y43393D01*
X54439Y43366D01*
X54422Y43349D01*
X54417Y43340D01*
X54396Y43305D01*
X54374Y43270D01*
X54339Y43187D01*
X54317Y43100D01*
X54299Y43012D01*
X54291Y42934D01*
X54286Y42899D01*
X54282Y42873D01*
Y42811D01*
X54286Y42689D01*
X54304Y42580D01*
X54330Y42492D01*
X54356Y42418D01*
X54382Y42361D01*
X54409Y42318D01*
X54426Y42296D01*
X54430Y42287D01*
X54492Y42226D01*
X54557Y42178D01*
X54627Y42138D01*
X54697Y42112D01*
X54763Y42095D01*
X54811Y42082D01*
X54833Y42077D01*
X54846Y42073D01*
X54854D01*
X54859D01*
X54828Y41688D01*
X54732Y41697D01*
X54645Y41719D01*
X54562Y41741D01*
X54492Y41771D01*
X54435Y41798D01*
X54391Y41819D01*
X54378Y41828D01*
X54365Y41837D01*
X54361Y41841D01*
X54356D01*
X54282Y41898D01*
X54216Y41959D01*
X54159Y42025D01*
X54116Y42090D01*
X54076Y42147D01*
X54055Y42191D01*
X54046Y42208D01*
X54037Y42221D01*
X54033Y42230D01*
Y42235D01*
X53998Y42331D01*
X53972Y42436D01*
X53950Y42532D01*
X53937Y42623D01*
X53928Y42707D01*
Y42737D01*
X53923Y42768D01*
Y42825D01*
X53928Y42938D01*
X53941Y43039D01*
X53958Y43135D01*
X53976Y43218D01*
X53993Y43283D01*
X54002Y43314D01*
X54011Y43336D01*
X54020Y43353D01*
X54024Y43366D01*
X54028Y43375D01*
Y43380D01*
X54072Y43467D01*
X54120Y43545D01*
X54173Y43611D01*
X54221Y43663D01*
X54264Y43703D01*
X54299Y43733D01*
X54326Y43755D01*
X54330Y43760D01*
X54334D01*
X54409Y43803D01*
X54483Y43834D01*
X54557Y43856D01*
X54623Y43869D01*
X54680Y43878D01*
X54723Y43886D01*
X54741D01*
X54754D01*
X54758D01*
X54763D01*
X54837Y43882D01*
X54907Y43869D01*
X54972Y43851D01*
X55029Y43834D01*
X55073Y43817D01*
X55108Y43799D01*
X55130Y43786D01*
X55138Y43782D01*
X55200Y43738D01*
X55256Y43685D01*
X55304Y43633D01*
X55344Y43580D01*
X55379Y43537D01*
X55401Y43497D01*
X55418Y43471D01*
X55422Y43467D01*
Y43462D01*
X55440Y43428D01*
X55457Y43388D01*
X55488Y43301D01*
X55519Y43200D01*
X55549Y43104D01*
X55575Y43017D01*
X55584Y42977D01*
X55593Y42943D01*
X55602Y42916D01*
X55606Y42894D01*
X55610Y42881D01*
Y42877D01*
X55628Y42803D01*
X55645Y42733D01*
X55663Y42671D01*
X55676Y42619D01*
X55689Y42567D01*
X55702Y42523D01*
X55711Y42484D01*
X55724Y42453D01*
X55733Y42422D01*
X55737Y42401D01*
X55750Y42366D01*
X55755Y42344D01*
X55759Y42339D01*
X55785Y42274D01*
X55816Y42217D01*
X55846Y42169D01*
X55872Y42134D01*
X55899Y42103D01*
X55916Y42086D01*
X55929Y42073D01*
X55934Y42068D01*
X55973Y42038D01*
X56017Y42016D01*
X56060Y42003D01*
X56095Y41990D01*
X56130Y41985D01*
X56157Y41981D01*
X56178D01*
X56183D01*
X56235Y41985D01*
X56283Y41994D01*
X56327Y42007D01*
X56362Y42025D01*
X56397Y42042D01*
X56419Y42055D01*
X56436Y42064D01*
X56441Y42068D01*
X56484Y42103D01*
X56519Y42147D01*
X56550Y42191D01*
X56581Y42230D01*
X56598Y42270D01*
X56615Y42300D01*
X56624Y42322D01*
X56629Y42331D01*
X56650Y42396D01*
X56668Y42466D01*
X56677Y42536D01*
X56685Y42597D01*
X56690Y42650D01*
X56694Y42693D01*
Y42733D01*
X56690Y42829D01*
X56681Y42916D01*
X56668Y42995D01*
X56650Y43065D01*
X56633Y43122D01*
X56620Y43165D01*
X56615Y43178D01*
X56611Y43192D01*
X56607Y43196D01*
Y43200D01*
X56572Y43270D01*
X56532Y43336D01*
X56493Y43384D01*
X56454Y43428D01*
X56423Y43462D01*
X56393Y43484D01*
X56375Y43497D01*
X56371Y43502D01*
X56314Y43532D01*
X56253Y43563D01*
X56187Y43580D01*
X56130Y43598D01*
X56074Y43611D01*
X56034Y43620D01*
X56017D01*
X56004Y43624D01*
X55999D01*
X55995D01*
X56030Y44000D01*
X56139Y43991D01*
D02*
G37*
G36*
X57000Y40578D02*
X53976D01*
Y40980D01*
X57000D01*
Y40578D01*
D02*
G37*
G36*
X55667Y39966D02*
X55820Y39945D01*
X55890Y39931D01*
X55956Y39918D01*
X56021Y39901D01*
X56078Y39884D01*
X56130Y39866D01*
X56174Y39849D01*
X56218Y39835D01*
X56248Y39822D01*
X56279Y39809D01*
X56296Y39800D01*
X56309Y39792D01*
X56314D01*
X56441Y39713D01*
X56550Y39626D01*
X56646Y39534D01*
X56725Y39446D01*
X56786Y39363D01*
X56808Y39333D01*
X56830Y39302D01*
X56843Y39276D01*
X56856Y39259D01*
X56860Y39245D01*
X56865Y39241D01*
X56899Y39171D01*
X56926Y39101D01*
X56974Y38961D01*
X57004Y38826D01*
X57031Y38699D01*
X57035Y38642D01*
X57044Y38590D01*
X57048Y38542D01*
Y38502D01*
X57052Y38472D01*
Y38428D01*
X57048Y38306D01*
X57035Y38188D01*
X57013Y38079D01*
X56991Y37982D01*
X56982Y37943D01*
X56974Y37904D01*
X56961Y37869D01*
X56952Y37838D01*
X56943Y37816D01*
X56939Y37799D01*
X56934Y37790D01*
Y37786D01*
X56886Y37668D01*
X56830Y37559D01*
X56768Y37454D01*
X56712Y37362D01*
X56685Y37323D01*
X56659Y37283D01*
X56637Y37253D01*
X56620Y37227D01*
X56602Y37205D01*
X56589Y37187D01*
X56585Y37178D01*
X56581Y37174D01*
X55457D01*
Y38459D01*
X55816D01*
Y37567D01*
X56384D01*
X56428Y37620D01*
X56467Y37681D01*
X56502Y37747D01*
X56532Y37808D01*
X56559Y37860D01*
X56581Y37908D01*
X56589Y37926D01*
X56594Y37934D01*
X56598Y37943D01*
Y37948D01*
X56629Y38039D01*
X56655Y38131D01*
X56672Y38214D01*
X56681Y38293D01*
X56690Y38358D01*
Y38385D01*
X56694Y38411D01*
Y38454D01*
X56690Y38564D01*
X56672Y38669D01*
X56650Y38765D01*
X56629Y38852D01*
X56602Y38922D01*
X56594Y38953D01*
X56585Y38974D01*
X56576Y38996D01*
X56567Y39009D01*
X56563Y39018D01*
Y39023D01*
X56506Y39114D01*
X56445Y39197D01*
X56379Y39267D01*
X56314Y39324D01*
X56253Y39372D01*
X56205Y39403D01*
X56187Y39416D01*
X56174Y39420D01*
X56165Y39429D01*
X56161D01*
X56052Y39473D01*
X55938Y39508D01*
X55825Y39529D01*
X55715Y39547D01*
X55667Y39551D01*
X55624Y39556D01*
X55580Y39560D01*
X55545D01*
X55519Y39564D01*
X55497D01*
X55484D01*
X55479D01*
X55357Y39560D01*
X55248Y39547D01*
X55143Y39529D01*
X55051Y39508D01*
X55012Y39499D01*
X54977Y39486D01*
X54946Y39477D01*
X54920Y39468D01*
X54898Y39460D01*
X54885Y39455D01*
X54876Y39451D01*
X54872D01*
X54811Y39420D01*
X54754Y39390D01*
X54701Y39359D01*
X54658Y39329D01*
X54623Y39302D01*
X54592Y39280D01*
X54575Y39263D01*
X54570Y39259D01*
X54522Y39211D01*
X54479Y39158D01*
X54444Y39101D01*
X54409Y39049D01*
X54387Y39005D01*
X54365Y38970D01*
X54356Y38944D01*
X54352Y38935D01*
X54321Y38857D01*
X54299Y38778D01*
X54286Y38695D01*
X54273Y38620D01*
X54269Y38555D01*
Y38529D01*
X54264Y38507D01*
Y38459D01*
X54269Y38376D01*
X54277Y38297D01*
X54291Y38227D01*
X54304Y38166D01*
X54321Y38114D01*
X54334Y38074D01*
X54343Y38052D01*
X54347Y38044D01*
X54378Y37978D01*
X54413Y37921D01*
X54448Y37869D01*
X54483Y37830D01*
X54514Y37799D01*
X54535Y37773D01*
X54553Y37760D01*
X54557Y37755D01*
X54610Y37716D01*
X54671Y37685D01*
X54728Y37655D01*
X54789Y37628D01*
X54841Y37611D01*
X54881Y37598D01*
X54898Y37594D01*
X54911Y37589D01*
X54915Y37585D01*
X54920D01*
X54824Y37222D01*
X54715Y37253D01*
X54618Y37292D01*
X54531Y37331D01*
X54461Y37366D01*
X54404Y37401D01*
X54365Y37427D01*
X54339Y37445D01*
X54330Y37454D01*
X54260Y37515D01*
X54203Y37580D01*
X54151Y37650D01*
X54107Y37716D01*
X54076Y37777D01*
X54050Y37825D01*
X54041Y37843D01*
X54037Y37856D01*
X54033Y37865D01*
Y37869D01*
X53998Y37969D01*
X53972Y38074D01*
X53950Y38170D01*
X53937Y38262D01*
X53928Y38345D01*
Y38380D01*
X53923Y38406D01*
Y38546D01*
X53932Y38625D01*
X53954Y38778D01*
X53967Y38848D01*
X53985Y38913D01*
X53998Y38974D01*
X54015Y39031D01*
X54033Y39084D01*
X54050Y39127D01*
X54068Y39167D01*
X54081Y39202D01*
X54094Y39228D01*
X54103Y39245D01*
X54107Y39259D01*
X54111Y39263D01*
X54151Y39324D01*
X54190Y39385D01*
X54282Y39490D01*
X54374Y39582D01*
X54470Y39656D01*
X54553Y39717D01*
X54588Y39739D01*
X54623Y39757D01*
X54649Y39774D01*
X54666Y39783D01*
X54680Y39787D01*
X54684Y39792D01*
X54828Y39853D01*
X54972Y39897D01*
X55112Y39931D01*
X55178Y39940D01*
X55239Y39953D01*
X55296Y39958D01*
X55344Y39966D01*
X55392Y39971D01*
X55431D01*
X55462Y39975D01*
X55484D01*
X55501D01*
X55506D01*
X55667Y39966D01*
D02*
G37*
G36*
X56279Y34991D02*
X56344Y34978D01*
X56467Y34939D01*
X56572Y34891D01*
X56620Y34865D01*
X56659Y34838D01*
X56699Y34817D01*
X56733Y34790D01*
X56760Y34768D01*
X56782Y34747D01*
X56799Y34729D01*
X56817Y34720D01*
X56821Y34712D01*
X56825Y34707D01*
X56865Y34655D01*
X56899Y34602D01*
X56930Y34545D01*
X56956Y34489D01*
X56996Y34380D01*
X57022Y34270D01*
X57035Y34222D01*
X57039Y34174D01*
X57044Y34135D01*
X57048Y34100D01*
X57052Y34069D01*
Y34030D01*
X57048Y33938D01*
X57035Y33851D01*
X57017Y33768D01*
X56996Y33693D01*
X56965Y33623D01*
X56934Y33558D01*
X56904Y33497D01*
X56869Y33444D01*
X56834Y33396D01*
X56803Y33353D01*
X56768Y33318D01*
X56742Y33287D01*
X56720Y33265D01*
X56703Y33248D01*
X56690Y33239D01*
X56685Y33235D01*
X56629Y33191D01*
X56567Y33156D01*
X56511Y33121D01*
X56449Y33095D01*
X56331Y33051D01*
X56218Y33025D01*
X56170Y33016D01*
X56122Y33007D01*
X56082Y33003D01*
X56047Y32998D01*
X56017Y32994D01*
X55995D01*
X55982D01*
X55977D01*
X55899Y32998D01*
X55825Y33007D01*
X55750Y33020D01*
X55685Y33038D01*
X55624Y33060D01*
X55562Y33082D01*
X55510Y33108D01*
X55462Y33130D01*
X55418Y33156D01*
X55379Y33182D01*
X55348Y33204D01*
X55318Y33226D01*
X55296Y33243D01*
X55283Y33256D01*
X55274Y33265D01*
X55269Y33270D01*
X55221Y33322D01*
X55178Y33374D01*
X55143Y33431D01*
X55112Y33488D01*
X55082Y33545D01*
X55060Y33602D01*
X55029Y33707D01*
X55016Y33755D01*
X55007Y33798D01*
X55003Y33838D01*
X54998Y33873D01*
X54994Y33899D01*
Y33995D01*
X55003Y34047D01*
X55025Y34152D01*
X55055Y34248D01*
X55090Y34336D01*
X55125Y34406D01*
X55143Y34436D01*
X55156Y34462D01*
X55169Y34484D01*
X55178Y34497D01*
X55182Y34506D01*
X55186Y34511D01*
X54369Y34349D01*
Y33138D01*
X54015D01*
Y34642D01*
X55571Y34934D01*
X55619Y34585D01*
X55571Y34554D01*
X55532Y34515D01*
X55492Y34480D01*
X55462Y34445D01*
X55440Y34410D01*
X55418Y34384D01*
X55409Y34366D01*
X55405Y34362D01*
X55379Y34305D01*
X55357Y34248D01*
X55344Y34196D01*
X55331Y34143D01*
X55326Y34100D01*
X55322Y34065D01*
Y33982D01*
X55331Y33929D01*
X55352Y33838D01*
X55383Y33759D01*
X55414Y33689D01*
X55449Y33637D01*
X55479Y33597D01*
X55501Y33575D01*
X55506Y33567D01*
X55510D01*
X55584Y33505D01*
X55663Y33462D01*
X55746Y33431D01*
X55829Y33409D01*
X55899Y33396D01*
X55929Y33392D01*
X55956D01*
X55977Y33388D01*
X55995D01*
X56004D01*
X56008D01*
X56069D01*
X56126Y33396D01*
X56235Y33418D01*
X56327Y33449D01*
X56401Y33479D01*
X56463Y33514D01*
X56511Y33545D01*
X56524Y33558D01*
X56537Y33567D01*
X56541Y33571D01*
X56546Y33575D01*
X56581Y33610D01*
X56611Y33645D01*
X56664Y33724D01*
X56699Y33798D01*
X56720Y33873D01*
X56738Y33934D01*
X56742Y33986D01*
X56747Y34004D01*
Y34030D01*
X56742Y34113D01*
X56725Y34187D01*
X56703Y34253D01*
X56677Y34305D01*
X56650Y34353D01*
X56629Y34388D01*
X56611Y34406D01*
X56607Y34414D01*
X56546Y34467D01*
X56480Y34511D01*
X56406Y34545D01*
X56340Y34572D01*
X56275Y34589D01*
X56226Y34602D01*
X56205Y34607D01*
X56191Y34611D01*
X56183D01*
X56178D01*
X56209Y35000D01*
X56279Y34991D01*
D02*
G37*
G36*
X57000Y31640D02*
Y31220D01*
X53976Y30040D01*
Y30446D01*
X56174Y31268D01*
X56266Y31303D01*
X56353Y31334D01*
X56436Y31360D01*
X56511Y31382D01*
X56576Y31403D01*
X56624Y31417D01*
X56642Y31421D01*
X56655Y31425D01*
X56664Y31430D01*
X56668D01*
X56493Y31482D01*
X56410Y31508D01*
X56336Y31535D01*
X56270Y31556D01*
X56244Y31565D01*
X56218Y31569D01*
X56200Y31578D01*
X56187Y31583D01*
X56178Y31587D01*
X56174D01*
X53976Y32374D01*
Y32811D01*
X57000Y31640D01*
D02*
G37*
%LPC*%
G36*
X56642Y47657D02*
X54334D01*
Y46957D01*
X54339Y46901D01*
Y46844D01*
X54343Y46791D01*
X54356Y46704D01*
X54365Y46634D01*
X54378Y46577D01*
X54391Y46538D01*
X54396Y46516D01*
X54400Y46507D01*
X54439Y46429D01*
X54487Y46354D01*
X54544Y46289D01*
X54601Y46232D01*
X54653Y46188D01*
X54697Y46153D01*
X54715Y46145D01*
X54728Y46136D01*
X54736Y46127D01*
X54741D01*
X54789Y46101D01*
X54846Y46075D01*
X54959Y46035D01*
X55082Y46009D01*
X55200Y45987D01*
X55252Y45983D01*
X55304Y45979D01*
X55348Y45974D01*
X55388D01*
X55422Y45970D01*
X55444D01*
X55462D01*
X55466D01*
X55589Y45974D01*
X55702Y45983D01*
X55803Y45996D01*
X55890Y46009D01*
X55925Y46018D01*
X55956Y46027D01*
X55986Y46035D01*
X56008Y46040D01*
X56025Y46044D01*
X56039Y46048D01*
X56047Y46053D01*
X56052D01*
X56135Y46083D01*
X56209Y46118D01*
X56275Y46158D01*
X56331Y46193D01*
X56375Y46223D01*
X56406Y46249D01*
X56423Y46267D01*
X56432Y46271D01*
X56467Y46315D01*
X56498Y46359D01*
X56524Y46402D01*
X56550Y46446D01*
X56567Y46485D01*
X56581Y46516D01*
X56585Y46538D01*
X56589Y46547D01*
X56607Y46612D01*
X56620Y46691D01*
X56629Y46769D01*
X56633Y46844D01*
X56637Y46909D01*
X56642Y46940D01*
Y47657D01*
D02*
G37*
%LPD*%
D11*
X77157Y57000D02*
Y58999D01*
X76158D01*
X75825Y58666D01*
Y58000D01*
X76158Y57666D01*
X77157D01*
D20*
X72681Y24508D02*
X77917D01*
Y55965D01*
X59728D02*
X77917D01*
X59728Y24508D02*
Y55965D01*
Y24508D02*
X72681D01*
M02*
