G04*
G04 #@! TF.GenerationSoftware,Altium Limited,Altium Designer,19.1.3 (30)*
G04*
G04 Layer_Color=65535*
%FSLAX25Y25*%
%MOIN*%
G70*
G01*
G75*
%ADD10C,0.00787*%
%ADD11C,0.00500*%
G36*
X57000Y34280D02*
Y33860D01*
X53976Y32689D01*
Y33126D01*
X56174Y33913D01*
X56178D01*
X56187Y33917D01*
X56200Y33922D01*
X56218Y33931D01*
X56244Y33935D01*
X56270Y33944D01*
X56336Y33965D01*
X56410Y33992D01*
X56493Y34018D01*
X56668Y34070D01*
X56664D01*
X56655Y34075D01*
X56642Y34079D01*
X56624Y34083D01*
X56576Y34097D01*
X56511Y34118D01*
X56436Y34140D01*
X56353Y34166D01*
X56266Y34197D01*
X56174Y34232D01*
X53976Y35054D01*
Y35460D01*
X57000Y34280D01*
D02*
G37*
G36*
X56047Y32502D02*
X56082Y32497D01*
X56122Y32493D01*
X56170Y32484D01*
X56218Y32475D01*
X56331Y32449D01*
X56449Y32405D01*
X56511Y32379D01*
X56567Y32344D01*
X56629Y32309D01*
X56685Y32265D01*
X56690Y32261D01*
X56703Y32252D01*
X56720Y32235D01*
X56742Y32213D01*
X56768Y32182D01*
X56803Y32147D01*
X56834Y32104D01*
X56869Y32056D01*
X56904Y32003D01*
X56934Y31942D01*
X56965Y31877D01*
X56996Y31807D01*
X57017Y31732D01*
X57035Y31649D01*
X57048Y31562D01*
X57052Y31470D01*
Y31431D01*
X57048Y31400D01*
X57044Y31365D01*
X57039Y31326D01*
X57035Y31278D01*
X57022Y31230D01*
X56996Y31120D01*
X56956Y31011D01*
X56930Y30955D01*
X56899Y30898D01*
X56865Y30845D01*
X56825Y30793D01*
X56821Y30788D01*
X56817Y30780D01*
X56799Y30771D01*
X56782Y30753D01*
X56760Y30732D01*
X56733Y30710D01*
X56699Y30683D01*
X56659Y30662D01*
X56620Y30635D01*
X56572Y30609D01*
X56467Y30561D01*
X56344Y30522D01*
X56279Y30509D01*
X56209Y30500D01*
X56178Y30889D01*
X56183D01*
X56191D01*
X56205Y30893D01*
X56226Y30898D01*
X56275Y30911D01*
X56340Y30928D01*
X56406Y30955D01*
X56480Y30989D01*
X56546Y31033D01*
X56607Y31086D01*
X56611Y31094D01*
X56629Y31112D01*
X56650Y31147D01*
X56677Y31195D01*
X56703Y31247D01*
X56725Y31313D01*
X56742Y31387D01*
X56747Y31470D01*
Y31496D01*
X56742Y31514D01*
X56738Y31566D01*
X56720Y31628D01*
X56699Y31702D01*
X56664Y31776D01*
X56611Y31855D01*
X56581Y31890D01*
X56546Y31925D01*
X56541Y31929D01*
X56537Y31933D01*
X56524Y31942D01*
X56511Y31955D01*
X56463Y31986D01*
X56401Y32021D01*
X56327Y32051D01*
X56235Y32082D01*
X56126Y32104D01*
X56069Y32113D01*
X56008D01*
X56004D01*
X55995D01*
X55977D01*
X55956Y32108D01*
X55929D01*
X55899Y32104D01*
X55829Y32091D01*
X55746Y32069D01*
X55663Y32038D01*
X55584Y31995D01*
X55510Y31933D01*
X55506D01*
X55501Y31925D01*
X55479Y31903D01*
X55449Y31863D01*
X55414Y31811D01*
X55383Y31741D01*
X55352Y31662D01*
X55331Y31571D01*
X55322Y31518D01*
Y31435D01*
X55326Y31400D01*
X55331Y31356D01*
X55344Y31304D01*
X55357Y31252D01*
X55379Y31195D01*
X55405Y31138D01*
X55409Y31134D01*
X55418Y31116D01*
X55440Y31090D01*
X55462Y31055D01*
X55492Y31020D01*
X55532Y30985D01*
X55571Y30946D01*
X55619Y30915D01*
X55571Y30566D01*
X54015Y30858D01*
Y32362D01*
X54369D01*
Y31151D01*
X55186Y30989D01*
X55182Y30994D01*
X55178Y31003D01*
X55169Y31016D01*
X55156Y31038D01*
X55143Y31064D01*
X55125Y31094D01*
X55090Y31164D01*
X55055Y31252D01*
X55025Y31348D01*
X55003Y31453D01*
X54994Y31505D01*
Y31601D01*
X54998Y31628D01*
X55003Y31662D01*
X55007Y31702D01*
X55016Y31745D01*
X55029Y31793D01*
X55060Y31898D01*
X55082Y31955D01*
X55112Y32012D01*
X55143Y32069D01*
X55178Y32126D01*
X55221Y32178D01*
X55269Y32230D01*
X55274Y32235D01*
X55283Y32244D01*
X55296Y32257D01*
X55318Y32274D01*
X55348Y32296D01*
X55379Y32318D01*
X55418Y32344D01*
X55462Y32370D01*
X55510Y32392D01*
X55562Y32418D01*
X55624Y32440D01*
X55685Y32462D01*
X55750Y32480D01*
X55825Y32493D01*
X55899Y32502D01*
X55977Y32506D01*
X55982D01*
X55995D01*
X56017D01*
X56047Y32502D01*
D02*
G37*
G36*
X56585Y44322D02*
X56589Y44313D01*
X56602Y44295D01*
X56620Y44273D01*
X56637Y44247D01*
X56659Y44217D01*
X56685Y44177D01*
X56712Y44138D01*
X56768Y44046D01*
X56830Y43941D01*
X56886Y43832D01*
X56934Y43714D01*
Y43710D01*
X56939Y43701D01*
X56943Y43684D01*
X56952Y43662D01*
X56961Y43631D01*
X56974Y43596D01*
X56982Y43557D01*
X56991Y43518D01*
X57013Y43421D01*
X57035Y43312D01*
X57048Y43194D01*
X57052Y43072D01*
Y43028D01*
X57048Y42998D01*
Y42958D01*
X57044Y42910D01*
X57035Y42858D01*
X57031Y42801D01*
X57004Y42674D01*
X56974Y42539D01*
X56926Y42399D01*
X56899Y42329D01*
X56865Y42259D01*
X56860Y42255D01*
X56856Y42241D01*
X56843Y42224D01*
X56830Y42198D01*
X56808Y42167D01*
X56786Y42137D01*
X56725Y42053D01*
X56646Y41966D01*
X56550Y41874D01*
X56441Y41787D01*
X56314Y41708D01*
X56309D01*
X56296Y41700D01*
X56279Y41691D01*
X56248Y41678D01*
X56218Y41665D01*
X56174Y41651D01*
X56130Y41634D01*
X56078Y41616D01*
X56021Y41599D01*
X55956Y41582D01*
X55890Y41568D01*
X55820Y41555D01*
X55667Y41533D01*
X55506Y41525D01*
X55501D01*
X55484D01*
X55462D01*
X55431Y41529D01*
X55392D01*
X55344Y41533D01*
X55296Y41542D01*
X55239Y41547D01*
X55178Y41560D01*
X55112Y41568D01*
X54972Y41603D01*
X54828Y41647D01*
X54684Y41708D01*
X54680Y41713D01*
X54666Y41717D01*
X54649Y41726D01*
X54623Y41743D01*
X54588Y41761D01*
X54553Y41783D01*
X54470Y41844D01*
X54374Y41918D01*
X54282Y42010D01*
X54190Y42115D01*
X54151Y42176D01*
X54111Y42237D01*
X54107Y42241D01*
X54103Y42255D01*
X54094Y42272D01*
X54081Y42298D01*
X54068Y42333D01*
X54050Y42373D01*
X54033Y42416D01*
X54015Y42469D01*
X53998Y42526D01*
X53985Y42587D01*
X53967Y42652D01*
X53954Y42722D01*
X53932Y42875D01*
X53923Y42954D01*
Y43094D01*
X53928Y43120D01*
Y43155D01*
X53937Y43238D01*
X53950Y43330D01*
X53972Y43426D01*
X53998Y43531D01*
X54033Y43631D01*
Y43635D01*
X54037Y43644D01*
X54041Y43657D01*
X54050Y43675D01*
X54076Y43723D01*
X54107Y43784D01*
X54151Y43850D01*
X54203Y43920D01*
X54260Y43985D01*
X54330Y44046D01*
X54339Y44055D01*
X54365Y44072D01*
X54404Y44099D01*
X54461Y44134D01*
X54531Y44169D01*
X54618Y44208D01*
X54715Y44247D01*
X54824Y44278D01*
X54920Y43915D01*
X54915D01*
X54911Y43911D01*
X54898Y43906D01*
X54881Y43902D01*
X54841Y43889D01*
X54789Y43872D01*
X54728Y43845D01*
X54671Y43815D01*
X54610Y43784D01*
X54557Y43745D01*
X54553Y43740D01*
X54535Y43727D01*
X54514Y43701D01*
X54483Y43670D01*
X54448Y43631D01*
X54413Y43579D01*
X54378Y43522D01*
X54347Y43456D01*
X54343Y43448D01*
X54334Y43426D01*
X54321Y43386D01*
X54304Y43334D01*
X54291Y43273D01*
X54277Y43203D01*
X54269Y43124D01*
X54264Y43041D01*
Y42993D01*
X54269Y42971D01*
Y42945D01*
X54273Y42880D01*
X54286Y42805D01*
X54299Y42722D01*
X54321Y42643D01*
X54352Y42565D01*
X54356Y42556D01*
X54365Y42530D01*
X54387Y42495D01*
X54409Y42451D01*
X54444Y42399D01*
X54479Y42342D01*
X54522Y42290D01*
X54570Y42241D01*
X54575Y42237D01*
X54592Y42220D01*
X54623Y42198D01*
X54658Y42171D01*
X54701Y42141D01*
X54754Y42110D01*
X54811Y42080D01*
X54872Y42049D01*
X54876D01*
X54885Y42045D01*
X54898Y42040D01*
X54920Y42032D01*
X54946Y42023D01*
X54977Y42014D01*
X55012Y42001D01*
X55051Y41992D01*
X55143Y41971D01*
X55248Y41953D01*
X55357Y41940D01*
X55479Y41936D01*
X55484D01*
X55497D01*
X55519D01*
X55545Y41940D01*
X55580D01*
X55624Y41944D01*
X55667Y41949D01*
X55715Y41953D01*
X55825Y41971D01*
X55938Y41992D01*
X56052Y42027D01*
X56161Y42071D01*
X56165D01*
X56174Y42080D01*
X56187Y42084D01*
X56205Y42097D01*
X56253Y42128D01*
X56314Y42176D01*
X56379Y42233D01*
X56445Y42303D01*
X56506Y42386D01*
X56563Y42477D01*
Y42482D01*
X56567Y42491D01*
X56576Y42504D01*
X56585Y42526D01*
X56594Y42547D01*
X56602Y42578D01*
X56629Y42648D01*
X56650Y42735D01*
X56672Y42831D01*
X56690Y42936D01*
X56694Y43045D01*
Y43089D01*
X56690Y43115D01*
Y43142D01*
X56681Y43207D01*
X56672Y43286D01*
X56655Y43369D01*
X56629Y43461D01*
X56598Y43552D01*
Y43557D01*
X56594Y43566D01*
X56589Y43574D01*
X56581Y43592D01*
X56559Y43640D01*
X56532Y43692D01*
X56502Y43753D01*
X56467Y43819D01*
X56428Y43880D01*
X56384Y43933D01*
X55816D01*
Y43041D01*
X55457D01*
Y44326D01*
X56581D01*
X56585Y44322D01*
D02*
G37*
G36*
X57000Y40520D02*
X53976D01*
Y40922D01*
X57000D01*
Y40520D01*
D02*
G37*
G36*
X56240Y39895D02*
X56301Y39886D01*
X56371Y39869D01*
X56445Y39847D01*
X56524Y39812D01*
X56607Y39764D01*
X56611D01*
X56615Y39759D01*
X56642Y39737D01*
X56681Y39707D01*
X56725Y39663D01*
X56777Y39606D01*
X56834Y39536D01*
X56886Y39458D01*
X56934Y39366D01*
Y39362D01*
X56939Y39353D01*
X56943Y39340D01*
X56952Y39322D01*
X56961Y39296D01*
X56974Y39265D01*
X56991Y39196D01*
X57013Y39112D01*
X57035Y39012D01*
X57048Y38903D01*
X57052Y38785D01*
Y38715D01*
X57048Y38680D01*
Y38641D01*
X57044Y38597D01*
X57039Y38544D01*
X57022Y38435D01*
X57004Y38322D01*
X56974Y38208D01*
X56934Y38099D01*
Y38094D01*
X56930Y38086D01*
X56921Y38072D01*
X56913Y38055D01*
X56886Y38003D01*
X56847Y37941D01*
X56795Y37871D01*
X56733Y37797D01*
X56659Y37727D01*
X56576Y37662D01*
X56572D01*
X56563Y37653D01*
X56550Y37649D01*
X56532Y37635D01*
X56511Y37627D01*
X56484Y37614D01*
X56419Y37583D01*
X56336Y37552D01*
X56244Y37526D01*
X56139Y37509D01*
X56030Y37500D01*
X55995Y37876D01*
X55999D01*
X56004D01*
X56017Y37880D01*
X56034D01*
X56074Y37889D01*
X56130Y37902D01*
X56187Y37920D01*
X56253Y37937D01*
X56314Y37968D01*
X56371Y37998D01*
X56375Y38003D01*
X56393Y38016D01*
X56423Y38037D01*
X56454Y38072D01*
X56493Y38116D01*
X56532Y38164D01*
X56572Y38230D01*
X56607Y38300D01*
Y38304D01*
X56611Y38308D01*
X56615Y38322D01*
X56620Y38335D01*
X56633Y38378D01*
X56650Y38435D01*
X56668Y38505D01*
X56681Y38584D01*
X56690Y38671D01*
X56694Y38767D01*
Y38807D01*
X56690Y38850D01*
X56685Y38903D01*
X56677Y38964D01*
X56668Y39034D01*
X56650Y39104D01*
X56629Y39169D01*
X56624Y39178D01*
X56615Y39200D01*
X56598Y39230D01*
X56581Y39270D01*
X56550Y39309D01*
X56519Y39353D01*
X56484Y39397D01*
X56441Y39432D01*
X56436Y39436D01*
X56419Y39445D01*
X56397Y39458D01*
X56362Y39475D01*
X56327Y39493D01*
X56283Y39506D01*
X56235Y39515D01*
X56183Y39519D01*
X56178D01*
X56157D01*
X56130Y39515D01*
X56095Y39510D01*
X56060Y39497D01*
X56017Y39484D01*
X55973Y39462D01*
X55934Y39432D01*
X55929Y39427D01*
X55916Y39414D01*
X55899Y39397D01*
X55872Y39366D01*
X55846Y39331D01*
X55816Y39283D01*
X55785Y39226D01*
X55759Y39161D01*
X55755Y39156D01*
X55750Y39134D01*
X55737Y39099D01*
X55733Y39078D01*
X55724Y39047D01*
X55711Y39016D01*
X55702Y38977D01*
X55689Y38933D01*
X55676Y38881D01*
X55663Y38829D01*
X55645Y38767D01*
X55628Y38697D01*
X55610Y38623D01*
Y38619D01*
X55606Y38606D01*
X55602Y38584D01*
X55593Y38557D01*
X55584Y38523D01*
X55575Y38483D01*
X55549Y38396D01*
X55519Y38300D01*
X55488Y38199D01*
X55457Y38112D01*
X55440Y38072D01*
X55422Y38037D01*
Y38033D01*
X55418Y38029D01*
X55401Y38003D01*
X55379Y37963D01*
X55344Y37920D01*
X55304Y37867D01*
X55256Y37815D01*
X55200Y37762D01*
X55138Y37718D01*
X55130Y37714D01*
X55108Y37701D01*
X55073Y37683D01*
X55029Y37666D01*
X54972Y37649D01*
X54907Y37631D01*
X54837Y37618D01*
X54763Y37614D01*
X54758D01*
X54754D01*
X54741D01*
X54723D01*
X54680Y37622D01*
X54623Y37631D01*
X54557Y37644D01*
X54483Y37666D01*
X54409Y37697D01*
X54334Y37740D01*
X54330D01*
X54326Y37745D01*
X54299Y37767D01*
X54264Y37797D01*
X54221Y37837D01*
X54173Y37889D01*
X54120Y37955D01*
X54072Y38033D01*
X54028Y38120D01*
Y38125D01*
X54024Y38134D01*
X54020Y38147D01*
X54011Y38164D01*
X54002Y38186D01*
X53993Y38217D01*
X53976Y38282D01*
X53958Y38365D01*
X53941Y38461D01*
X53928Y38562D01*
X53923Y38675D01*
Y38732D01*
X53928Y38763D01*
Y38794D01*
X53937Y38877D01*
X53950Y38968D01*
X53972Y39064D01*
X53998Y39169D01*
X54033Y39265D01*
Y39270D01*
X54037Y39279D01*
X54046Y39292D01*
X54055Y39309D01*
X54076Y39353D01*
X54116Y39410D01*
X54159Y39475D01*
X54216Y39541D01*
X54282Y39602D01*
X54356Y39659D01*
X54361D01*
X54365Y39663D01*
X54378Y39672D01*
X54391Y39681D01*
X54435Y39702D01*
X54492Y39729D01*
X54562Y39759D01*
X54645Y39781D01*
X54732Y39803D01*
X54828Y39812D01*
X54859Y39427D01*
X54854D01*
X54846D01*
X54833Y39423D01*
X54811Y39418D01*
X54763Y39405D01*
X54697Y39388D01*
X54627Y39362D01*
X54557Y39322D01*
X54492Y39274D01*
X54430Y39213D01*
X54426Y39204D01*
X54409Y39182D01*
X54382Y39139D01*
X54356Y39082D01*
X54330Y39008D01*
X54304Y38920D01*
X54286Y38811D01*
X54282Y38689D01*
Y38627D01*
X54286Y38601D01*
X54291Y38566D01*
X54299Y38488D01*
X54317Y38400D01*
X54339Y38313D01*
X54374Y38230D01*
X54396Y38195D01*
X54417Y38160D01*
X54422Y38151D01*
X54439Y38134D01*
X54470Y38107D01*
X54505Y38081D01*
X54553Y38051D01*
X54605Y38024D01*
X54666Y38007D01*
X54736Y37998D01*
X54745D01*
X54763D01*
X54793Y38003D01*
X54828Y38011D01*
X54872Y38024D01*
X54915Y38046D01*
X54959Y38072D01*
X55003Y38112D01*
X55007Y38116D01*
X55020Y38138D01*
X55033Y38155D01*
X55042Y38173D01*
X55055Y38199D01*
X55073Y38230D01*
X55086Y38269D01*
X55103Y38313D01*
X55121Y38361D01*
X55143Y38418D01*
X55160Y38479D01*
X55182Y38549D01*
X55200Y38627D01*
X55221Y38715D01*
Y38719D01*
X55226Y38737D01*
X55230Y38763D01*
X55239Y38794D01*
X55248Y38833D01*
X55261Y38881D01*
X55274Y38929D01*
X55287Y38981D01*
X55318Y39095D01*
X55348Y39204D01*
X55366Y39257D01*
X55383Y39305D01*
X55396Y39349D01*
X55414Y39384D01*
Y39388D01*
X55418Y39397D01*
X55427Y39410D01*
X55436Y39427D01*
X55462Y39475D01*
X55497Y39532D01*
X55545Y39598D01*
X55597Y39663D01*
X55658Y39724D01*
X55724Y39777D01*
X55733Y39781D01*
X55755Y39799D01*
X55794Y39816D01*
X55846Y39842D01*
X55907Y39864D01*
X55982Y39886D01*
X56065Y39899D01*
X56152Y39904D01*
X56157D01*
X56161D01*
X56174D01*
X56191D01*
X56240Y39895D01*
D02*
G37*
G36*
X55562Y54437D02*
X55597D01*
X55680Y54432D01*
X55776Y54419D01*
X55877Y54406D01*
X55982Y54384D01*
X56087Y54358D01*
X56091D01*
X56100Y54354D01*
X56113Y54349D01*
X56130Y54345D01*
X56178Y54327D01*
X56240Y54301D01*
X56309Y54275D01*
X56379Y54240D01*
X56454Y54196D01*
X56524Y54153D01*
X56532Y54148D01*
X56554Y54131D01*
X56585Y54105D01*
X56624Y54070D01*
X56668Y54030D01*
X56712Y53982D01*
X56760Y53934D01*
X56799Y53877D01*
X56803Y53869D01*
X56817Y53851D01*
X56834Y53821D01*
X56856Y53777D01*
X56882Y53724D01*
X56904Y53663D01*
X56930Y53593D01*
X56952Y53515D01*
Y53506D01*
X56956Y53493D01*
X56961Y53480D01*
X56965Y53436D01*
X56974Y53375D01*
X56982Y53305D01*
X56991Y53222D01*
X56996Y53130D01*
X57000Y53030D01*
Y51941D01*
X53976D01*
Y53104D01*
X53980Y53183D01*
X53985Y53270D01*
X53993Y53357D01*
X54007Y53445D01*
X54020Y53519D01*
Y53523D01*
X54024Y53532D01*
Y53545D01*
X54033Y53563D01*
X54046Y53611D01*
X54068Y53672D01*
X54098Y53742D01*
X54138Y53816D01*
X54181Y53890D01*
X54238Y53960D01*
X54242Y53965D01*
X54247Y53969D01*
X54260Y53982D01*
X54273Y54000D01*
X54317Y54043D01*
X54378Y54096D01*
X54452Y54153D01*
X54540Y54214D01*
X54640Y54271D01*
X54754Y54319D01*
X54758D01*
X54767Y54323D01*
X54784Y54332D01*
X54811Y54336D01*
X54841Y54349D01*
X54876Y54358D01*
X54915Y54367D01*
X54964Y54380D01*
X55012Y54393D01*
X55068Y54402D01*
X55191Y54423D01*
X55326Y54437D01*
X55475Y54441D01*
X55479D01*
X55488D01*
X55510D01*
X55532D01*
X55562Y54437D01*
D02*
G37*
G36*
X57000Y50853D02*
X54627Y49271D01*
X57000D01*
Y48887D01*
X53976D01*
Y49297D01*
X56353Y50884D01*
X53976D01*
Y51268D01*
X57000D01*
Y50853D01*
D02*
G37*
G36*
X56585Y48297D02*
X56589Y48288D01*
X56602Y48271D01*
X56620Y48249D01*
X56637Y48223D01*
X56659Y48192D01*
X56685Y48153D01*
X56712Y48113D01*
X56768Y48022D01*
X56830Y47917D01*
X56886Y47807D01*
X56934Y47689D01*
Y47685D01*
X56939Y47676D01*
X56943Y47659D01*
X56952Y47637D01*
X56961Y47606D01*
X56974Y47571D01*
X56982Y47532D01*
X56991Y47493D01*
X57013Y47397D01*
X57035Y47287D01*
X57048Y47169D01*
X57052Y47047D01*
Y47003D01*
X57048Y46973D01*
Y46933D01*
X57044Y46885D01*
X57035Y46833D01*
X57031Y46776D01*
X57004Y46649D01*
X56974Y46514D01*
X56926Y46374D01*
X56899Y46304D01*
X56865Y46234D01*
X56860Y46230D01*
X56856Y46217D01*
X56843Y46199D01*
X56830Y46173D01*
X56808Y46142D01*
X56786Y46112D01*
X56725Y46029D01*
X56646Y45941D01*
X56550Y45850D01*
X56441Y45762D01*
X56314Y45684D01*
X56309D01*
X56296Y45675D01*
X56279Y45666D01*
X56248Y45653D01*
X56218Y45640D01*
X56174Y45627D01*
X56130Y45609D01*
X56078Y45592D01*
X56021Y45574D01*
X55956Y45557D01*
X55890Y45544D01*
X55820Y45531D01*
X55667Y45509D01*
X55506Y45500D01*
X55501D01*
X55484D01*
X55462D01*
X55431Y45504D01*
X55392D01*
X55344Y45509D01*
X55296Y45518D01*
X55239Y45522D01*
X55178Y45535D01*
X55112Y45544D01*
X54972Y45579D01*
X54828Y45622D01*
X54684Y45684D01*
X54680Y45688D01*
X54666Y45692D01*
X54649Y45701D01*
X54623Y45719D01*
X54588Y45736D01*
X54553Y45758D01*
X54470Y45819D01*
X54374Y45893D01*
X54282Y45985D01*
X54190Y46090D01*
X54151Y46151D01*
X54111Y46212D01*
X54107Y46217D01*
X54103Y46230D01*
X54094Y46247D01*
X54081Y46273D01*
X54068Y46308D01*
X54050Y46348D01*
X54033Y46391D01*
X54015Y46444D01*
X53998Y46501D01*
X53985Y46562D01*
X53967Y46628D01*
X53954Y46697D01*
X53932Y46850D01*
X53923Y46929D01*
Y47069D01*
X53928Y47095D01*
Y47130D01*
X53937Y47213D01*
X53950Y47305D01*
X53972Y47401D01*
X53998Y47506D01*
X54033Y47606D01*
Y47611D01*
X54037Y47620D01*
X54041Y47633D01*
X54050Y47650D01*
X54076Y47698D01*
X54107Y47759D01*
X54151Y47825D01*
X54203Y47895D01*
X54260Y47960D01*
X54330Y48022D01*
X54339Y48030D01*
X54365Y48048D01*
X54404Y48074D01*
X54461Y48109D01*
X54531Y48144D01*
X54618Y48183D01*
X54715Y48223D01*
X54824Y48253D01*
X54920Y47890D01*
X54915D01*
X54911Y47886D01*
X54898Y47882D01*
X54881Y47877D01*
X54841Y47864D01*
X54789Y47847D01*
X54728Y47820D01*
X54671Y47790D01*
X54610Y47759D01*
X54557Y47720D01*
X54553Y47716D01*
X54535Y47703D01*
X54514Y47676D01*
X54483Y47646D01*
X54448Y47606D01*
X54413Y47554D01*
X54378Y47497D01*
X54347Y47431D01*
X54343Y47423D01*
X54334Y47401D01*
X54321Y47362D01*
X54304Y47309D01*
X54291Y47248D01*
X54277Y47178D01*
X54269Y47099D01*
X54264Y47016D01*
Y46968D01*
X54269Y46946D01*
Y46920D01*
X54273Y46855D01*
X54286Y46780D01*
X54299Y46697D01*
X54321Y46619D01*
X54352Y46540D01*
X54356Y46531D01*
X54365Y46505D01*
X54387Y46470D01*
X54409Y46426D01*
X54444Y46374D01*
X54479Y46317D01*
X54522Y46265D01*
X54570Y46217D01*
X54575Y46212D01*
X54592Y46195D01*
X54623Y46173D01*
X54658Y46147D01*
X54701Y46116D01*
X54754Y46086D01*
X54811Y46055D01*
X54872Y46024D01*
X54876D01*
X54885Y46020D01*
X54898Y46016D01*
X54920Y46007D01*
X54946Y45998D01*
X54977Y45989D01*
X55012Y45976D01*
X55051Y45968D01*
X55143Y45946D01*
X55248Y45928D01*
X55357Y45915D01*
X55479Y45911D01*
X55484D01*
X55497D01*
X55519D01*
X55545Y45915D01*
X55580D01*
X55624Y45919D01*
X55667Y45924D01*
X55715Y45928D01*
X55825Y45946D01*
X55938Y45968D01*
X56052Y46003D01*
X56161Y46046D01*
X56165D01*
X56174Y46055D01*
X56187Y46059D01*
X56205Y46073D01*
X56253Y46103D01*
X56314Y46151D01*
X56379Y46208D01*
X56445Y46278D01*
X56506Y46361D01*
X56563Y46453D01*
Y46457D01*
X56567Y46466D01*
X56576Y46479D01*
X56585Y46501D01*
X56594Y46523D01*
X56602Y46553D01*
X56629Y46623D01*
X56650Y46711D01*
X56672Y46807D01*
X56690Y46911D01*
X56694Y47021D01*
Y47065D01*
X56690Y47091D01*
Y47117D01*
X56681Y47183D01*
X56672Y47261D01*
X56655Y47344D01*
X56629Y47436D01*
X56598Y47528D01*
Y47532D01*
X56594Y47541D01*
X56589Y47550D01*
X56581Y47567D01*
X56559Y47615D01*
X56532Y47668D01*
X56502Y47729D01*
X56467Y47794D01*
X56428Y47855D01*
X56384Y47908D01*
X55816D01*
Y47016D01*
X55457D01*
Y48301D01*
X56581D01*
X56585Y48297D01*
D02*
G37*
%LPC*%
G36*
X55466Y54030D02*
X55462D01*
X55444D01*
X55422D01*
X55388Y54026D01*
X55348D01*
X55304Y54022D01*
X55252Y54017D01*
X55200Y54013D01*
X55082Y53991D01*
X54959Y53965D01*
X54846Y53925D01*
X54789Y53899D01*
X54741Y53873D01*
X54736D01*
X54728Y53864D01*
X54715Y53855D01*
X54697Y53847D01*
X54653Y53812D01*
X54601Y53768D01*
X54544Y53711D01*
X54487Y53646D01*
X54439Y53571D01*
X54400Y53493D01*
X54396Y53484D01*
X54391Y53462D01*
X54378Y53423D01*
X54365Y53366D01*
X54356Y53296D01*
X54343Y53209D01*
X54339Y53156D01*
Y53099D01*
X54334Y53043D01*
Y52343D01*
X56642D01*
Y53060D01*
X56637Y53091D01*
X56633Y53156D01*
X56629Y53231D01*
X56620Y53309D01*
X56607Y53388D01*
X56589Y53453D01*
X56585Y53462D01*
X56581Y53484D01*
X56567Y53515D01*
X56550Y53554D01*
X56524Y53598D01*
X56498Y53641D01*
X56467Y53685D01*
X56432Y53729D01*
X56423Y53733D01*
X56406Y53751D01*
X56375Y53777D01*
X56331Y53807D01*
X56275Y53842D01*
X56209Y53882D01*
X56135Y53917D01*
X56052Y53947D01*
X56047D01*
X56039Y53952D01*
X56025Y53956D01*
X56008Y53960D01*
X55986Y53965D01*
X55956Y53973D01*
X55925Y53982D01*
X55890Y53991D01*
X55803Y54004D01*
X55702Y54017D01*
X55589Y54026D01*
X55466Y54030D01*
D02*
G37*
%LPD*%
D10*
X12803Y17000D02*
G03*
X12803Y17000I-1803J0D01*
G01*
X50000Y37500D02*
Y67000D01*
X15500D02*
X50000D01*
X15500Y14000D02*
Y67000D01*
Y14000D02*
X50000D01*
Y37500D01*
D11*
X17500Y70999D02*
X18833D01*
X18167D01*
Y69000D01*
X20499Y70999D02*
X19833D01*
X19499Y70666D01*
Y69333D01*
X19833Y69000D01*
X20499D01*
X20832Y69333D01*
Y70666D01*
X20499Y70999D01*
X22832Y70666D02*
X22498Y70999D01*
X21832D01*
X21499Y70666D01*
Y69333D01*
X21832Y69000D01*
X22498D01*
X22832Y69333D01*
Y70000D01*
X22165D01*
X24831Y70666D02*
X24498Y70999D01*
X23831D01*
X23498Y70666D01*
Y69333D01*
X23831Y69000D01*
X24498D01*
X24831Y69333D01*
Y70000D01*
X24164D01*
X25497Y70999D02*
Y69000D01*
X26830D01*
X28830Y70999D02*
X27497D01*
Y69000D01*
X28830D01*
X27497Y70000D02*
X28163D01*
M02*
