G04*
G04 #@! TF.GenerationSoftware,Altium Limited,Altium Designer,19.1.3 (30)*
G04*
G04 Layer_Color=65535*
%FSLAX25Y25*%
%MOIN*%
G70*
G01*
G75*
%ADD10C,0.00500*%
%ADD11C,0.00787*%
%ADD12C,0.00700*%
%ADD13C,0.00709*%
G36*
X26280Y29000D02*
X25861D01*
X24689Y32024D01*
X25126D01*
X25913Y29826D01*
Y29822D01*
X25917Y29813D01*
X25922Y29800D01*
X25931Y29782D01*
X25935Y29756D01*
X25944Y29730D01*
X25965Y29664D01*
X25992Y29590D01*
X26018Y29507D01*
X26070Y29332D01*
Y29337D01*
X26075Y29345D01*
X26079Y29358D01*
X26083Y29376D01*
X26096Y29424D01*
X26118Y29489D01*
X26140Y29564D01*
X26166Y29647D01*
X26197Y29734D01*
X26232Y29826D01*
X27053Y32024D01*
X27460D01*
X26280Y29000D01*
D02*
G37*
G36*
X24362Y31631D02*
X23151D01*
X22989Y30814D01*
X22994Y30818D01*
X23002Y30822D01*
X23016Y30831D01*
X23038Y30844D01*
X23064Y30857D01*
X23094Y30875D01*
X23164Y30910D01*
X23252Y30945D01*
X23348Y30975D01*
X23453Y30997D01*
X23505Y31006D01*
X23601D01*
X23628Y31001D01*
X23662Y30997D01*
X23702Y30993D01*
X23745Y30984D01*
X23794Y30971D01*
X23898Y30940D01*
X23955Y30918D01*
X24012Y30888D01*
X24069Y30857D01*
X24126Y30822D01*
X24178Y30779D01*
X24230Y30731D01*
X24235Y30726D01*
X24244Y30717D01*
X24257Y30704D01*
X24274Y30683D01*
X24296Y30652D01*
X24318Y30621D01*
X24344Y30582D01*
X24370Y30538D01*
X24392Y30490D01*
X24418Y30438D01*
X24440Y30376D01*
X24462Y30315D01*
X24480Y30250D01*
X24493Y30176D01*
X24501Y30101D01*
X24506Y30023D01*
Y30018D01*
Y30005D01*
Y29983D01*
X24501Y29953D01*
X24497Y29918D01*
X24493Y29878D01*
X24484Y29830D01*
X24475Y29782D01*
X24449Y29669D01*
X24405Y29551D01*
X24379Y29489D01*
X24344Y29433D01*
X24309Y29371D01*
X24265Y29315D01*
X24261Y29310D01*
X24252Y29297D01*
X24235Y29280D01*
X24213Y29258D01*
X24182Y29232D01*
X24148Y29197D01*
X24104Y29166D01*
X24056Y29131D01*
X24003Y29096D01*
X23942Y29066D01*
X23877Y29035D01*
X23807Y29004D01*
X23732Y28982D01*
X23649Y28965D01*
X23562Y28952D01*
X23470Y28948D01*
X23431D01*
X23400Y28952D01*
X23365Y28956D01*
X23326Y28961D01*
X23278Y28965D01*
X23230Y28978D01*
X23121Y29004D01*
X23011Y29044D01*
X22954Y29070D01*
X22898Y29100D01*
X22845Y29136D01*
X22793Y29175D01*
X22788Y29179D01*
X22780Y29184D01*
X22771Y29201D01*
X22753Y29219D01*
X22732Y29240D01*
X22710Y29267D01*
X22683Y29302D01*
X22662Y29341D01*
X22636Y29380D01*
X22609Y29428D01*
X22561Y29533D01*
X22522Y29656D01*
X22509Y29721D01*
X22500Y29791D01*
X22889Y29822D01*
Y29817D01*
Y29808D01*
X22893Y29795D01*
X22898Y29774D01*
X22911Y29725D01*
X22928Y29660D01*
X22954Y29594D01*
X22989Y29520D01*
X23033Y29454D01*
X23086Y29393D01*
X23094Y29389D01*
X23112Y29371D01*
X23147Y29350D01*
X23195Y29323D01*
X23247Y29297D01*
X23313Y29275D01*
X23387Y29258D01*
X23470Y29254D01*
X23496D01*
X23514Y29258D01*
X23566Y29262D01*
X23628Y29280D01*
X23702Y29302D01*
X23776Y29337D01*
X23855Y29389D01*
X23890Y29419D01*
X23925Y29454D01*
X23929Y29459D01*
X23933Y29463D01*
X23942Y29476D01*
X23955Y29489D01*
X23986Y29537D01*
X24021Y29599D01*
X24051Y29673D01*
X24082Y29765D01*
X24104Y29874D01*
X24113Y29931D01*
Y29992D01*
Y29996D01*
Y30005D01*
Y30023D01*
X24108Y30044D01*
Y30071D01*
X24104Y30101D01*
X24091Y30171D01*
X24069Y30254D01*
X24038Y30337D01*
X23994Y30416D01*
X23933Y30490D01*
Y30494D01*
X23925Y30499D01*
X23903Y30521D01*
X23863Y30551D01*
X23811Y30586D01*
X23741Y30617D01*
X23662Y30648D01*
X23571Y30669D01*
X23518Y30678D01*
X23435D01*
X23400Y30674D01*
X23357Y30669D01*
X23304Y30656D01*
X23252Y30643D01*
X23195Y30621D01*
X23138Y30595D01*
X23134Y30591D01*
X23116Y30582D01*
X23090Y30560D01*
X23055Y30538D01*
X23020Y30508D01*
X22985Y30468D01*
X22946Y30429D01*
X22915Y30381D01*
X22566Y30429D01*
X22858Y31985D01*
X24362D01*
Y31631D01*
D02*
G37*
G36*
X34095Y32072D02*
X34130D01*
X34213Y32063D01*
X34305Y32050D01*
X34401Y32028D01*
X34506Y32002D01*
X34606Y31967D01*
X34611D01*
X34620Y31963D01*
X34633Y31958D01*
X34650Y31950D01*
X34698Y31923D01*
X34759Y31893D01*
X34825Y31849D01*
X34895Y31797D01*
X34960Y31740D01*
X35021Y31670D01*
X35030Y31661D01*
X35048Y31635D01*
X35074Y31596D01*
X35109Y31539D01*
X35144Y31469D01*
X35183Y31382D01*
X35223Y31286D01*
X35253Y31176D01*
X34890Y31080D01*
Y31084D01*
X34886Y31089D01*
X34882Y31102D01*
X34877Y31119D01*
X34864Y31159D01*
X34847Y31211D01*
X34821Y31272D01*
X34790Y31329D01*
X34759Y31390D01*
X34720Y31443D01*
X34716Y31447D01*
X34703Y31465D01*
X34676Y31486D01*
X34646Y31517D01*
X34606Y31552D01*
X34554Y31587D01*
X34497Y31622D01*
X34431Y31653D01*
X34423Y31657D01*
X34401Y31666D01*
X34362Y31679D01*
X34309Y31696D01*
X34248Y31709D01*
X34178Y31723D01*
X34099Y31731D01*
X34016Y31736D01*
X33968D01*
X33946Y31731D01*
X33920D01*
X33855Y31727D01*
X33780Y31714D01*
X33697Y31701D01*
X33619Y31679D01*
X33540Y31648D01*
X33531Y31644D01*
X33505Y31635D01*
X33470Y31613D01*
X33426Y31591D01*
X33374Y31556D01*
X33317Y31521D01*
X33265Y31478D01*
X33217Y31430D01*
X33212Y31425D01*
X33195Y31408D01*
X33173Y31377D01*
X33147Y31342D01*
X33116Y31299D01*
X33086Y31246D01*
X33055Y31189D01*
X33024Y31128D01*
Y31124D01*
X33020Y31115D01*
X33016Y31102D01*
X33007Y31080D01*
X32998Y31054D01*
X32989Y31023D01*
X32976Y30988D01*
X32968Y30949D01*
X32946Y30857D01*
X32928Y30752D01*
X32915Y30643D01*
X32911Y30521D01*
Y30516D01*
Y30503D01*
Y30481D01*
X32915Y30455D01*
Y30420D01*
X32919Y30376D01*
X32924Y30333D01*
X32928Y30285D01*
X32946Y30176D01*
X32968Y30062D01*
X33003Y29948D01*
X33046Y29839D01*
Y29835D01*
X33055Y29826D01*
X33059Y29813D01*
X33073Y29795D01*
X33103Y29747D01*
X33151Y29686D01*
X33208Y29621D01*
X33278Y29555D01*
X33361Y29494D01*
X33453Y29437D01*
X33457D01*
X33466Y29433D01*
X33479Y29424D01*
X33501Y29415D01*
X33523Y29406D01*
X33553Y29398D01*
X33623Y29371D01*
X33711Y29350D01*
X33807Y29328D01*
X33911Y29310D01*
X34021Y29306D01*
X34064D01*
X34091Y29310D01*
X34117D01*
X34183Y29319D01*
X34261Y29328D01*
X34344Y29345D01*
X34436Y29371D01*
X34528Y29402D01*
X34532D01*
X34541Y29406D01*
X34549Y29411D01*
X34567Y29419D01*
X34615Y29441D01*
X34668Y29468D01*
X34729Y29498D01*
X34794Y29533D01*
X34855Y29572D01*
X34908Y29616D01*
Y30184D01*
X34016D01*
Y30543D01*
X35301D01*
Y29419D01*
X35297Y29415D01*
X35288Y29411D01*
X35271Y29398D01*
X35249Y29380D01*
X35223Y29363D01*
X35192Y29341D01*
X35153Y29315D01*
X35113Y29288D01*
X35021Y29232D01*
X34917Y29170D01*
X34807Y29114D01*
X34689Y29066D01*
X34685D01*
X34676Y29061D01*
X34659Y29057D01*
X34637Y29048D01*
X34606Y29039D01*
X34571Y29026D01*
X34532Y29017D01*
X34493Y29009D01*
X34397Y28987D01*
X34287Y28965D01*
X34169Y28952D01*
X34047Y28948D01*
X34003D01*
X33973Y28952D01*
X33933D01*
X33885Y28956D01*
X33833Y28965D01*
X33776Y28969D01*
X33649Y28996D01*
X33514Y29026D01*
X33374Y29074D01*
X33304Y29100D01*
X33234Y29136D01*
X33230Y29140D01*
X33217Y29144D01*
X33199Y29157D01*
X33173Y29170D01*
X33142Y29192D01*
X33112Y29214D01*
X33029Y29275D01*
X32941Y29354D01*
X32850Y29450D01*
X32762Y29559D01*
X32684Y29686D01*
Y29691D01*
X32675Y29704D01*
X32666Y29721D01*
X32653Y29752D01*
X32640Y29782D01*
X32627Y29826D01*
X32609Y29870D01*
X32592Y29922D01*
X32574Y29979D01*
X32557Y30044D01*
X32544Y30110D01*
X32531Y30180D01*
X32509Y30333D01*
X32500Y30494D01*
Y30499D01*
Y30516D01*
Y30538D01*
X32504Y30569D01*
Y30608D01*
X32509Y30656D01*
X32517Y30704D01*
X32522Y30761D01*
X32535Y30822D01*
X32544Y30888D01*
X32579Y31028D01*
X32622Y31172D01*
X32684Y31316D01*
X32688Y31321D01*
X32692Y31334D01*
X32701Y31351D01*
X32719Y31377D01*
X32736Y31412D01*
X32758Y31447D01*
X32819Y31530D01*
X32893Y31626D01*
X32985Y31718D01*
X33090Y31810D01*
X33151Y31849D01*
X33212Y31889D01*
X33217Y31893D01*
X33230Y31897D01*
X33247Y31906D01*
X33274Y31919D01*
X33308Y31932D01*
X33348Y31950D01*
X33391Y31967D01*
X33444Y31985D01*
X33501Y32002D01*
X33562Y32015D01*
X33628Y32033D01*
X33697Y32046D01*
X33850Y32068D01*
X33929Y32076D01*
X34069D01*
X34095Y32072D01*
D02*
G37*
G36*
X44219Y32020D02*
X44254D01*
X44333Y32011D01*
X44420Y32002D01*
X44512Y31985D01*
X44604Y31963D01*
X44687Y31932D01*
X44691D01*
X44696Y31928D01*
X44722Y31915D01*
X44761Y31893D01*
X44805Y31862D01*
X44857Y31823D01*
X44914Y31775D01*
X44967Y31714D01*
X45015Y31648D01*
X45019Y31640D01*
X45032Y31613D01*
X45054Y31578D01*
X45076Y31526D01*
X45098Y31465D01*
X45120Y31399D01*
X45133Y31325D01*
X45137Y31251D01*
Y31242D01*
Y31220D01*
X45133Y31181D01*
X45124Y31133D01*
X45111Y31076D01*
X45089Y31015D01*
X45063Y30953D01*
X45028Y30888D01*
X45023Y30879D01*
X45010Y30862D01*
X44984Y30827D01*
X44949Y30792D01*
X44905Y30748D01*
X44853Y30700D01*
X44787Y30656D01*
X44713Y30612D01*
X44717D01*
X44726Y30608D01*
X44739Y30604D01*
X44757Y30595D01*
X44809Y30578D01*
X44870Y30547D01*
X44936Y30508D01*
X45010Y30460D01*
X45076Y30403D01*
X45137Y30333D01*
X45141Y30324D01*
X45159Y30298D01*
X45185Y30259D01*
X45211Y30206D01*
X45237Y30136D01*
X45264Y30062D01*
X45281Y29974D01*
X45285Y29878D01*
Y29874D01*
Y29870D01*
Y29843D01*
X45281Y29800D01*
X45272Y29747D01*
X45264Y29686D01*
X45246Y29621D01*
X45224Y29551D01*
X45194Y29481D01*
X45189Y29472D01*
X45176Y29450D01*
X45159Y29419D01*
X45133Y29376D01*
X45098Y29332D01*
X45063Y29284D01*
X45019Y29236D01*
X44971Y29197D01*
X44967Y29192D01*
X44949Y29179D01*
X44918Y29162D01*
X44879Y29144D01*
X44831Y29118D01*
X44774Y29092D01*
X44713Y29070D01*
X44639Y29048D01*
X44630D01*
X44604Y29039D01*
X44560Y29035D01*
X44503Y29026D01*
X44433Y29017D01*
X44350Y29009D01*
X44259Y29004D01*
X44154Y29000D01*
X43000D01*
Y32024D01*
X44189D01*
X44219Y32020D01*
D02*
G37*
G36*
X55438D02*
X55477D01*
X55569Y32015D01*
X55665Y32002D01*
X55770Y31989D01*
X55866Y31967D01*
X55914Y31954D01*
X55953Y31941D01*
X55958D01*
X55962Y31937D01*
X55988Y31923D01*
X56028Y31906D01*
X56076Y31876D01*
X56128Y31836D01*
X56185Y31784D01*
X56237Y31723D01*
X56290Y31653D01*
Y31648D01*
X56294Y31644D01*
X56312Y31618D01*
X56329Y31574D01*
X56355Y31517D01*
X56377Y31452D01*
X56399Y31373D01*
X56412Y31290D01*
X56417Y31198D01*
Y31194D01*
Y31185D01*
Y31168D01*
X56412Y31146D01*
Y31115D01*
X56408Y31084D01*
X56390Y31010D01*
X56364Y30923D01*
X56329Y30831D01*
X56277Y30739D01*
X56242Y30696D01*
X56207Y30652D01*
X56203Y30648D01*
X56198Y30643D01*
X56185Y30630D01*
X56168Y30617D01*
X56146Y30599D01*
X56119Y30582D01*
X56085Y30560D01*
X56050Y30534D01*
X56006Y30512D01*
X55958Y30490D01*
X55905Y30464D01*
X55848Y30442D01*
X55783Y30425D01*
X55717Y30403D01*
X55643Y30390D01*
X55564Y30376D01*
X55573Y30372D01*
X55591Y30363D01*
X55617Y30346D01*
X55652Y30329D01*
X55730Y30280D01*
X55770Y30250D01*
X55805Y30224D01*
X55813Y30215D01*
X55835Y30193D01*
X55870Y30158D01*
X55914Y30114D01*
X55962Y30053D01*
X56019Y29988D01*
X56076Y29909D01*
X56137Y29822D01*
X56657Y29000D01*
X56159D01*
X55761Y29629D01*
Y29634D01*
X55752Y29642D01*
X55744Y29656D01*
X55730Y29673D01*
X55700Y29721D01*
X55661Y29782D01*
X55612Y29848D01*
X55564Y29918D01*
X55516Y29983D01*
X55473Y30044D01*
X55468Y30049D01*
X55455Y30066D01*
X55433Y30092D01*
X55403Y30123D01*
X55337Y30189D01*
X55302Y30219D01*
X55267Y30245D01*
X55263Y30250D01*
X55254Y30254D01*
X55237Y30263D01*
X55211Y30276D01*
X55184Y30289D01*
X55154Y30302D01*
X55084Y30324D01*
X55079D01*
X55071Y30329D01*
X55053D01*
X55031Y30333D01*
X55001Y30337D01*
X54966D01*
X54918Y30342D01*
X54402D01*
Y29000D01*
X54000D01*
Y32024D01*
X55403D01*
X55438Y32020D01*
D02*
G37*
G36*
X69296Y29000D02*
X68881D01*
X67299Y31373D01*
Y29000D01*
X66914D01*
Y32024D01*
X67325D01*
X68911Y29647D01*
Y32024D01*
X69296D01*
Y29000D01*
D02*
G37*
G36*
X66504Y31666D02*
X65507D01*
Y29000D01*
X65105D01*
Y31666D01*
X64109D01*
Y32024D01*
X66504D01*
Y31666D01*
D02*
G37*
G36*
X62719Y32020D02*
X62754D01*
X62833Y32011D01*
X62920Y32002D01*
X63012Y31985D01*
X63104Y31963D01*
X63187Y31932D01*
X63191D01*
X63196Y31928D01*
X63222Y31915D01*
X63261Y31893D01*
X63305Y31862D01*
X63357Y31823D01*
X63414Y31775D01*
X63467Y31714D01*
X63515Y31648D01*
X63519Y31640D01*
X63532Y31613D01*
X63554Y31578D01*
X63576Y31526D01*
X63598Y31465D01*
X63619Y31399D01*
X63633Y31325D01*
X63637Y31251D01*
Y31242D01*
Y31220D01*
X63633Y31181D01*
X63624Y31133D01*
X63611Y31076D01*
X63589Y31015D01*
X63563Y30953D01*
X63528Y30888D01*
X63523Y30879D01*
X63510Y30862D01*
X63484Y30827D01*
X63449Y30792D01*
X63405Y30748D01*
X63353Y30700D01*
X63287Y30656D01*
X63213Y30612D01*
X63217D01*
X63226Y30608D01*
X63239Y30604D01*
X63257Y30595D01*
X63309Y30578D01*
X63370Y30547D01*
X63436Y30508D01*
X63510Y30460D01*
X63576Y30403D01*
X63637Y30333D01*
X63641Y30324D01*
X63659Y30298D01*
X63685Y30259D01*
X63711Y30206D01*
X63737Y30136D01*
X63764Y30062D01*
X63781Y29974D01*
X63785Y29878D01*
Y29874D01*
Y29870D01*
Y29843D01*
X63781Y29800D01*
X63772Y29747D01*
X63764Y29686D01*
X63746Y29621D01*
X63724Y29551D01*
X63694Y29481D01*
X63689Y29472D01*
X63676Y29450D01*
X63659Y29419D01*
X63633Y29376D01*
X63598Y29332D01*
X63563Y29284D01*
X63519Y29236D01*
X63471Y29197D01*
X63467Y29192D01*
X63449Y29179D01*
X63418Y29162D01*
X63379Y29144D01*
X63331Y29118D01*
X63274Y29092D01*
X63213Y29070D01*
X63139Y29048D01*
X63130D01*
X63104Y29039D01*
X63060Y29035D01*
X63003Y29026D01*
X62933Y29017D01*
X62850Y29009D01*
X62759Y29004D01*
X62654Y29000D01*
X61500D01*
Y32024D01*
X62689D01*
X62719Y32020D01*
D02*
G37*
G36*
X73095Y32072D02*
X73130D01*
X73213Y32063D01*
X73305Y32050D01*
X73401Y32028D01*
X73506Y32002D01*
X73606Y31967D01*
X73611D01*
X73619Y31963D01*
X73633Y31958D01*
X73650Y31950D01*
X73698Y31923D01*
X73759Y31893D01*
X73825Y31849D01*
X73895Y31797D01*
X73960Y31740D01*
X74022Y31670D01*
X74030Y31661D01*
X74048Y31635D01*
X74074Y31596D01*
X74109Y31539D01*
X74144Y31469D01*
X74183Y31382D01*
X74222Y31286D01*
X74253Y31176D01*
X73890Y31080D01*
Y31084D01*
X73886Y31089D01*
X73882Y31102D01*
X73877Y31119D01*
X73864Y31159D01*
X73847Y31211D01*
X73821Y31272D01*
X73790Y31329D01*
X73759Y31390D01*
X73720Y31443D01*
X73716Y31447D01*
X73703Y31465D01*
X73676Y31486D01*
X73646Y31517D01*
X73606Y31552D01*
X73554Y31587D01*
X73497Y31622D01*
X73431Y31653D01*
X73423Y31657D01*
X73401Y31666D01*
X73362Y31679D01*
X73309Y31696D01*
X73248Y31709D01*
X73178Y31723D01*
X73099Y31731D01*
X73016Y31736D01*
X72968D01*
X72947Y31731D01*
X72920D01*
X72855Y31727D01*
X72780Y31714D01*
X72697Y31701D01*
X72619Y31679D01*
X72540Y31648D01*
X72531Y31644D01*
X72505Y31635D01*
X72470Y31613D01*
X72426Y31591D01*
X72374Y31556D01*
X72317Y31521D01*
X72265Y31478D01*
X72217Y31430D01*
X72212Y31425D01*
X72195Y31408D01*
X72173Y31377D01*
X72147Y31342D01*
X72116Y31299D01*
X72086Y31246D01*
X72055Y31189D01*
X72024Y31128D01*
Y31124D01*
X72020Y31115D01*
X72016Y31102D01*
X72007Y31080D01*
X71998Y31054D01*
X71989Y31023D01*
X71976Y30988D01*
X71968Y30949D01*
X71946Y30857D01*
X71928Y30752D01*
X71915Y30643D01*
X71911Y30521D01*
Y30516D01*
Y30503D01*
Y30481D01*
X71915Y30455D01*
Y30420D01*
X71920Y30376D01*
X71924Y30333D01*
X71928Y30285D01*
X71946Y30176D01*
X71968Y30062D01*
X72003Y29948D01*
X72046Y29839D01*
Y29835D01*
X72055Y29826D01*
X72059Y29813D01*
X72072Y29795D01*
X72103Y29747D01*
X72151Y29686D01*
X72208Y29621D01*
X72278Y29555D01*
X72361Y29494D01*
X72453Y29437D01*
X72457D01*
X72466Y29433D01*
X72479Y29424D01*
X72501Y29415D01*
X72523Y29406D01*
X72553Y29398D01*
X72623Y29371D01*
X72711Y29350D01*
X72807Y29328D01*
X72912Y29310D01*
X73021Y29306D01*
X73065D01*
X73091Y29310D01*
X73117D01*
X73182Y29319D01*
X73261Y29328D01*
X73344Y29345D01*
X73436Y29371D01*
X73528Y29402D01*
X73532D01*
X73541Y29406D01*
X73549Y29411D01*
X73567Y29419D01*
X73615Y29441D01*
X73668Y29468D01*
X73729Y29498D01*
X73794Y29533D01*
X73855Y29572D01*
X73908Y29616D01*
Y30184D01*
X73016D01*
Y30543D01*
X74301D01*
Y29419D01*
X74297Y29415D01*
X74288Y29411D01*
X74271Y29398D01*
X74249Y29380D01*
X74222Y29363D01*
X74192Y29341D01*
X74153Y29315D01*
X74113Y29288D01*
X74022Y29232D01*
X73917Y29170D01*
X73807Y29114D01*
X73689Y29066D01*
X73685D01*
X73676Y29061D01*
X73659Y29057D01*
X73637Y29048D01*
X73606Y29039D01*
X73571Y29026D01*
X73532Y29017D01*
X73493Y29009D01*
X73397Y28987D01*
X73287Y28965D01*
X73169Y28952D01*
X73047Y28948D01*
X73003D01*
X72973Y28952D01*
X72933D01*
X72885Y28956D01*
X72833Y28965D01*
X72776Y28969D01*
X72649Y28996D01*
X72514Y29026D01*
X72374Y29074D01*
X72304Y29100D01*
X72234Y29136D01*
X72230Y29140D01*
X72217Y29144D01*
X72199Y29157D01*
X72173Y29170D01*
X72142Y29192D01*
X72112Y29214D01*
X72029Y29275D01*
X71941Y29354D01*
X71850Y29450D01*
X71762Y29559D01*
X71684Y29686D01*
Y29691D01*
X71675Y29704D01*
X71666Y29721D01*
X71653Y29752D01*
X71640Y29782D01*
X71627Y29826D01*
X71609Y29870D01*
X71592Y29922D01*
X71574Y29979D01*
X71557Y30044D01*
X71544Y30110D01*
X71531Y30180D01*
X71509Y30333D01*
X71500Y30494D01*
Y30499D01*
Y30516D01*
Y30538D01*
X71504Y30569D01*
Y30608D01*
X71509Y30656D01*
X71517Y30704D01*
X71522Y30761D01*
X71535Y30822D01*
X71544Y30888D01*
X71579Y31028D01*
X71622Y31172D01*
X71684Y31316D01*
X71688Y31321D01*
X71692Y31334D01*
X71701Y31351D01*
X71719Y31377D01*
X71736Y31412D01*
X71758Y31447D01*
X71819Y31530D01*
X71893Y31626D01*
X71985Y31718D01*
X72090Y31810D01*
X72151Y31849D01*
X72212Y31889D01*
X72217Y31893D01*
X72230Y31897D01*
X72247Y31906D01*
X72273Y31919D01*
X72308Y31932D01*
X72348Y31950D01*
X72391Y31967D01*
X72444Y31985D01*
X72501Y32002D01*
X72562Y32015D01*
X72628Y32033D01*
X72697Y32046D01*
X72850Y32068D01*
X72929Y32076D01*
X73069D01*
X73095Y32072D01*
D02*
G37*
G36*
X77268Y29000D02*
X76853D01*
X75271Y31373D01*
Y29000D01*
X74887D01*
Y32024D01*
X75297D01*
X76884Y29647D01*
Y32024D01*
X77268D01*
Y29000D01*
D02*
G37*
G36*
X79182Y32020D02*
X79270Y32015D01*
X79357Y32007D01*
X79445Y31993D01*
X79519Y31980D01*
X79523D01*
X79532Y31976D01*
X79545D01*
X79563Y31967D01*
X79611Y31954D01*
X79672Y31932D01*
X79742Y31902D01*
X79816Y31862D01*
X79890Y31819D01*
X79960Y31762D01*
X79965Y31758D01*
X79969Y31753D01*
X79982Y31740D01*
X80000Y31727D01*
X80043Y31683D01*
X80096Y31622D01*
X80153Y31548D01*
X80214Y31460D01*
X80271Y31360D01*
X80319Y31246D01*
Y31242D01*
X80323Y31233D01*
X80332Y31216D01*
X80336Y31189D01*
X80349Y31159D01*
X80358Y31124D01*
X80367Y31084D01*
X80380Y31036D01*
X80393Y30988D01*
X80402Y30931D01*
X80423Y30809D01*
X80437Y30674D01*
X80441Y30525D01*
Y30521D01*
Y30512D01*
Y30490D01*
Y30468D01*
X80437Y30438D01*
Y30403D01*
X80432Y30320D01*
X80419Y30224D01*
X80406Y30123D01*
X80384Y30018D01*
X80358Y29913D01*
Y29909D01*
X80354Y29900D01*
X80349Y29887D01*
X80345Y29870D01*
X80327Y29822D01*
X80301Y29760D01*
X80275Y29691D01*
X80240Y29621D01*
X80196Y29546D01*
X80153Y29476D01*
X80148Y29468D01*
X80131Y29446D01*
X80105Y29415D01*
X80070Y29376D01*
X80030Y29332D01*
X79982Y29288D01*
X79934Y29240D01*
X79877Y29201D01*
X79869Y29197D01*
X79851Y29184D01*
X79821Y29166D01*
X79777Y29144D01*
X79724Y29118D01*
X79663Y29096D01*
X79593Y29070D01*
X79515Y29048D01*
X79506D01*
X79493Y29044D01*
X79480Y29039D01*
X79436Y29035D01*
X79375Y29026D01*
X79305Y29017D01*
X79222Y29009D01*
X79130Y29004D01*
X79030Y29000D01*
X77941D01*
Y32024D01*
X79104D01*
X79182Y32020D01*
D02*
G37*
%LPC*%
G36*
X44119Y31666D02*
X43402D01*
Y30757D01*
X44145D01*
X44202Y30761D01*
X44263Y30766D01*
X44324Y30770D01*
X44385Y30779D01*
X44433Y30787D01*
X44442Y30792D01*
X44460Y30796D01*
X44486Y30809D01*
X44521Y30827D01*
X44556Y30844D01*
X44595Y30870D01*
X44634Y30905D01*
X44665Y30940D01*
X44669Y30945D01*
X44678Y30958D01*
X44691Y30984D01*
X44704Y31015D01*
X44717Y31049D01*
X44730Y31093D01*
X44739Y31146D01*
X44744Y31203D01*
Y31211D01*
Y31229D01*
X44739Y31255D01*
X44735Y31290D01*
X44726Y31334D01*
X44713Y31377D01*
X44696Y31421D01*
X44669Y31465D01*
X44665Y31469D01*
X44656Y31482D01*
X44639Y31504D01*
X44617Y31526D01*
X44586Y31552D01*
X44551Y31578D01*
X44508Y31604D01*
X44460Y31622D01*
X44455D01*
X44433Y31631D01*
X44403Y31635D01*
X44355Y31644D01*
X44289Y31653D01*
X44215Y31657D01*
X44119Y31666D01*
D02*
G37*
G36*
X44197Y30398D02*
X43402D01*
Y29358D01*
X44263D01*
X44355Y29363D01*
X44394Y29367D01*
X44429Y29371D01*
X44433D01*
X44451Y29376D01*
X44477Y29380D01*
X44508Y29389D01*
X44582Y29415D01*
X44656Y29450D01*
X44661Y29454D01*
X44674Y29463D01*
X44691Y29476D01*
X44713Y29494D01*
X44735Y29520D01*
X44765Y29546D01*
X44787Y29581D01*
X44813Y29621D01*
X44818Y29625D01*
X44822Y29638D01*
X44831Y29664D01*
X44844Y29695D01*
X44857Y29730D01*
X44866Y29774D01*
X44870Y29826D01*
X44875Y29878D01*
Y29887D01*
Y29905D01*
X44870Y29940D01*
X44862Y29979D01*
X44853Y30023D01*
X44835Y30071D01*
X44813Y30119D01*
X44783Y30167D01*
X44779Y30171D01*
X44765Y30189D01*
X44748Y30211D01*
X44722Y30237D01*
X44687Y30267D01*
X44643Y30298D01*
X44595Y30324D01*
X44538Y30346D01*
X44530Y30350D01*
X44512Y30355D01*
X44473Y30363D01*
X44425Y30372D01*
X44363Y30381D01*
X44289Y30390D01*
X44197Y30398D01*
D02*
G37*
G36*
X55355Y31688D02*
X54402D01*
Y30687D01*
X55302D01*
X55355Y30691D01*
X55416Y30696D01*
X55486Y30700D01*
X55556Y30709D01*
X55626Y30722D01*
X55687Y30739D01*
X55696Y30744D01*
X55713Y30752D01*
X55739Y30766D01*
X55774Y30783D01*
X55813Y30809D01*
X55853Y30840D01*
X55892Y30879D01*
X55923Y30923D01*
X55927Y30927D01*
X55936Y30945D01*
X55949Y30971D01*
X55967Y31006D01*
X55980Y31045D01*
X55993Y31089D01*
X56002Y31141D01*
X56006Y31194D01*
Y31198D01*
Y31203D01*
X56002Y31229D01*
X55997Y31268D01*
X55988Y31321D01*
X55967Y31373D01*
X55940Y31434D01*
X55901Y31491D01*
X55848Y31548D01*
X55840Y31552D01*
X55818Y31570D01*
X55783Y31591D01*
X55726Y31618D01*
X55661Y31644D01*
X55573Y31666D01*
X55473Y31683D01*
X55355Y31688D01*
D02*
G37*
G36*
X62619Y31666D02*
X61902D01*
Y30757D01*
X62645D01*
X62702Y30761D01*
X62763Y30766D01*
X62824Y30770D01*
X62885Y30779D01*
X62933Y30787D01*
X62942Y30792D01*
X62960Y30796D01*
X62986Y30809D01*
X63021Y30827D01*
X63056Y30844D01*
X63095Y30870D01*
X63134Y30905D01*
X63165Y30940D01*
X63169Y30945D01*
X63178Y30958D01*
X63191Y30984D01*
X63204Y31015D01*
X63217Y31049D01*
X63231Y31093D01*
X63239Y31146D01*
X63244Y31203D01*
Y31211D01*
Y31229D01*
X63239Y31255D01*
X63235Y31290D01*
X63226Y31334D01*
X63213Y31377D01*
X63196Y31421D01*
X63169Y31465D01*
X63165Y31469D01*
X63156Y31482D01*
X63139Y31504D01*
X63117Y31526D01*
X63086Y31552D01*
X63051Y31578D01*
X63008Y31604D01*
X62960Y31622D01*
X62955D01*
X62933Y31631D01*
X62903Y31635D01*
X62855Y31644D01*
X62789Y31653D01*
X62715Y31657D01*
X62619Y31666D01*
D02*
G37*
G36*
X62697Y30398D02*
X61902D01*
Y29358D01*
X62763D01*
X62855Y29363D01*
X62894Y29367D01*
X62929Y29371D01*
X62933D01*
X62951Y29376D01*
X62977Y29380D01*
X63008Y29389D01*
X63082Y29415D01*
X63156Y29450D01*
X63161Y29454D01*
X63174Y29463D01*
X63191Y29476D01*
X63213Y29494D01*
X63235Y29520D01*
X63266Y29546D01*
X63287Y29581D01*
X63314Y29621D01*
X63318Y29625D01*
X63322Y29638D01*
X63331Y29664D01*
X63344Y29695D01*
X63357Y29730D01*
X63366Y29774D01*
X63370Y29826D01*
X63375Y29878D01*
Y29887D01*
Y29905D01*
X63370Y29940D01*
X63362Y29979D01*
X63353Y30023D01*
X63335Y30071D01*
X63314Y30119D01*
X63283Y30167D01*
X63279Y30171D01*
X63266Y30189D01*
X63248Y30211D01*
X63222Y30237D01*
X63187Y30267D01*
X63143Y30298D01*
X63095Y30324D01*
X63038Y30346D01*
X63029Y30350D01*
X63012Y30355D01*
X62973Y30363D01*
X62925Y30372D01*
X62863Y30381D01*
X62789Y30390D01*
X62697Y30398D01*
D02*
G37*
G36*
X79043Y31666D02*
X78343D01*
Y29358D01*
X79060D01*
X79091Y29363D01*
X79156Y29367D01*
X79230Y29371D01*
X79309Y29380D01*
X79388Y29393D01*
X79453Y29411D01*
X79462Y29415D01*
X79484Y29419D01*
X79515Y29433D01*
X79554Y29450D01*
X79598Y29476D01*
X79641Y29503D01*
X79685Y29533D01*
X79729Y29568D01*
X79733Y29577D01*
X79751Y29594D01*
X79777Y29625D01*
X79807Y29669D01*
X79842Y29725D01*
X79882Y29791D01*
X79917Y29865D01*
X79947Y29948D01*
Y29953D01*
X79952Y29961D01*
X79956Y29974D01*
X79960Y29992D01*
X79965Y30014D01*
X79973Y30044D01*
X79982Y30075D01*
X79991Y30110D01*
X80004Y30197D01*
X80017Y30298D01*
X80026Y30411D01*
X80030Y30534D01*
Y30538D01*
Y30556D01*
Y30578D01*
X80026Y30612D01*
Y30652D01*
X80022Y30696D01*
X80017Y30748D01*
X80013Y30800D01*
X79991Y30918D01*
X79965Y31041D01*
X79925Y31154D01*
X79899Y31211D01*
X79873Y31259D01*
Y31264D01*
X79864Y31272D01*
X79855Y31286D01*
X79847Y31303D01*
X79812Y31347D01*
X79768Y31399D01*
X79711Y31456D01*
X79646Y31513D01*
X79571Y31561D01*
X79493Y31600D01*
X79484Y31604D01*
X79462Y31609D01*
X79423Y31622D01*
X79366Y31635D01*
X79296Y31644D01*
X79209Y31657D01*
X79156Y31661D01*
X79099D01*
X79043Y31666D01*
D02*
G37*
%LPD*%
D10*
X27453Y38000D02*
G03*
X27453Y38000I-2953J0D01*
G01*
X77453D02*
G03*
X77453Y38000I-2953J0D01*
G01*
X27453Y88000D02*
G03*
X27453Y88000I-2953J0D01*
G01*
X77453D02*
G03*
X77453Y88000I-2953J0D01*
G01*
X19972Y33472D02*
Y92528D01*
X79028Y33472D02*
Y92528D01*
X19972Y33472D02*
X79028D01*
X19972Y92528D02*
X79028D01*
X11400Y78300D02*
Y80299D01*
X12400D01*
X12733Y79966D01*
Y79300D01*
X12400Y78966D01*
X11400D01*
X12066D02*
X12733Y78300D01*
X13399D02*
X14066D01*
X13733D01*
Y80299D01*
X13399Y79966D01*
X15300Y25500D02*
Y27499D01*
X16300D01*
X16633Y27166D01*
Y26500D01*
X16300Y26166D01*
X15300D01*
X82733Y79566D02*
X82400Y79899D01*
X81733D01*
X81400Y79566D01*
Y78233D01*
X81733Y77900D01*
X82400D01*
X82733Y78233D01*
X83399Y77900D02*
X84066D01*
X83733D01*
Y79899D01*
X83399Y79566D01*
X20200Y97299D02*
Y95300D01*
X21200D01*
X21533Y95633D01*
Y95966D01*
X21200Y96300D01*
X20200D01*
X21200D01*
X21533Y96633D01*
Y96966D01*
X21200Y97299D01*
X20200D01*
X22199D02*
X23532D01*
X22866D01*
Y95300D01*
X24199D02*
Y97299D01*
X25532Y95300D01*
Y97299D01*
D11*
X19500Y1772D02*
X79500D01*
X19500Y27559D02*
X79500D01*
X19500Y1772D02*
Y27559D01*
X79500Y1772D02*
Y27559D01*
D12*
X11273Y72900D02*
Y75498D01*
X16720D01*
Y72900D02*
Y75498D01*
Y63502D02*
Y66100D01*
X11273Y63502D02*
X16720D01*
X11273D02*
Y66100D01*
D13*
X85614Y68685D02*
Y69315D01*
X82386Y68685D02*
Y69315D01*
M02*
