G04*
G04 #@! TF.GenerationSoftware,Altium Limited,Altium Designer,19.1.3 (30)*
G04*
G04 Layer_Physical_Order=2*
G04 Layer_Color=16711680*
%FSLAX25Y25*%
%MOIN*%
G70*
G01*
G75*
%ADD24C,0.01968*%
%ADD25C,0.05906*%
%ADD26R,0.05906X0.05906*%
%ADD27C,0.11811*%
%ADD28C,0.05118*%
%ADD29C,0.07874*%
G36*
X97622Y1303D02*
X92989D01*
X92915Y1803D01*
X93049Y1843D01*
X94178Y2447D01*
X95167Y3258D01*
X95979Y4248D01*
X96582Y5376D01*
X96953Y6601D01*
X97079Y7874D01*
X96953Y9148D01*
X96582Y10372D01*
X95979Y11501D01*
X95167Y12490D01*
X94178Y13301D01*
X93049Y13905D01*
X91825Y14276D01*
X90551Y14401D01*
X89278Y14276D01*
X88053Y13905D01*
X86925Y13301D01*
X85936Y12490D01*
X85124Y11501D01*
X84521Y10372D01*
X84149Y9148D01*
X84024Y7874D01*
X84149Y6601D01*
X84521Y5376D01*
X85124Y4248D01*
X85936Y3258D01*
X86925Y2447D01*
X88053Y1843D01*
X88187Y1803D01*
X88113Y1303D01*
X10312D01*
X10238Y1803D01*
X10372Y1843D01*
X11501Y2447D01*
X12490Y3258D01*
X13301Y4248D01*
X13905Y5376D01*
X14276Y6601D01*
X14401Y7874D01*
X14276Y9148D01*
X13905Y10372D01*
X13301Y11501D01*
X12490Y12490D01*
X11501Y13301D01*
X10372Y13905D01*
X9148Y14276D01*
X7874Y14401D01*
X6601Y14276D01*
X5376Y13905D01*
X4248Y13301D01*
X3258Y12490D01*
X2447Y11501D01*
X1843Y10372D01*
X1472Y9148D01*
X1347Y7874D01*
X1472Y6601D01*
X1843Y5376D01*
X2447Y4248D01*
X3258Y3258D01*
X4248Y2447D01*
X5376Y1843D01*
X5510Y1803D01*
X5436Y1303D01*
X803D01*
Y98122D01*
X97622D01*
Y1303D01*
D02*
G37*
%LPC*%
G36*
X90551Y97079D02*
X89278Y96953D01*
X88053Y96582D01*
X86925Y95979D01*
X85936Y95167D01*
X85124Y94178D01*
X84521Y93049D01*
X84149Y91825D01*
X84024Y90551D01*
X84149Y89278D01*
X84521Y88053D01*
X85124Y86925D01*
X85936Y85936D01*
X86925Y85124D01*
X88053Y84521D01*
X89278Y84149D01*
X90551Y84024D01*
X91825Y84149D01*
X93049Y84521D01*
X94178Y85124D01*
X95167Y85936D01*
X95979Y86925D01*
X96582Y88053D01*
X96953Y89278D01*
X97079Y90551D01*
X96953Y91825D01*
X96582Y93049D01*
X95979Y94178D01*
X95167Y95167D01*
X94178Y95979D01*
X93049Y96582D01*
X91825Y96953D01*
X90551Y97079D01*
D02*
G37*
G36*
X7874D02*
X6601Y96953D01*
X5376Y96582D01*
X4248Y95979D01*
X3258Y95167D01*
X2447Y94178D01*
X1843Y93049D01*
X1472Y91825D01*
X1347Y90551D01*
X1472Y89278D01*
X1843Y88053D01*
X2447Y86925D01*
X3258Y85936D01*
X4248Y85124D01*
X5376Y84521D01*
X6601Y84149D01*
X7874Y84024D01*
X9148Y84149D01*
X10372Y84521D01*
X11501Y85124D01*
X12490Y85936D01*
X13301Y86925D01*
X13905Y88053D01*
X14276Y89278D01*
X14401Y90551D01*
X14276Y91825D01*
X13905Y93049D01*
X13301Y94178D01*
X12490Y95167D01*
X11501Y95979D01*
X10372Y96582D01*
X9148Y96953D01*
X7874Y97079D01*
D02*
G37*
G36*
X74500Y92567D02*
X73318Y92411D01*
X72217Y91955D01*
X71271Y91229D01*
X70545Y90283D01*
X70089Y89182D01*
X69933Y88000D01*
X70089Y86818D01*
X70545Y85717D01*
X71271Y84771D01*
X72217Y84045D01*
X73318Y83589D01*
X74500Y83433D01*
X75682Y83589D01*
X76783Y84045D01*
X77729Y84771D01*
X78455Y85717D01*
X78911Y86818D01*
X79067Y88000D01*
X78911Y89182D01*
X78455Y90283D01*
X77729Y91229D01*
X76783Y91955D01*
X75682Y92411D01*
X74500Y92567D01*
D02*
G37*
G36*
X24000D02*
X22818Y92411D01*
X21717Y91955D01*
X20771Y91229D01*
X20045Y90283D01*
X19589Y89182D01*
X19433Y88000D01*
X19589Y86818D01*
X20045Y85717D01*
X20771Y84771D01*
X21717Y84045D01*
X22818Y83589D01*
X24000Y83433D01*
X25182Y83589D01*
X26283Y84045D01*
X27229Y84771D01*
X27955Y85717D01*
X28411Y86818D01*
X28567Y88000D01*
X28411Y89182D01*
X27955Y90283D01*
X27229Y91229D01*
X26283Y91955D01*
X25182Y92411D01*
X24000Y92567D01*
D02*
G37*
G36*
X34500Y83894D02*
X33678Y83785D01*
X32912Y83468D01*
X32254Y82963D01*
X31749Y82305D01*
X31431Y81539D01*
X31323Y80717D01*
X31431Y79895D01*
X31749Y79129D01*
X32254Y78471D01*
X32912Y77966D01*
X33678Y77649D01*
X34500Y77540D01*
X35322Y77649D01*
X36088Y77966D01*
X36746Y78471D01*
X37251Y79129D01*
X37569Y79895D01*
X37677Y80717D01*
X37569Y81539D01*
X37251Y82305D01*
X36746Y82963D01*
X36088Y83468D01*
X35322Y83785D01*
X34500Y83894D01*
D02*
G37*
G36*
X58500Y73677D02*
X57678Y73568D01*
X56912Y73251D01*
X56254Y72746D01*
X55777Y72125D01*
X55500Y72090D01*
X55223Y72125D01*
X54746Y72746D01*
X54088Y73251D01*
X53322Y73568D01*
X52500Y73677D01*
X51678Y73568D01*
X50912Y73251D01*
X50254Y72746D01*
X49777Y72125D01*
X49500Y72090D01*
X49223Y72125D01*
X48746Y72746D01*
X48088Y73251D01*
X47322Y73568D01*
X46500Y73677D01*
X45678Y73568D01*
X44912Y73251D01*
X44254Y72746D01*
X43777Y72125D01*
X43500Y72090D01*
X43223Y72125D01*
X42746Y72746D01*
X42088Y73251D01*
X41322Y73568D01*
X40500Y73677D01*
X39678Y73568D01*
X38912Y73251D01*
X38254Y72746D01*
X37749Y72088D01*
X37431Y71322D01*
X37323Y70500D01*
X37431Y69678D01*
X37749Y68912D01*
X38254Y68254D01*
X38912Y67749D01*
X39678Y67431D01*
X40500Y67323D01*
X41322Y67431D01*
X42088Y67749D01*
X42746Y68254D01*
X43223Y68875D01*
X43500Y68910D01*
X43777Y68875D01*
X44254Y68254D01*
X44912Y67749D01*
X45678Y67431D01*
X46500Y67323D01*
X47322Y67431D01*
X48088Y67749D01*
X48746Y68254D01*
X49223Y68875D01*
X49500Y68910D01*
X49777Y68875D01*
X50254Y68254D01*
X50912Y67749D01*
X51678Y67431D01*
X52500Y67323D01*
X53322Y67431D01*
X54088Y67749D01*
X54746Y68254D01*
X55223Y68875D01*
X55500Y68910D01*
X55777Y68875D01*
X56254Y68254D01*
X56912Y67749D01*
X57678Y67431D01*
X58500Y67323D01*
X59322Y67431D01*
X60088Y67749D01*
X60746Y68254D01*
X61251Y68912D01*
X61568Y69678D01*
X61677Y70500D01*
X61568Y71322D01*
X61251Y72088D01*
X60746Y72746D01*
X60088Y73251D01*
X59322Y73568D01*
X58500Y73677D01*
D02*
G37*
G36*
Y58677D02*
X57678Y58569D01*
X56912Y58251D01*
X56254Y57746D01*
X55777Y57125D01*
X55500Y57090D01*
X55223Y57125D01*
X54746Y57746D01*
X54088Y58251D01*
X53322Y58569D01*
X52500Y58677D01*
X51678Y58569D01*
X50912Y58251D01*
X50254Y57746D01*
X49777Y57125D01*
X49500Y57090D01*
X49223Y57125D01*
X48746Y57746D01*
X48088Y58251D01*
X47322Y58569D01*
X46500Y58677D01*
X45678Y58569D01*
X44912Y58251D01*
X44254Y57746D01*
X43777Y57125D01*
X43500Y57090D01*
X43223Y57125D01*
X42746Y57746D01*
X42088Y58251D01*
X41322Y58569D01*
X40500Y58677D01*
X39678Y58569D01*
X38912Y58251D01*
X38254Y57746D01*
X37749Y57088D01*
X37431Y56322D01*
X37323Y55500D01*
X37431Y54678D01*
X37749Y53912D01*
X38254Y53254D01*
X38912Y52749D01*
X39678Y52431D01*
X40500Y52323D01*
X41322Y52431D01*
X42088Y52749D01*
X42746Y53254D01*
X43223Y53875D01*
X43500Y53910D01*
X43777Y53875D01*
X44254Y53254D01*
X44912Y52749D01*
X45678Y52431D01*
X46500Y52323D01*
X47322Y52431D01*
X48088Y52749D01*
X48746Y53254D01*
X49223Y53875D01*
X49500Y53910D01*
X49777Y53875D01*
X50254Y53254D01*
X50912Y52749D01*
X51678Y52431D01*
X52500Y52323D01*
X52548Y52329D01*
X52894Y51983D01*
Y18170D01*
X52713Y18095D01*
X51973Y17527D01*
X51405Y16787D01*
X51048Y15925D01*
X50926Y15000D01*
X51048Y14075D01*
X51405Y13213D01*
X51973Y12473D01*
X52713Y11905D01*
X53575Y11548D01*
X54500Y11426D01*
X55425Y11548D01*
X56287Y11905D01*
X57027Y12473D01*
X57595Y13213D01*
X57952Y14075D01*
X58074Y15000D01*
X57952Y15925D01*
X57595Y16787D01*
X57027Y17527D01*
X56287Y18095D01*
X56106Y18170D01*
Y52648D01*
X56106Y52648D01*
X56085Y52753D01*
X56538Y53035D01*
X56912Y52749D01*
X57678Y52431D01*
X58500Y52323D01*
X59322Y52431D01*
X60088Y52749D01*
X60746Y53254D01*
X61251Y53912D01*
X61568Y54678D01*
X61677Y55500D01*
X61568Y56322D01*
X61251Y57088D01*
X60746Y57746D01*
X60088Y58251D01*
X59322Y58569D01*
X58500Y58677D01*
D02*
G37*
G36*
X74000Y42067D02*
X72818Y41911D01*
X71717Y41455D01*
X70771Y40729D01*
X70045Y39783D01*
X69589Y38682D01*
X69433Y37500D01*
X69589Y36318D01*
X70045Y35217D01*
X70771Y34271D01*
X71717Y33545D01*
X72818Y33089D01*
X74000Y32933D01*
X75182Y33089D01*
X76283Y33545D01*
X77229Y34271D01*
X77955Y35217D01*
X78411Y36318D01*
X78567Y37500D01*
X78411Y38682D01*
X77955Y39783D01*
X77229Y40729D01*
X76283Y41455D01*
X75182Y41911D01*
X74000Y42067D01*
D02*
G37*
G36*
X24500D02*
X23318Y41911D01*
X22217Y41455D01*
X21271Y40729D01*
X20545Y39783D01*
X20089Y38682D01*
X19933Y37500D01*
X20089Y36318D01*
X20545Y35217D01*
X21271Y34271D01*
X22217Y33545D01*
X23318Y33089D01*
X24500Y32933D01*
X25682Y33089D01*
X26783Y33545D01*
X27729Y34271D01*
X28455Y35217D01*
X28911Y36318D01*
X29067Y37500D01*
X28911Y38682D01*
X28455Y39783D01*
X27729Y40729D01*
X26783Y41455D01*
X25682Y41911D01*
X24500Y42067D01*
D02*
G37*
G36*
X75000Y18921D02*
Y15500D01*
X78421D01*
X78351Y16032D01*
X77953Y16993D01*
X77319Y17819D01*
X76493Y18453D01*
X75532Y18851D01*
X75000Y18921D01*
D02*
G37*
G36*
X74000D02*
X73468Y18851D01*
X72507Y18453D01*
X71681Y17819D01*
X71047Y16993D01*
X70649Y16032D01*
X70579Y15500D01*
X74000D01*
Y18921D01*
D02*
G37*
G36*
X28043Y18543D02*
X20957D01*
Y11457D01*
X28043D01*
Y18543D01*
D02*
G37*
G36*
X64500Y83894D02*
X63678Y83785D01*
X62912Y83468D01*
X62254Y82963D01*
X61749Y82305D01*
X61431Y81539D01*
X61323Y80717D01*
X61431Y79895D01*
X61749Y79129D01*
X62254Y78471D01*
X62894Y77979D01*
Y18170D01*
X62713Y18095D01*
X61973Y17527D01*
X61405Y16787D01*
X61048Y15925D01*
X60926Y15000D01*
X61048Y14075D01*
X61405Y13213D01*
X61973Y12473D01*
X62713Y11905D01*
X63575Y11548D01*
X64500Y11426D01*
X65425Y11548D01*
X66287Y11905D01*
X67027Y12473D01*
X67595Y13213D01*
X67952Y14075D01*
X68074Y15000D01*
X67952Y15925D01*
X67595Y16787D01*
X67027Y17527D01*
X66287Y18095D01*
X66106Y18170D01*
Y77979D01*
X66746Y78471D01*
X67251Y79129D01*
X67568Y79895D01*
X67677Y80717D01*
X67568Y81539D01*
X67251Y82305D01*
X66746Y82963D01*
X66088Y83468D01*
X65322Y83785D01*
X64500Y83894D01*
D02*
G37*
G36*
X44500Y18574D02*
X43575Y18452D01*
X42713Y18095D01*
X41973Y17527D01*
X41405Y16787D01*
X41048Y15925D01*
X40926Y15000D01*
X41048Y14075D01*
X41405Y13213D01*
X41973Y12473D01*
X42713Y11905D01*
X43575Y11548D01*
X44500Y11426D01*
X45425Y11548D01*
X46287Y11905D01*
X47027Y12473D01*
X47595Y13213D01*
X47952Y14075D01*
X48074Y15000D01*
X47952Y15925D01*
X47595Y16787D01*
X47027Y17527D01*
X46287Y18095D01*
X45425Y18452D01*
X44500Y18574D01*
D02*
G37*
G36*
X34500D02*
X33575Y18452D01*
X32713Y18095D01*
X31973Y17527D01*
X31405Y16787D01*
X31048Y15925D01*
X30926Y15000D01*
X31048Y14075D01*
X31405Y13213D01*
X31973Y12473D01*
X32713Y11905D01*
X33575Y11548D01*
X34500Y11426D01*
X35425Y11548D01*
X36287Y11905D01*
X37027Y12473D01*
X37595Y13213D01*
X37952Y14075D01*
X38074Y15000D01*
X37952Y15925D01*
X37595Y16787D01*
X37027Y17527D01*
X36287Y18095D01*
X35425Y18452D01*
X34500Y18574D01*
D02*
G37*
G36*
X78421Y14500D02*
X75000D01*
Y11079D01*
X75532Y11149D01*
X76493Y11547D01*
X77319Y12181D01*
X77953Y13007D01*
X78351Y13968D01*
X78421Y14500D01*
D02*
G37*
G36*
X74000D02*
X70579D01*
X70649Y13968D01*
X71047Y13007D01*
X71681Y12181D01*
X72507Y11547D01*
X73468Y11149D01*
X74000Y11079D01*
Y14500D01*
D02*
G37*
%LPD*%
D24*
X64500Y15000D02*
Y80717D01*
X52500Y54648D02*
Y55500D01*
Y54648D02*
X54500Y52648D01*
Y15000D02*
Y52648D01*
D25*
X74500Y15000D02*
D03*
X64500D02*
D03*
X54500D02*
D03*
X44500D02*
D03*
X34500D02*
D03*
D26*
X24500D02*
D03*
D27*
X7874Y90551D02*
D03*
X90551D02*
D03*
Y7874D02*
D03*
X7874D02*
D03*
D28*
X46500Y55500D02*
D03*
X40500D02*
D03*
Y70500D02*
D03*
X46500D02*
D03*
X58500D02*
D03*
X52500D02*
D03*
X58500Y55500D02*
D03*
X52500D02*
D03*
X64500Y80717D02*
D03*
X34500D02*
D03*
D29*
X74000Y37500D02*
D03*
X24500D02*
D03*
X74500Y88000D02*
D03*
X24000D02*
D03*
M02*
