M48
;Layer_Color=9474304
;FILE_FORMAT=2:5
INCH,LZ
;TYPE=PLATED
T1F00S00C0.03150
T2F00S00C0.03543
T3F00S00C0.06299
T4F00S00C0.07874
%
T01
X00405Y00555
X00465
X00525
X00585
Y00705
X00525
X00465
X00405
X00345Y0080717
X00645
T02
X00245Y0015
X00345
X00445
X00545
X00645
X00745
T03
X00245Y00375
X0074
X00745Y0088
X0024
T04
X0007874Y0007874
X0090551
Y0090551
X0007874
M30
